M48
; DRILL file {KiCad (5.1.12)-1} date 11/15/24 22:41:17
; FORMAT={-:-/ absolute / metric / decimal}
; #@! TF.CreationDate,2024-11-15T22:41:17+01:00
; #@! TF.GenerationSoftware,Kicad,Pcbnew,(5.1.12)-1
; #@! TF.FileFunction,Plated,1,4,PTH
FMAT,2
METRIC
T1C0.300
T2C0.600
T3C1.000
T4C1.520
%
G90
G05
T1
X40.74Y-137.31
X40.77Y-134.22
X40.87Y-135.56
X40.99Y-139.41
X41.08Y-63.63
X41.17Y-99.55
X41.23Y-60.28
X41.35Y-51.76
X41.39Y-93.26
X41.43Y-47.5
X41.53Y-57.85
X41.54Y-56.48
X41.54Y-83.66
X41.58Y-81.7
X41.62Y-43.78
X41.62Y-54.75
X41.62Y-86.77
X41.95Y-136.18
X41.97Y-41.37
X42.03Y-133.86
X42.06Y-135.2
X42.35Y-105.05
X42.6Y-100.78
X42.81Y-134.7
X42.81Y-136.32
X43.37Y-72.32
X43.68Y-136.99
X43.78Y-93.77
X43.78Y-138.26
X43.91Y-79.43
X44.19Y-84.16
X44.3Y-66.65
X44.81Y-58.53
X45.2Y-77.59
X45.37Y-75.99
X45.41Y-57.24
X45.43Y-91.7
X45.465Y-134.765
X45.465Y-136.945
X45.55Y-98.33
X45.56Y-81.53
X45.57Y-51.89
X46.24Y-42.52
X46.24Y-104.37
X46.31Y-135.97
X46.33Y-133.65
X46.34Y-137.73
X46.35Y-136.83
X46.35Y-138.92
X46.41Y-74.48
X46.46Y-134.47
X46.48Y-78.81
X46.57Y-76.63
X46.66Y-64.75
X46.682Y-70.618
X46.78Y-86.41
X46.85Y-55.63
X46.87Y-106.35
X47.02Y-71.66
X47.175Y-134.865
X47.175Y-137.035
X47.29Y-50.51
X47.43Y-75.33
X47.57Y-65.99
X47.57Y-100.56
X47.66Y-79.9
X47.784Y-70.266
X47.79Y-83.37
X47.92Y-53.57
X47.96Y-78.13
X48.07Y-66.31
X48.08Y-44.72
X48.3Y-87.89
X48.34Y-41.1
X48.34Y-93.8
X48.37Y-76.34
X48.39Y-75.42
X48.4Y-43.04
X48.56Y-139.45
X48.84Y-135.16
X48.87Y-84.08
X48.88Y-69.12
X48.93Y-136.37
X48.98Y-138.22
X49.0Y-61.23
X49.03Y-125.52
X49.19Y-56.64
X49.2Y-81.49
X49.3Y-66.32
X49.45Y-76.59
X49.58Y-75.41
X49.66Y-99.46
X49.72Y-106.26
X49.78Y-77.58
X49.78Y-130.86
X49.85Y-80.02
X49.875Y-74.415
X49.9Y-129.71
X50.06Y-134.18
X50.29Y-54.87
X50.29Y-59.94
X50.6Y-123.2
X50.61Y-78.36
X50.67Y-85.57
X50.84Y-88.71
X50.95Y-135.31
X50.98Y-83.08
X51.0Y-92.11
X51.03Y-104.08
X51.09Y-105.37
X51.15Y-136.27
X51.28Y-126.23
X51.29Y-119.16
X51.35Y-59.57
X51.38Y-116.94
X51.38Y-138.89
X51.41Y-77.29
X51.41Y-106.51
X51.42Y-118.02
X51.45Y-76.05
X51.46Y-120.05
X51.46Y-137.58
X51.66Y-52.36
X51.67Y-73.11
X51.77Y-66.02
X51.85Y-76.58
X51.93Y-87.81
X52.02Y-131.31
X52.09Y-69.48
X52.25Y-78.02
X52.34Y-59.51
X52.37Y-82.5
X52.4Y-124.89
X52.41Y-120.27
X52.65Y-84.77
X52.685Y-108.815
X52.71Y-98.28
X52.73Y-63.17
X52.74Y-65.44
X52.91Y-67.68
X52.99Y-131.35
X53.2Y-77.43
X53.28Y-79.03
X53.31Y-139.36
X53.34Y-73.86
X53.5Y-40.6
X53.53Y-120.27
X53.61Y-81.55
X53.74Y-67.07
X53.982Y-65.648
X54.01Y-124.29
X54.1Y-84.22
X54.22Y-86.43
X54.23Y-55.43
X54.31Y-78.65
X54.35Y-112.9
X54.36Y-94.59
X54.37Y-97.88
X54.39Y-98.85
X54.42Y-79.96
X54.43Y-95.83
X54.61Y-82.38
X54.72Y-120.19
X54.76Y-123.16
X54.79Y-91.15
X54.81Y-71.82
X54.98Y-93.18
X54.99Y-130.31
X55.2Y-66.14
X55.21Y-137.55
X55.23Y-49.45
X55.32Y-79.6
X55.41Y-81.02
X55.44Y-97.29
X55.46Y-69.14
X55.52Y-54.38
X55.53Y-124.86
X55.56Y-87.65
X55.59Y-117.05
X55.65Y-83.5
X55.7Y-117.98
X55.71Y-119.74
X55.75Y-95.0
X55.77Y-85.96
X55.83Y-55.17
X55.9Y-118.8
X55.91Y-75.35
X55.918Y-65.172
X55.96Y-48.63
X56.16Y-47.15
X56.24Y-91.78
X56.35Y-97.69
X56.4Y-58.82
X56.41Y-67.39
X56.43Y-98.9
X56.75Y-93.0
X56.77Y-82.48
X56.83Y-77.15
X56.86Y-84.79
X56.95Y-70.95
X57.03Y-122.88
X57.03Y-124.42
X57.25Y-65.4
X57.26Y-81.45
X57.29Y-87.43
X57.36Y-100.18
X57.43Y-49.95
X57.45Y-50.93
X57.46Y-74.22
X57.5Y-94.5
X57.69Y-44.95
X57.71Y-68.51
X57.75Y-52.82
X57.96Y-114.67
X58.09Y-58.06
X58.13Y-62.5
X58.26Y-83.91
X58.26Y-86.04
X58.31Y-65.8
X58.33Y-54.48
X58.35Y-99.05
X58.38Y-82.54
X58.68Y-101.68
X58.69Y-139.46
X58.75Y-124.19
X58.78Y-122.13
X58.85Y-72.39
X58.91Y-94.54
X59.04Y-46.2
X59.06Y-118.63
X59.14Y-69.85
X59.16Y-81.45
X59.25Y-67.66
X59.27Y-120.1
X59.45Y-52.9
X59.47Y-50.69
X59.5Y-56.24
X59.5Y-87.39
X59.51Y-79.37
X59.59Y-40.6
X59.6Y-42.94
X59.69Y-126.1
X59.72Y-61.2
X59.72Y-83.98
X59.95Y-100.18
X60.15Y-85.68
X60.23Y-66.02
X60.26Y-47.43
X60.33Y-127.75
X60.37Y-101.68
X60.52Y-68.88
X60.54Y-70.87
X60.55Y-82.7
X60.62Y-67.2
X60.67Y-96.14
X60.71Y-85.01
X60.77Y-91.42
X60.82Y-86.56
X60.83Y-44.78
X60.95Y-80.44
X61.05Y-115.79
X61.1Y-54.38
X61.24Y-101.16
X61.42Y-66.37
X61.55Y-85.96
X61.56Y-100.2
X61.63Y-65.35
X61.73Y-67.2
X61.74Y-102.3
X61.75Y-86.95
X61.8Y-126.61
X61.85Y-117.78
X61.89Y-68.4
X62.01Y-72.37
X62.21Y-58.81
X62.21Y-69.36
X62.25Y-95.5
X62.3Y-77.8
X62.42Y-80.53
X62.43Y-81.73
X62.7Y-86.81
X62.73Y-65.9
X62.75Y-101.38
X62.8Y-85.09
X62.89Y-100.32
X62.93Y-121.81
X62.96Y-83.06
X63.08Y-50.57
X63.285Y-63.3
X63.42Y-48.27
X63.5Y-107.0
X63.615Y-66.655
X63.67Y-93.25
X63.73Y-65.05
X63.75Y-128.5
X63.8Y-98.15
X63.8Y-103.2
X63.94Y-74.56
X64.0Y-115.0
X64.03Y-77.63
X64.04Y-139.33
X64.18Y-86.45
X64.25Y-110.25
X64.37Y-69.61
X64.47Y-104.03
X64.52Y-67.43
X64.65Y-49.46
X64.73Y-79.3
X64.74Y-65.53
X64.82Y-98.19
X64.92Y-40.57
X65.0Y-124.0
X65.05Y-99.41
X65.1Y-102.76
X65.21Y-57.55
X65.22Y-71.03
X65.55Y-82.08
X65.71Y-68.74
X65.8Y-90.52
X65.81Y-43.1
X65.84Y-100.35
X65.89Y-64.46
X65.91Y-89.63
X65.94Y-65.96
X65.94Y-67.42
X65.95Y-109.83
X65.98Y-60.33
X65.99Y-70.93
X66.08Y-84.81
X66.08Y-101.31
X66.08Y-108.13
X66.09Y-83.89
X66.1Y-97.02
X66.15Y-98.24
X66.45Y-72.75
X66.59Y-76.75
X66.594Y-80.61
X66.63Y-81.72
X66.75Y-104.75
X66.75Y-126.31
X67.02Y-136.96
X67.03Y-108.41
X67.28Y-63.48
X67.31Y-69.62
X67.36Y-65.89
X67.37Y-114.07
X67.4Y-67.74
X67.62Y-57.21
X67.68Y-102.03
X67.75Y-129.0
X67.76Y-72.59
X67.85Y-111.18
X68.0Y-105.5
X68.03Y-112.95
X68.06Y-50.45
X68.1Y-40.63
X68.15Y-139.15
X68.28Y-74.27
X68.39Y-53.67
X68.5Y-100.6
X68.5Y-109.98
X68.93Y-67.52
X69.09Y-111.18
X69.11Y-61.48
X69.25Y-104.25
X69.25Y-113.08
X69.31Y-108.78
X69.45Y-74.21
X69.52Y-71.14
X69.52Y-82.39
X69.53Y-65.38
X69.64Y-110.04
X69.89Y-69.1
X69.93Y-99.15
X69.95Y-117.84
X69.96Y-103.02
X70.05Y-107.53
X70.13Y-68.15
X70.17Y-84.74
X70.18Y-111.21
X70.26Y-43.21
X70.42Y-112.77
X70.45Y-54.64
X70.48Y-52.76
X70.5Y-70.53
X70.65Y-121.67
X70.65Y-122.65
X70.68Y-40.51
X70.72Y-57.11
X70.73Y-50.09
X70.76Y-59.59
X71.03Y-63.8
X71.11Y-66.07
X71.11Y-67.48
X71.11Y-72.23
X71.2Y-100.15
X71.46Y-106.66
X71.48Y-120.63
X71.52Y-74.01
X71.75Y-103.7
X71.96Y-113.14
X72.0Y-97.8
X72.02Y-62.56
X72.06Y-66.1
X72.06Y-67.56
X72.27Y-139.46
X72.43Y-91.08
X72.46Y-130.43
X72.5Y-105.52
X72.6Y-120.64
X72.73Y-77.61
X72.735Y-68.215
X72.79Y-70.53
X72.94Y-116.47
X73.02Y-66.34
X73.12Y-136.95
X73.34Y-68.82
X73.36Y-40.56
X73.46Y-106.56
X73.5Y-108.2
X73.54Y-112.65
X73.58Y-118.97
X73.59Y-115.24
X73.6Y-104.55
X73.63Y-91.48
X73.68Y-110.26
X73.68Y-130.14
X73.84Y-54.01
X73.89Y-55.69
X73.91Y-62.57
X73.93Y-86.12
X74.0Y-116.72
X74.02Y-67.75
X74.09Y-70.5
X74.11Y-58.29
X74.11Y-60.14
X74.23Y-72.26
X74.31Y-66.41
X74.61Y-111.87
X74.61Y-115.23
X74.65Y-110.77
X74.65Y-112.8
X74.69Y-109.58
X74.73Y-117.82
X74.95Y-68.76
X74.98Y-139.15
X75.12Y-97.78
X75.21Y-79.02
X75.49Y-89.84
X75.5Y-70.97
X75.61Y-67.95
X75.66Y-40.58
X75.66Y-66.36
X75.8Y-124.87
X75.92Y-121.44
X75.93Y-42.79
X75.96Y-122.71
X76.15Y-71.63
X76.51Y-105.0
X76.55Y-98.86
X76.75Y-106.41
X76.804Y-72.284
X76.86Y-83.02
X76.88Y-120.58
X76.89Y-67.84
X77.1Y-74.38
X77.21Y-97.62
X77.34Y-68.86
X77.41Y-72.88
X77.61Y-77.73
X77.67Y-105.76
X77.71Y-66.0
X77.86Y-55.06
X77.86Y-61.64
X77.95Y-116.55
X77.96Y-74.05
X78.01Y-120.48
X78.24Y-64.83
X78.24Y-137.06
X78.27Y-95.95
X78.28Y-107.13
X78.31Y-50.06
X78.38Y-40.58
X78.45Y-63.9
X78.51Y-79.86
X78.54Y-105.79
X78.58Y-124.91
X78.6Y-72.38
X78.88Y-118.29
X78.89Y-119.59
X79.0Y-115.89
X79.0Y-117.08
X79.052Y-108.196
X79.08Y-111.93
X79.11Y-77.81
X79.19Y-110.14
X79.23Y-74.65
X79.29Y-100.21
X79.43Y-94.13
X79.49Y-103.56
X79.5Y-105.76
X79.7Y-106.99
X79.81Y-63.4
X79.93Y-78.39
X80.33Y-103.78
X80.371Y-105.81
X80.484Y-107.583
X80.58Y-138.89
X80.81Y-40.62
X80.94Y-63.53
X80.98Y-104.5
X80.99Y-52.9
X81.17Y-97.27
X81.221Y-105.839
X81.26Y-43.06
X81.31Y-69.71
X81.31Y-72.47
X81.31Y-85.89
X81.39Y-83.68
X81.4Y-107.42
X81.55Y-79.75
X81.61Y-100.43
X82.03Y-74.18
X82.06Y-106.679
X82.19Y-99.79
X82.24Y-109.96
X82.298Y-108.97
X82.41Y-69.98
X82.44Y-103.72
X82.47Y-104.57
X82.55Y-92.67
X82.61Y-114.23
X82.63Y-71.41
X82.65Y-107.76
X82.95Y-74.27
X82.99Y-128.89
X83.13Y-110.02
X83.24Y-43.21
X83.24Y-112.1
X83.27Y-66.89
X83.27Y-130.37
X83.29Y-103.74
X83.29Y-40.65
X83.34Y-110.93
X83.39Y-138.04
X83.48Y-105.58
X83.61Y-100.21
X84.34Y-67.38
X84.51Y-115.63
X84.51Y-119.36
X84.61Y-77.82
X84.68Y-97.2
X84.72Y-63.37
X84.84Y-88.7
X84.86Y-62.19
X84.95Y-136.52
X85.06Y-74.8
X85.29Y-78.51
X85.44Y-122.31
X85.57Y-61.01
X85.79Y-67.53
X85.81Y-40.61
X85.87Y-49.83
X86.06Y-43.2
X86.09Y-58.91
X86.14Y-108.48
X86.49Y-113.29
X86.87Y-117.2
X86.87Y-119.33
X86.89Y-56.91
X87.05Y-79.06
X87.25Y-95.48
X87.615Y-100.215
X87.74Y-121.93
X87.92Y-110.03
X88.27Y-104.84
X88.33Y-123.77
X88.4Y-56.32
X88.4Y-138.35
X88.42Y-63.84
X88.44Y-66.43
X88.48Y-40.67
X88.5Y-118.34
X88.51Y-61.25
X88.51Y-68.07
X88.57Y-43.41
X88.59Y-103.24
X88.85Y-115.08
X89.02Y-100.17
X89.254Y-81.897
X89.29Y-112.54
X89.55Y-120.3
X89.58Y-104.16
X89.65Y-54.38
X89.71Y-55.73
X90.05Y-125.43
X90.11Y-74.69
X90.16Y-80.94
X90.238Y-77.777
X90.24Y-66.34
X90.34Y-64.39
X90.4Y-73.28
X90.48Y-62.69
X90.61Y-117.71
X90.67Y-104.1
X90.82Y-139.38
X90.84Y-110.608
X90.88Y-109.65
X90.93Y-43.23
X90.99Y-53.8
X91.03Y-111.85
X91.03Y-137.02
X91.04Y-40.57
X91.3Y-80.63
X91.33Y-122.13
X91.455Y-81.885
X91.67Y-82.74
X91.79Y-55.7
X91.82Y-69.27
X92.0Y-54.48
X92.02Y-110.77
X92.03Y-128.06
X92.06Y-120.09
X92.08Y-73.71
X92.11Y-95.24
X92.15Y-117.66
X92.2Y-64.57
X92.32Y-115.42
X92.33Y-63.09
X92.36Y-92.24
X92.46Y-112.43
X92.53Y-66.33
X92.55Y-109.52
X92.84Y-60.74
X93.0Y-68.22
X93.11Y-116.59
X93.12Y-53.09
X93.33Y-58.9
X93.39Y-139.44
X93.52Y-43.33
X93.54Y-40.56
X93.6Y-72.42
X93.62Y-64.76
X93.68Y-50.61
X93.71Y-112.3
X93.77Y-118.13
X93.88Y-55.23
X93.94Y-60.5
X93.99Y-62.9
X94.01Y-66.97
X94.06Y-77.36
X94.06Y-111.26
X94.18Y-71.6
X94.42Y-109.47
X94.49Y-68.69
X95.06Y-81.23
X95.09Y-84.24
X95.14Y-127.26
X95.15Y-121.36
X95.17Y-123.74
X95.18Y-102.96
X95.24Y-111.2
X95.27Y-128.97
X95.45Y-66.82
X95.46Y-101.32
X95.52Y-95.09
X95.55Y-92.1
X95.56Y-98.84
X95.58Y-90.94
X95.59Y-68.79
X95.63Y-94.12
X95.64Y-97.76
X95.77Y-88.47
X95.79Y-55.89
X95.8Y-87.51
X95.99Y-84.83
X96.01Y-103.92
X96.02Y-119.9
X96.03Y-126.05
X96.05Y-138.32
X96.09Y-60.24
X96.1Y-76.69
X96.13Y-40.66
X96.14Y-52.72
X96.14Y-64.51
X96.15Y-43.46
X96.23Y-129.82
X96.27Y-81.14
X96.41Y-102.65
X96.46Y-111.48
X96.46Y-109.16
X96.69Y-99.63
X96.91Y-121.38
X96.94Y-104.86
X97.15Y-96.17
X97.2Y-123.29
X97.22Y-67.41
X97.22Y-68.59
X97.22Y-70.7
X97.29Y-103.41
X97.38Y-76.18
X97.48Y-111.45
X97.49Y-84.66
X97.5Y-115.34
X97.51Y-109.26
X97.69Y-117.55
X97.69Y-124.83
X97.7Y-114.22
X97.75Y-112.77
X97.86Y-118.62
X97.91Y-82.08
X97.99Y-65.59
X97.996Y-72.986
X98.07Y-83.43
X98.1Y-93.77
X98.3Y-54.08
X98.33Y-57.49
X98.5Y-90.55
X98.53Y-109.39
X98.55Y-111.46
X98.6Y-61.21
X98.6Y-136.99
X98.7Y-40.61
X98.7Y-117.02
X98.71Y-101.13
X98.9Y-60.1
X98.92Y-121.69
X98.98Y-92.46
X98.99Y-63.87
X99.01Y-104.89
X99.05Y-127.8
X99.06Y-119.33
X99.1Y-65.45
X99.13Y-43.36
X99.14Y-62.77
X99.39Y-83.48
X99.46Y-123.32
X99.47Y-110.43
X99.51Y-117.9
X99.55Y-81.88
X99.56Y-113.51
X99.61Y-115.87
X99.71Y-111.44
X99.752Y-77.052
X99.83Y-71.18
X99.94Y-66.99
X100.0Y-61.34
X100.12Y-59.82
X100.33Y-114.49
X100.7Y-111.96
X100.82Y-82.1
X100.88Y-74.26
X100.94Y-117.78
X100.97Y-104.01
X101.01Y-137.34
X101.1Y-77.0
X101.13Y-78.41
X101.14Y-43.47
X101.15Y-87.74
X101.19Y-121.16
X101.34Y-110.278
X101.36Y-40.56
X101.6Y-79.3
X101.61Y-69.81
X101.75Y-72.1
X101.8Y-117.74
X101.87Y-73.49
X101.93Y-68.24
X102.1Y-74.6
X102.32Y-90.82
X102.35Y-53.62
X102.38Y-58.84
X102.51Y-115.54
X102.56Y-68.86
X102.59Y-94.88
X102.67Y-117.75
X102.81Y-62.1
X103.07Y-111.64
X103.19Y-120.39
X103.26Y-83.45
X103.36Y-40.63
X103.4Y-74.6
X103.43Y-71.34
X103.43Y-106.15
X103.58Y-92.73
X103.64Y-115.7
X103.66Y-137.1
X103.73Y-109.59
X103.76Y-43.28
X103.9Y-78.0
X103.935Y-69.595
X103.94Y-80.2
X103.94Y-81.0
X104.01Y-98.16
X104.26Y-52.69
X104.46Y-79.01
X104.514Y-67.634
X104.534Y-68.484
X104.7Y-56.04
X104.8Y-73.08
X104.81Y-124.51
X104.97Y-125.82
X105.15Y-94.44
X105.27Y-40.65
X105.33Y-123.44
X105.38Y-87.29
X105.68Y-63.45
X105.77Y-99.35
X105.9Y-139.34
X105.96Y-125.92
X105.97Y-124.22
X106.06Y-126.81
X106.09Y-122.36
X106.1Y-95.49
X106.1Y-127.99
X106.13Y-82.82
X106.22Y-136.85
X106.25Y-79.06
X106.26Y-72.16
X106.4Y-43.22
X106.72Y-89.35
X106.73Y-84.33
X106.77Y-68.53
X106.83Y-62.16
X107.3Y-70.87
X107.48Y-76.12
X107.49Y-87.04
X107.55Y-67.6
X107.66Y-75.13
X107.75Y-76.93
X107.82Y-72.69
X107.86Y-73.66
X107.865Y-79.96
X108.3Y-66.62
X108.31Y-126.0
X108.51Y-40.69
X108.54Y-77.52
X108.6Y-129.48
X108.62Y-126.95
X108.66Y-88.17
X108.69Y-43.54
X108.71Y-74.85
X108.72Y-137.88
X108.73Y-90.74
X108.73Y-128.46
X108.88Y-92.33
X108.97Y-84.3
X109.24Y-50.07
X109.4Y-86.81
X109.72Y-119.06
X109.76Y-72.84
X109.83Y-55.12
X109.96Y-124.02
X109.97Y-112.97
X110.16Y-115.76
X110.18Y-71.22
X110.21Y-117.36
X110.26Y-84.21
X110.31Y-71.99
X110.38Y-97.38
X110.45Y-74.83
X110.45Y-121.43
X110.47Y-72.74
X110.58Y-102.53
X110.62Y-128.64
X110.64Y-79.52
X110.68Y-129.53
X110.9Y-64.04
X110.93Y-71.49
X111.0Y-72.18
X111.05Y-86.78
X111.06Y-100.63
X111.09Y-63.23
X111.16Y-139.04
X111.18Y-120.1
X111.25Y-126.19
X111.26Y-124.43
X111.34Y-137.15
X111.37Y-40.6
X111.51Y-75.55
X111.54Y-74.5
X111.55Y-43.73
X111.55Y-73.57
X111.57Y-115.16
X111.61Y-77.32
X111.62Y-93.24
X111.62Y-95.54
X111.63Y-88.51
X111.68Y-91.0
X111.84Y-67.87
X111.84Y-117.94
X111.96Y-97.75
X112.15Y-84.64
X112.78Y-63.38
X113.05Y-114.92
X113.12Y-118.11
X113.13Y-52.22
X113.225Y-89.635
X113.225Y-92.085
X113.225Y-94.475
X113.37Y-67.32
X113.44Y-63.93
X113.58Y-124.43
X113.65Y-126.19
X113.65Y-136.66
X113.66Y-40.52
X114.27Y-116.28
X114.76Y-82.86
X115.2Y-112.77
X115.21Y-105.54
X115.39Y-91.92
X115.46Y-59.61
X115.5Y-98.11
X115.56Y-121.78
X115.64Y-115.42
X115.7Y-62.98
X115.76Y-109.59
X115.79Y-64.15
X115.82Y-100.22
X116.22Y-84.15
X116.26Y-137.84
X116.3Y-94.37
X116.37Y-40.59
X116.59Y-56.2
X117.01Y-43.76
X117.19Y-127.12
X117.45Y-55.49
X117.74Y-85.79
X117.88Y-66.77
X117.98Y-63.16
X117.99Y-131.56
X118.0Y-112.8
X118.05Y-49.96
X118.15Y-56.57
X118.185Y-89.945
X118.185Y-91.535
X118.26Y-133.68
X118.38Y-109.43
X118.48Y-135.4
X118.56Y-128.34
X118.6Y-121.06
X118.64Y-123.86
X118.71Y-59.3
X118.77Y-139.17
X118.82Y-40.67
X118.9Y-118.55
X118.958Y-113.738
X118.98Y-94.37
X118.98Y-95.82
X119.15Y-46.31
X119.17Y-43.06
X119.32Y-87.34
X119.42Y-61.12
X119.46Y-82.94
X119.47Y-56.37
X119.58Y-63.75
X119.66Y-75.49
X119.72Y-53.01
X119.95Y-100.67
X120.09Y-63.07
X120.46Y-84.42
X120.47Y-88.02
X120.59Y-103.47
X120.61Y-90.82
X120.76Y-109.74
X120.77Y-82.58
X120.81Y-111.855
X120.88Y-40.61
X121.122Y-113.738
X121.29Y-58.62
X121.32Y-97.93
X121.38Y-121.79
X121.44Y-116.16
X121.57Y-83.2
X121.58Y-133.31
X121.67Y-56.01
X121.69Y-137.87
X121.72Y-75.17
X121.83Y-77.26
X121.85Y-125.91
X122.01Y-118.4
X122.06Y-63.51
X122.06Y-105.24
X122.1Y-128.63
X122.32Y-48.8
X122.33Y-111.79
X122.67Y-53.31
X122.9Y-44.54
X123.18Y-75.99
X123.21Y-40.57
X123.31Y-78.77
X123.33Y-56.0
X123.36Y-85.41
X123.43Y-66.72
X123.9Y-100.0
X123.97Y-43.1
X123.98Y-91.9
X124.45Y-63.64
X124.51Y-46.95
X124.73Y-68.93
X124.73Y-108.89
X124.98Y-101.42
X124.99Y-73.29
X125.08Y-134.61
X125.25Y-56.01
X125.29Y-124.56
X125.41Y-53.38
X125.42Y-122.24
X125.47Y-138.34
X125.5Y-63.6
X125.64Y-59.33
X125.71Y-128.52
X125.77Y-40.5
X125.78Y-136.72
X125.84Y-99.57
X125.86Y-120.06
X125.87Y-105.13
X125.94Y-98.14
X125.95Y-107.98
X126.16Y-88.03
X126.3Y-131.08
X126.3Y-133.65
X126.34Y-110.23
X126.34Y-135.36
X126.64Y-126.01
X126.85Y-93.2
X126.86Y-139.25
X127.22Y-124.33
X127.33Y-79.62
X127.82Y-97.01
X127.95Y-106.44
X128.05Y-99.41
X128.08Y-89.78
X128.17Y-91.49
X128.17Y-136.19
X128.18Y-117.99
X128.18Y-122.1
X128.27Y-108.3
X128.38Y-86.71
X128.4Y-100.55
X128.64Y-125.73
X128.73Y-94.71
X128.74Y-116.01
X128.81Y-134.58
X128.91Y-132.94
X129.05Y-113.39
X129.07Y-105.36
X129.08Y-92.18
X129.28Y-111.05
X130.52Y-95.25
X130.96Y-81.08
X130.97Y-89.85
X133.05Y-95.69
X136.19Y-98.51
X136.6Y-88.18
X137.16Y-82.2
X137.16Y-90.96
X138.67Y-89.5
X138.87Y-97.82
X139.03Y-81.34
T3
X41.94Y-74.48
X41.94Y-77.02
X43.5Y-42.33
X43.5Y-44.87
X43.5Y-47.41
X43.5Y-49.95
X43.5Y-52.49
X43.5Y-55.03
X43.5Y-57.57
X43.5Y-60.11
X54.36Y-134.36
X56.9Y-134.36
X59.44Y-134.36
X61.98Y-134.36
X66.75Y-45.46
X66.75Y-48.0
X66.75Y-131.96
X66.75Y-134.5
X69.29Y-45.46
X69.29Y-48.0
X69.29Y-131.96
X69.29Y-134.5
X71.83Y-45.46
X71.83Y-48.0
X71.83Y-131.96
X71.83Y-134.5
X74.37Y-45.46
X74.37Y-48.0
X74.37Y-131.96
X74.37Y-134.5
X76.91Y-45.46
X76.91Y-48.0
X76.91Y-131.96
X76.91Y-134.5
X79.45Y-45.46
X79.45Y-48.0
X79.45Y-131.96
X79.45Y-134.5
X81.99Y-45.46
X81.99Y-48.0
X81.99Y-131.96
X81.99Y-134.5
X84.53Y-45.46
X84.53Y-48.0
X84.53Y-131.96
X84.53Y-134.5
X87.07Y-45.46
X87.07Y-48.0
X87.07Y-131.96
X87.07Y-134.5
X89.61Y-45.46
X89.61Y-48.0
X89.61Y-131.96
X89.61Y-134.5
X92.15Y-45.46
X92.15Y-48.0
X92.15Y-131.96
X92.15Y-134.5
X94.69Y-45.46
X94.69Y-48.0
X94.69Y-131.96
X94.69Y-134.5
X97.23Y-45.46
X97.23Y-48.0
X97.23Y-131.96
X97.23Y-134.5
X99.77Y-45.46
X99.77Y-48.0
X99.77Y-131.96
X99.77Y-134.5
X102.31Y-45.46
X102.31Y-48.0
X102.31Y-131.96
X102.31Y-134.5
X104.85Y-45.46
X104.85Y-48.0
X104.85Y-131.96
X104.85Y-134.5
X107.39Y-45.46
X107.39Y-48.0
X107.39Y-131.96
X107.39Y-134.5
X109.93Y-45.46
X109.93Y-48.0
X109.93Y-131.96
X109.93Y-134.5
X112.47Y-45.46
X112.47Y-48.0
X112.47Y-131.96
X112.47Y-134.5
X115.01Y-45.46
X115.01Y-48.0
X115.01Y-131.96
X115.01Y-134.5
X127.9Y-42.0
X127.9Y-44.54
X127.9Y-47.08
X127.9Y-49.62
X127.9Y-52.16
X127.9Y-54.7
X127.9Y-57.24
X127.9Y-59.78
X127.9Y-62.32
X127.9Y-64.86
X127.9Y-67.4
X127.9Y-69.94
X127.9Y-72.48
T4
X125.75Y-77.1
X125.75Y-82.18
T2
X133.27Y-85.68G85X134.37Y-85.68
G05
X133.27Y-94.32G85X134.37Y-94.32
G05
X137.6Y-85.68G85X138.4Y-85.68
G05
X137.6Y-94.32G85X138.4Y-94.32
G05
T0
M30
