G04 #@! TF.GenerationSoftware,KiCad,Pcbnew,(5.1.12)-1*
G04 #@! TF.CreationDate,2024-11-16T18:45:36+01:00*
G04 #@! TF.ProjectId,C5W1B1V1.0,43355731-4231-4563-912e-302e6b696361,rev?*
G04 #@! TF.SameCoordinates,Original*
G04 #@! TF.FileFunction,Legend,Bot*
G04 #@! TF.FilePolarity,Positive*
%FSLAX46Y46*%
G04 Gerber Fmt 4.6, Leading zero omitted, Abs format (unit mm)*
G04 Created by KiCad (PCBNEW (5.1.12)-1) date 2024-11-16 18:45:36*
%MOMM*%
%LPD*%
G01*
G04 APERTURE LIST*
%ADD10C,0.150000*%
%ADD11C,0.300000*%
%ADD12C,0.160000*%
%ADD13C,0.100000*%
%ADD14C,3.000000*%
%ADD15R,3.000000X3.000000*%
%ADD16O,1.700000X1.700000*%
%ADD17R,1.700000X1.700000*%
%ADD18C,0.650000*%
%ADD19O,2.304000X1.204000*%
G04 APERTURE END LIST*
D10*
X49272380Y-65754761D02*
X49272380Y-66326190D01*
X50272380Y-66040476D02*
X49272380Y-66040476D01*
X50272380Y-66659523D02*
X49272380Y-66659523D01*
X50272380Y-67088095D02*
X49748571Y-67088095D01*
X49653333Y-67040476D01*
X49605714Y-66945238D01*
X49605714Y-66802380D01*
X49653333Y-66707142D01*
X49700952Y-66659523D01*
X50224761Y-67945238D02*
X50272380Y-67850000D01*
X50272380Y-67659523D01*
X50224761Y-67564285D01*
X50129523Y-67516666D01*
X49748571Y-67516666D01*
X49653333Y-67564285D01*
X49605714Y-67659523D01*
X49605714Y-67850000D01*
X49653333Y-67945238D01*
X49748571Y-67992857D01*
X49843809Y-67992857D01*
X49939047Y-67516666D01*
X49605714Y-69183333D02*
X50605714Y-69183333D01*
X49653333Y-69183333D02*
X49605714Y-69278571D01*
X49605714Y-69469047D01*
X49653333Y-69564285D01*
X49700952Y-69611904D01*
X49796190Y-69659523D01*
X50081904Y-69659523D01*
X50177142Y-69611904D01*
X50224761Y-69564285D01*
X50272380Y-69469047D01*
X50272380Y-69278571D01*
X50224761Y-69183333D01*
X50272380Y-70088095D02*
X49605714Y-70088095D01*
X49796190Y-70088095D02*
X49700952Y-70135714D01*
X49653333Y-70183333D01*
X49605714Y-70278571D01*
X49605714Y-70373809D01*
X50272380Y-70850000D02*
X50224761Y-70754761D01*
X50177142Y-70707142D01*
X50081904Y-70659523D01*
X49796190Y-70659523D01*
X49700952Y-70707142D01*
X49653333Y-70754761D01*
X49605714Y-70850000D01*
X49605714Y-70992857D01*
X49653333Y-71088095D01*
X49700952Y-71135714D01*
X49796190Y-71183333D01*
X50081904Y-71183333D01*
X50177142Y-71135714D01*
X50224761Y-71088095D01*
X50272380Y-70992857D01*
X50272380Y-70850000D01*
X49605714Y-71611904D02*
X50462857Y-71611904D01*
X50558095Y-71564285D01*
X50605714Y-71469047D01*
X50605714Y-71421428D01*
X49272380Y-71611904D02*
X49320000Y-71564285D01*
X49367619Y-71611904D01*
X49320000Y-71659523D01*
X49272380Y-71611904D01*
X49367619Y-71611904D01*
X50224761Y-72469047D02*
X50272380Y-72373809D01*
X50272380Y-72183333D01*
X50224761Y-72088095D01*
X50129523Y-72040476D01*
X49748571Y-72040476D01*
X49653333Y-72088095D01*
X49605714Y-72183333D01*
X49605714Y-72373809D01*
X49653333Y-72469047D01*
X49748571Y-72516666D01*
X49843809Y-72516666D01*
X49939047Y-72040476D01*
X50224761Y-73373809D02*
X50272380Y-73278571D01*
X50272380Y-73088095D01*
X50224761Y-72992857D01*
X50177142Y-72945238D01*
X50081904Y-72897619D01*
X49796190Y-72897619D01*
X49700952Y-72945238D01*
X49653333Y-72992857D01*
X49605714Y-73088095D01*
X49605714Y-73278571D01*
X49653333Y-73373809D01*
X49605714Y-73659523D02*
X49605714Y-74040476D01*
X49272380Y-73802380D02*
X50129523Y-73802380D01*
X50224761Y-73850000D01*
X50272380Y-73945238D01*
X50272380Y-74040476D01*
X50272380Y-75135714D02*
X49272380Y-75135714D01*
X50272380Y-75564285D02*
X49748571Y-75564285D01*
X49653333Y-75516666D01*
X49605714Y-75421428D01*
X49605714Y-75278571D01*
X49653333Y-75183333D01*
X49700952Y-75135714D01*
X50272380Y-76469047D02*
X49748571Y-76469047D01*
X49653333Y-76421428D01*
X49605714Y-76326190D01*
X49605714Y-76135714D01*
X49653333Y-76040476D01*
X50224761Y-76469047D02*
X50272380Y-76373809D01*
X50272380Y-76135714D01*
X50224761Y-76040476D01*
X50129523Y-75992857D01*
X50034285Y-75992857D01*
X49939047Y-76040476D01*
X49891428Y-76135714D01*
X49891428Y-76373809D01*
X49843809Y-76469047D01*
X50224761Y-76897619D02*
X50272380Y-76992857D01*
X50272380Y-77183333D01*
X50224761Y-77278571D01*
X50129523Y-77326190D01*
X50081904Y-77326190D01*
X49986666Y-77278571D01*
X49939047Y-77183333D01*
X49939047Y-77040476D01*
X49891428Y-76945238D01*
X49796190Y-76897619D01*
X49748571Y-76897619D01*
X49653333Y-76945238D01*
X49605714Y-77040476D01*
X49605714Y-77183333D01*
X49653333Y-77278571D01*
X50272380Y-78945238D02*
X49748571Y-78945238D01*
X49653333Y-78897619D01*
X49605714Y-78802380D01*
X49605714Y-78611904D01*
X49653333Y-78516666D01*
X50224761Y-78945238D02*
X50272380Y-78850000D01*
X50272380Y-78611904D01*
X50224761Y-78516666D01*
X50129523Y-78469047D01*
X50034285Y-78469047D01*
X49939047Y-78516666D01*
X49891428Y-78611904D01*
X49891428Y-78850000D01*
X49843809Y-78945238D01*
X49605714Y-79421428D02*
X50272380Y-79421428D01*
X49700952Y-79421428D02*
X49653333Y-79469047D01*
X49605714Y-79564285D01*
X49605714Y-79707142D01*
X49653333Y-79802380D01*
X49748571Y-79850000D01*
X50272380Y-79850000D01*
X50224761Y-81469047D02*
X50272380Y-81373809D01*
X50272380Y-81183333D01*
X50224761Y-81088095D01*
X50129523Y-81040476D01*
X49748571Y-81040476D01*
X49653333Y-81088095D01*
X49605714Y-81183333D01*
X49605714Y-81373809D01*
X49653333Y-81469047D01*
X49748571Y-81516666D01*
X49843809Y-81516666D01*
X49939047Y-81040476D01*
X50272380Y-82373809D02*
X49272380Y-82373809D01*
X50224761Y-82373809D02*
X50272380Y-82278571D01*
X50272380Y-82088095D01*
X50224761Y-81992857D01*
X50177142Y-81945238D01*
X50081904Y-81897619D01*
X49796190Y-81897619D01*
X49700952Y-81945238D01*
X49653333Y-81992857D01*
X49605714Y-82088095D01*
X49605714Y-82278571D01*
X49653333Y-82373809D01*
X49605714Y-83278571D02*
X50272380Y-83278571D01*
X49605714Y-82850000D02*
X50129523Y-82850000D01*
X50224761Y-82897619D01*
X50272380Y-82992857D01*
X50272380Y-83135714D01*
X50224761Y-83230952D01*
X50177142Y-83278571D01*
X50224761Y-84183333D02*
X50272380Y-84088095D01*
X50272380Y-83897619D01*
X50224761Y-83802380D01*
X50177142Y-83754761D01*
X50081904Y-83707142D01*
X49796190Y-83707142D01*
X49700952Y-83754761D01*
X49653333Y-83802380D01*
X49605714Y-83897619D01*
X49605714Y-84088095D01*
X49653333Y-84183333D01*
X50272380Y-85040476D02*
X49748571Y-85040476D01*
X49653333Y-84992857D01*
X49605714Y-84897619D01*
X49605714Y-84707142D01*
X49653333Y-84611904D01*
X50224761Y-85040476D02*
X50272380Y-84945238D01*
X50272380Y-84707142D01*
X50224761Y-84611904D01*
X50129523Y-84564285D01*
X50034285Y-84564285D01*
X49939047Y-84611904D01*
X49891428Y-84707142D01*
X49891428Y-84945238D01*
X49843809Y-85040476D01*
X49605714Y-85373809D02*
X49605714Y-85754761D01*
X49272380Y-85516666D02*
X50129523Y-85516666D01*
X50224761Y-85564285D01*
X50272380Y-85659523D01*
X50272380Y-85754761D01*
X50272380Y-86088095D02*
X49605714Y-86088095D01*
X49272380Y-86088095D02*
X49320000Y-86040476D01*
X49367619Y-86088095D01*
X49320000Y-86135714D01*
X49272380Y-86088095D01*
X49367619Y-86088095D01*
X50272380Y-86707142D02*
X50224761Y-86611904D01*
X50177142Y-86564285D01*
X50081904Y-86516666D01*
X49796190Y-86516666D01*
X49700952Y-86564285D01*
X49653333Y-86611904D01*
X49605714Y-86707142D01*
X49605714Y-86849999D01*
X49653333Y-86945238D01*
X49700952Y-86992857D01*
X49796190Y-87040476D01*
X50081904Y-87040476D01*
X50177142Y-86992857D01*
X50224761Y-86945238D01*
X50272380Y-86849999D01*
X50272380Y-86707142D01*
X49605714Y-87469047D02*
X50272380Y-87469047D01*
X49700952Y-87469047D02*
X49653333Y-87516666D01*
X49605714Y-87611904D01*
X49605714Y-87754761D01*
X49653333Y-87849999D01*
X49748571Y-87897619D01*
X50272380Y-87897619D01*
X50272380Y-88802380D02*
X49748571Y-88802380D01*
X49653333Y-88754761D01*
X49605714Y-88659523D01*
X49605714Y-88469047D01*
X49653333Y-88373809D01*
X50224761Y-88802380D02*
X50272380Y-88707142D01*
X50272380Y-88469047D01*
X50224761Y-88373809D01*
X50129523Y-88326190D01*
X50034285Y-88326190D01*
X49939047Y-88373809D01*
X49891428Y-88469047D01*
X49891428Y-88707142D01*
X49843809Y-88802380D01*
X50272380Y-89421428D02*
X50224761Y-89326190D01*
X50129523Y-89278571D01*
X49272380Y-89278571D01*
X49605714Y-90564285D02*
X50605714Y-90564285D01*
X49653333Y-90564285D02*
X49605714Y-90659523D01*
X49605714Y-90849999D01*
X49653333Y-90945238D01*
X49700952Y-90992857D01*
X49796190Y-91040476D01*
X50081904Y-91040476D01*
X50177142Y-90992857D01*
X50224761Y-90945238D01*
X50272380Y-90849999D01*
X50272380Y-90659523D01*
X50224761Y-90564285D01*
X49605714Y-91897619D02*
X50272380Y-91897619D01*
X49605714Y-91469047D02*
X50129523Y-91469047D01*
X50224761Y-91516666D01*
X50272380Y-91611904D01*
X50272380Y-91754761D01*
X50224761Y-91849999D01*
X50177142Y-91897619D01*
X50272380Y-92373809D02*
X49605714Y-92373809D01*
X49796190Y-92373809D02*
X49700952Y-92421428D01*
X49653333Y-92469047D01*
X49605714Y-92564285D01*
X49605714Y-92659523D01*
X49605714Y-92992857D02*
X50605714Y-92992857D01*
X49653333Y-92992857D02*
X49605714Y-93088095D01*
X49605714Y-93278571D01*
X49653333Y-93373809D01*
X49700952Y-93421428D01*
X49796190Y-93469047D01*
X50081904Y-93469047D01*
X50177142Y-93421428D01*
X50224761Y-93373809D01*
X50272380Y-93278571D01*
X50272380Y-93088095D01*
X50224761Y-92992857D01*
X50272380Y-94040476D02*
X50224761Y-93945238D01*
X50177142Y-93897619D01*
X50081904Y-93849999D01*
X49796190Y-93849999D01*
X49700952Y-93897619D01*
X49653333Y-93945238D01*
X49605714Y-94040476D01*
X49605714Y-94183333D01*
X49653333Y-94278571D01*
X49700952Y-94326190D01*
X49796190Y-94373809D01*
X50081904Y-94373809D01*
X50177142Y-94326190D01*
X50224761Y-94278571D01*
X50272380Y-94183333D01*
X50272380Y-94040476D01*
X50224761Y-94754761D02*
X50272380Y-94849999D01*
X50272380Y-95040476D01*
X50224761Y-95135714D01*
X50129523Y-95183333D01*
X50081904Y-95183333D01*
X49986666Y-95135714D01*
X49939047Y-95040476D01*
X49939047Y-94897619D01*
X49891428Y-94802380D01*
X49796190Y-94754761D01*
X49748571Y-94754761D01*
X49653333Y-94802380D01*
X49605714Y-94897619D01*
X49605714Y-95040476D01*
X49653333Y-95135714D01*
X50224761Y-95992857D02*
X50272380Y-95897619D01*
X50272380Y-95707142D01*
X50224761Y-95611904D01*
X50129523Y-95564285D01*
X49748571Y-95564285D01*
X49653333Y-95611904D01*
X49605714Y-95707142D01*
X49605714Y-95897619D01*
X49653333Y-95992857D01*
X49748571Y-96040476D01*
X49843809Y-96040476D01*
X49939047Y-95564285D01*
X50272380Y-97230952D02*
X49605714Y-97230952D01*
X49272380Y-97230952D02*
X49320000Y-97183333D01*
X49367619Y-97230952D01*
X49320000Y-97278571D01*
X49272380Y-97230952D01*
X49367619Y-97230952D01*
X49605714Y-97707142D02*
X50272380Y-97707142D01*
X49700952Y-97707142D02*
X49653333Y-97754761D01*
X49605714Y-97849999D01*
X49605714Y-97992857D01*
X49653333Y-98088095D01*
X49748571Y-98135714D01*
X50272380Y-98135714D01*
X49605714Y-99230952D02*
X49605714Y-99611904D01*
X49272380Y-99373809D02*
X50129523Y-99373809D01*
X50224761Y-99421428D01*
X50272380Y-99516666D01*
X50272380Y-99611904D01*
X50272380Y-99945238D02*
X49272380Y-99945238D01*
X50272380Y-100373809D02*
X49748571Y-100373809D01*
X49653333Y-100326190D01*
X49605714Y-100230952D01*
X49605714Y-100088095D01*
X49653333Y-99992857D01*
X49700952Y-99945238D01*
X50224761Y-101230952D02*
X50272380Y-101135714D01*
X50272380Y-100945238D01*
X50224761Y-100849999D01*
X50129523Y-100802380D01*
X49748571Y-100802380D01*
X49653333Y-100849999D01*
X49605714Y-100945238D01*
X49605714Y-101135714D01*
X49653333Y-101230952D01*
X49748571Y-101278571D01*
X49843809Y-101278571D01*
X49939047Y-100802380D01*
X49605714Y-102326190D02*
X49605714Y-102707142D01*
X50272380Y-102469047D02*
X49415238Y-102469047D01*
X49320000Y-102516666D01*
X49272380Y-102611904D01*
X49272380Y-102707142D01*
X50272380Y-103040476D02*
X49605714Y-103040476D01*
X49272380Y-103040476D02*
X49320000Y-102992857D01*
X49367619Y-103040476D01*
X49320000Y-103088095D01*
X49272380Y-103040476D01*
X49367619Y-103040476D01*
X50224761Y-103897619D02*
X50272380Y-103802380D01*
X50272380Y-103611904D01*
X50224761Y-103516666D01*
X50129523Y-103469047D01*
X49748571Y-103469047D01*
X49653333Y-103516666D01*
X49605714Y-103611904D01*
X49605714Y-103802380D01*
X49653333Y-103897619D01*
X49748571Y-103945238D01*
X49843809Y-103945238D01*
X49939047Y-103469047D01*
X50272380Y-104516666D02*
X50224761Y-104421428D01*
X50129523Y-104373809D01*
X49272380Y-104373809D01*
X50272380Y-105326190D02*
X49272380Y-105326190D01*
X50224761Y-105326190D02*
X50272380Y-105230952D01*
X50272380Y-105040476D01*
X50224761Y-104945238D01*
X50177142Y-104897619D01*
X50081904Y-104849999D01*
X49796190Y-104849999D01*
X49700952Y-104897619D01*
X49653333Y-104945238D01*
X49605714Y-105040476D01*
X49605714Y-105230952D01*
X49653333Y-105326190D01*
X50177142Y-105802380D02*
X50224761Y-105849999D01*
X50272380Y-105802380D01*
X50224761Y-105754761D01*
X50177142Y-105802380D01*
X50272380Y-105802380D01*
X49653333Y-105802380D02*
X49700952Y-105849999D01*
X49748571Y-105802380D01*
X49700952Y-105754761D01*
X49653333Y-105802380D01*
X49748571Y-105802380D01*
X51636666Y-76564285D02*
X51636666Y-77040476D01*
X51922380Y-76469047D02*
X50922380Y-76802380D01*
X51922380Y-77135714D01*
X51922380Y-77469047D02*
X50922380Y-77469047D01*
X51922380Y-78707142D02*
X51255714Y-78707142D01*
X50922380Y-78707142D02*
X50970000Y-78659523D01*
X51017619Y-78707142D01*
X50970000Y-78754761D01*
X50922380Y-78707142D01*
X51017619Y-78707142D01*
X51255714Y-79183333D02*
X51922380Y-79183333D01*
X51350952Y-79183333D02*
X51303333Y-79230952D01*
X51255714Y-79326190D01*
X51255714Y-79469047D01*
X51303333Y-79564285D01*
X51398571Y-79611904D01*
X51922380Y-79611904D01*
X51874761Y-81230952D02*
X51922380Y-81135714D01*
X51922380Y-80945238D01*
X51874761Y-80850000D01*
X51779523Y-80802380D01*
X51398571Y-80802380D01*
X51303333Y-80850000D01*
X51255714Y-80945238D01*
X51255714Y-81135714D01*
X51303333Y-81230952D01*
X51398571Y-81278571D01*
X51493809Y-81278571D01*
X51589047Y-80802380D01*
X51922380Y-81707142D02*
X51255714Y-81707142D01*
X51350952Y-81707142D02*
X51303333Y-81754761D01*
X51255714Y-81850000D01*
X51255714Y-81992857D01*
X51303333Y-82088095D01*
X51398571Y-82135714D01*
X51922380Y-82135714D01*
X51398571Y-82135714D02*
X51303333Y-82183333D01*
X51255714Y-82278571D01*
X51255714Y-82421428D01*
X51303333Y-82516666D01*
X51398571Y-82564285D01*
X51922380Y-82564285D01*
X51922380Y-83040476D02*
X50922380Y-83040476D01*
X51303333Y-83040476D02*
X51255714Y-83135714D01*
X51255714Y-83326190D01*
X51303333Y-83421428D01*
X51350952Y-83469047D01*
X51446190Y-83516666D01*
X51731904Y-83516666D01*
X51827142Y-83469047D01*
X51874761Y-83421428D01*
X51922380Y-83326190D01*
X51922380Y-83135714D01*
X51874761Y-83040476D01*
X51874761Y-84326190D02*
X51922380Y-84230952D01*
X51922380Y-84040476D01*
X51874761Y-83945238D01*
X51779523Y-83897619D01*
X51398571Y-83897619D01*
X51303333Y-83945238D01*
X51255714Y-84040476D01*
X51255714Y-84230952D01*
X51303333Y-84326190D01*
X51398571Y-84373809D01*
X51493809Y-84373809D01*
X51589047Y-83897619D01*
X51922380Y-85230952D02*
X50922380Y-85230952D01*
X51874761Y-85230952D02*
X51922380Y-85135714D01*
X51922380Y-84945238D01*
X51874761Y-84850000D01*
X51827142Y-84802380D01*
X51731904Y-84754761D01*
X51446190Y-84754761D01*
X51350952Y-84802380D01*
X51303333Y-84850000D01*
X51255714Y-84945238D01*
X51255714Y-85135714D01*
X51303333Y-85230952D01*
X51922380Y-86135714D02*
X50922380Y-86135714D01*
X51874761Y-86135714D02*
X51922380Y-86040476D01*
X51922380Y-85850000D01*
X51874761Y-85754761D01*
X51827142Y-85707142D01*
X51731904Y-85659523D01*
X51446190Y-85659523D01*
X51350952Y-85707142D01*
X51303333Y-85754761D01*
X51255714Y-85850000D01*
X51255714Y-86040476D01*
X51303333Y-86135714D01*
X51874761Y-86992857D02*
X51922380Y-86897619D01*
X51922380Y-86707142D01*
X51874761Y-86611904D01*
X51779523Y-86564285D01*
X51398571Y-86564285D01*
X51303333Y-86611904D01*
X51255714Y-86707142D01*
X51255714Y-86897619D01*
X51303333Y-86992857D01*
X51398571Y-87040476D01*
X51493809Y-87040476D01*
X51589047Y-86564285D01*
X51922380Y-87897619D02*
X50922380Y-87897619D01*
X51874761Y-87897619D02*
X51922380Y-87802380D01*
X51922380Y-87611904D01*
X51874761Y-87516666D01*
X51827142Y-87469047D01*
X51731904Y-87421428D01*
X51446190Y-87421428D01*
X51350952Y-87469047D01*
X51303333Y-87516666D01*
X51255714Y-87611904D01*
X51255714Y-87802380D01*
X51303333Y-87897619D01*
X51874761Y-89088095D02*
X51922380Y-89183333D01*
X51922380Y-89373809D01*
X51874761Y-89469047D01*
X51779523Y-89516666D01*
X51731904Y-89516666D01*
X51636666Y-89469047D01*
X51589047Y-89373809D01*
X51589047Y-89230952D01*
X51541428Y-89135714D01*
X51446190Y-89088095D01*
X51398571Y-89088095D01*
X51303333Y-89135714D01*
X51255714Y-89230952D01*
X51255714Y-89373809D01*
X51303333Y-89469047D01*
X51255714Y-89850000D02*
X51922380Y-90088095D01*
X51255714Y-90326190D02*
X51922380Y-90088095D01*
X52160476Y-89992857D01*
X52208095Y-89945238D01*
X52255714Y-89850000D01*
X51874761Y-90659523D02*
X51922380Y-90754761D01*
X51922380Y-90945238D01*
X51874761Y-91040476D01*
X51779523Y-91088095D01*
X51731904Y-91088095D01*
X51636666Y-91040476D01*
X51589047Y-90945238D01*
X51589047Y-90802380D01*
X51541428Y-90707142D01*
X51446190Y-90659523D01*
X51398571Y-90659523D01*
X51303333Y-90707142D01*
X51255714Y-90802380D01*
X51255714Y-90945238D01*
X51303333Y-91040476D01*
X51255714Y-91373809D02*
X51255714Y-91754761D01*
X50922380Y-91516666D02*
X51779523Y-91516666D01*
X51874761Y-91564285D01*
X51922380Y-91659523D01*
X51922380Y-91754761D01*
X51874761Y-92469047D02*
X51922380Y-92373809D01*
X51922380Y-92183333D01*
X51874761Y-92088095D01*
X51779523Y-92040476D01*
X51398571Y-92040476D01*
X51303333Y-92088095D01*
X51255714Y-92183333D01*
X51255714Y-92373809D01*
X51303333Y-92469047D01*
X51398571Y-92516666D01*
X51493809Y-92516666D01*
X51589047Y-92040476D01*
X51922380Y-92945238D02*
X51255714Y-92945238D01*
X51350952Y-92945238D02*
X51303333Y-92992857D01*
X51255714Y-93088095D01*
X51255714Y-93230952D01*
X51303333Y-93326190D01*
X51398571Y-93373809D01*
X51922380Y-93373809D01*
X51398571Y-93373809D02*
X51303333Y-93421428D01*
X51255714Y-93516666D01*
X51255714Y-93659523D01*
X51303333Y-93754761D01*
X51398571Y-93802380D01*
X51922380Y-93802380D01*
X51874761Y-94230952D02*
X51922380Y-94326190D01*
X51922380Y-94516666D01*
X51874761Y-94611904D01*
X51779523Y-94659523D01*
X51731904Y-94659523D01*
X51636666Y-94611904D01*
X51589047Y-94516666D01*
X51589047Y-94373809D01*
X51541428Y-94278571D01*
X51446190Y-94230952D01*
X51398571Y-94230952D01*
X51303333Y-94278571D01*
X51255714Y-94373809D01*
X51255714Y-94516666D01*
X51303333Y-94611904D01*
X51874761Y-95135714D02*
X51922380Y-95135714D01*
X52017619Y-95088095D01*
X52065238Y-95040476D01*
X52572380Y-70730952D02*
X53572380Y-70969047D01*
X52858095Y-71159523D01*
X53572380Y-71350000D01*
X52572380Y-71588095D01*
X53572380Y-71969047D02*
X52905714Y-71969047D01*
X52572380Y-71969047D02*
X52620000Y-71921428D01*
X52667619Y-71969047D01*
X52620000Y-72016666D01*
X52572380Y-71969047D01*
X52667619Y-71969047D01*
X53048571Y-72778571D02*
X53048571Y-72445238D01*
X53572380Y-72445238D02*
X52572380Y-72445238D01*
X52572380Y-72921428D01*
X53572380Y-73302380D02*
X52905714Y-73302380D01*
X52572380Y-73302380D02*
X52620000Y-73254761D01*
X52667619Y-73302380D01*
X52620000Y-73350000D01*
X52572380Y-73302380D01*
X52667619Y-73302380D01*
X53524761Y-74969047D02*
X53572380Y-74873809D01*
X53572380Y-74683333D01*
X53524761Y-74588095D01*
X53477142Y-74540476D01*
X53381904Y-74492857D01*
X53096190Y-74492857D01*
X53000952Y-74540476D01*
X52953333Y-74588095D01*
X52905714Y-74683333D01*
X52905714Y-74873809D01*
X52953333Y-74969047D01*
X53572380Y-75540476D02*
X53524761Y-75445238D01*
X53477142Y-75397619D01*
X53381904Y-75350000D01*
X53096190Y-75350000D01*
X53000952Y-75397619D01*
X52953333Y-75445238D01*
X52905714Y-75540476D01*
X52905714Y-75683333D01*
X52953333Y-75778571D01*
X53000952Y-75826190D01*
X53096190Y-75873809D01*
X53381904Y-75873809D01*
X53477142Y-75826190D01*
X53524761Y-75778571D01*
X53572380Y-75683333D01*
X53572380Y-75540476D01*
X52905714Y-76302380D02*
X53572380Y-76302380D01*
X53000952Y-76302380D02*
X52953333Y-76350000D01*
X52905714Y-76445238D01*
X52905714Y-76588095D01*
X52953333Y-76683333D01*
X53048571Y-76730952D01*
X53572380Y-76730952D01*
X52905714Y-77207142D02*
X53572380Y-77207142D01*
X53000952Y-77207142D02*
X52953333Y-77254761D01*
X52905714Y-77350000D01*
X52905714Y-77492857D01*
X52953333Y-77588095D01*
X53048571Y-77635714D01*
X53572380Y-77635714D01*
X53524761Y-78492857D02*
X53572380Y-78397619D01*
X53572380Y-78207142D01*
X53524761Y-78111904D01*
X53429523Y-78064285D01*
X53048571Y-78064285D01*
X52953333Y-78111904D01*
X52905714Y-78207142D01*
X52905714Y-78397619D01*
X52953333Y-78492857D01*
X53048571Y-78540476D01*
X53143809Y-78540476D01*
X53239047Y-78064285D01*
X53524761Y-79397619D02*
X53572380Y-79302380D01*
X53572380Y-79111904D01*
X53524761Y-79016666D01*
X53477142Y-78969047D01*
X53381904Y-78921428D01*
X53096190Y-78921428D01*
X53000952Y-78969047D01*
X52953333Y-79016666D01*
X52905714Y-79111904D01*
X52905714Y-79302380D01*
X52953333Y-79397619D01*
X52905714Y-79683333D02*
X52905714Y-80064285D01*
X52572380Y-79826190D02*
X53429523Y-79826190D01*
X53524761Y-79873809D01*
X53572380Y-79969047D01*
X53572380Y-80064285D01*
X53572380Y-80397619D02*
X52905714Y-80397619D01*
X52572380Y-80397619D02*
X52620000Y-80350000D01*
X52667619Y-80397619D01*
X52620000Y-80445238D01*
X52572380Y-80397619D01*
X52667619Y-80397619D01*
X52905714Y-80778571D02*
X53572380Y-81016666D01*
X52905714Y-81254761D01*
X53572380Y-81635714D02*
X52905714Y-81635714D01*
X52572380Y-81635714D02*
X52620000Y-81588095D01*
X52667619Y-81635714D01*
X52620000Y-81683333D01*
X52572380Y-81635714D01*
X52667619Y-81635714D01*
X52905714Y-81969047D02*
X52905714Y-82350000D01*
X52572380Y-82111904D02*
X53429523Y-82111904D01*
X53524761Y-82159523D01*
X53572380Y-82254761D01*
X53572380Y-82350000D01*
X52905714Y-82588095D02*
X53572380Y-82826190D01*
X52905714Y-83064285D02*
X53572380Y-82826190D01*
X53810476Y-82730952D01*
X53858095Y-82683333D01*
X53905714Y-82588095D01*
X53572380Y-84207142D02*
X52905714Y-84207142D01*
X52572380Y-84207142D02*
X52620000Y-84159523D01*
X52667619Y-84207142D01*
X52620000Y-84254761D01*
X52572380Y-84207142D01*
X52667619Y-84207142D01*
X52905714Y-84683333D02*
X53572380Y-84683333D01*
X53000952Y-84683333D02*
X52953333Y-84730952D01*
X52905714Y-84826190D01*
X52905714Y-84969047D01*
X52953333Y-85064285D01*
X53048571Y-85111904D01*
X53572380Y-85111904D01*
X53524761Y-86730952D02*
X53572380Y-86635714D01*
X53572380Y-86445238D01*
X53524761Y-86350000D01*
X53429523Y-86302380D01*
X53048571Y-86302380D01*
X52953333Y-86350000D01*
X52905714Y-86445238D01*
X52905714Y-86635714D01*
X52953333Y-86730952D01*
X53048571Y-86778571D01*
X53143809Y-86778571D01*
X53239047Y-86302380D01*
X53572380Y-87207142D02*
X52905714Y-87207142D01*
X53000952Y-87207142D02*
X52953333Y-87254761D01*
X52905714Y-87350000D01*
X52905714Y-87492857D01*
X52953333Y-87588095D01*
X53048571Y-87635714D01*
X53572380Y-87635714D01*
X53048571Y-87635714D02*
X52953333Y-87683333D01*
X52905714Y-87778571D01*
X52905714Y-87921428D01*
X52953333Y-88016666D01*
X53048571Y-88064285D01*
X53572380Y-88064285D01*
X53572380Y-88540476D02*
X52572380Y-88540476D01*
X52953333Y-88540476D02*
X52905714Y-88635714D01*
X52905714Y-88826190D01*
X52953333Y-88921428D01*
X53000952Y-88969047D01*
X53096190Y-89016666D01*
X53381904Y-89016666D01*
X53477142Y-88969047D01*
X53524761Y-88921428D01*
X53572380Y-88826190D01*
X53572380Y-88635714D01*
X53524761Y-88540476D01*
X53524761Y-89826190D02*
X53572380Y-89730952D01*
X53572380Y-89540476D01*
X53524761Y-89445238D01*
X53429523Y-89397619D01*
X53048571Y-89397619D01*
X52953333Y-89445238D01*
X52905714Y-89540476D01*
X52905714Y-89730952D01*
X52953333Y-89826190D01*
X53048571Y-89873809D01*
X53143809Y-89873809D01*
X53239047Y-89397619D01*
X53572380Y-90730952D02*
X52572380Y-90730952D01*
X53524761Y-90730952D02*
X53572380Y-90635714D01*
X53572380Y-90445238D01*
X53524761Y-90350000D01*
X53477142Y-90302380D01*
X53381904Y-90254761D01*
X53096190Y-90254761D01*
X53000952Y-90302380D01*
X52953333Y-90350000D01*
X52905714Y-90445238D01*
X52905714Y-90635714D01*
X52953333Y-90730952D01*
X53572380Y-91635714D02*
X52572380Y-91635714D01*
X53524761Y-91635714D02*
X53572380Y-91540476D01*
X53572380Y-91350000D01*
X53524761Y-91254761D01*
X53477142Y-91207142D01*
X53381904Y-91159523D01*
X53096190Y-91159523D01*
X53000952Y-91207142D01*
X52953333Y-91254761D01*
X52905714Y-91350000D01*
X52905714Y-91540476D01*
X52953333Y-91635714D01*
X53524761Y-92492857D02*
X53572380Y-92397619D01*
X53572380Y-92207142D01*
X53524761Y-92111904D01*
X53429523Y-92064285D01*
X53048571Y-92064285D01*
X52953333Y-92111904D01*
X52905714Y-92207142D01*
X52905714Y-92397619D01*
X52953333Y-92492857D01*
X53048571Y-92540476D01*
X53143809Y-92540476D01*
X53239047Y-92064285D01*
X53572380Y-93397619D02*
X52572380Y-93397619D01*
X53524761Y-93397619D02*
X53572380Y-93302380D01*
X53572380Y-93111904D01*
X53524761Y-93016666D01*
X53477142Y-92969047D01*
X53381904Y-92921428D01*
X53096190Y-92921428D01*
X53000952Y-92969047D01*
X52953333Y-93016666D01*
X52905714Y-93111904D01*
X52905714Y-93302380D01*
X52953333Y-93397619D01*
X53524761Y-94588095D02*
X53572380Y-94683333D01*
X53572380Y-94873809D01*
X53524761Y-94969047D01*
X53429523Y-95016666D01*
X53381904Y-95016666D01*
X53286666Y-94969047D01*
X53239047Y-94873809D01*
X53239047Y-94730952D01*
X53191428Y-94635714D01*
X53096190Y-94588095D01*
X53048571Y-94588095D01*
X52953333Y-94635714D01*
X52905714Y-94730952D01*
X52905714Y-94873809D01*
X52953333Y-94969047D01*
X52905714Y-95350000D02*
X53572380Y-95588095D01*
X52905714Y-95826190D02*
X53572380Y-95588095D01*
X53810476Y-95492857D01*
X53858095Y-95445238D01*
X53905714Y-95350000D01*
X53524761Y-96159523D02*
X53572380Y-96254761D01*
X53572380Y-96445238D01*
X53524761Y-96540476D01*
X53429523Y-96588095D01*
X53381904Y-96588095D01*
X53286666Y-96540476D01*
X53239047Y-96445238D01*
X53239047Y-96302380D01*
X53191428Y-96207142D01*
X53096190Y-96159523D01*
X53048571Y-96159523D01*
X52953333Y-96207142D01*
X52905714Y-96302380D01*
X52905714Y-96445238D01*
X52953333Y-96540476D01*
X52905714Y-96873809D02*
X52905714Y-97254761D01*
X52572380Y-97016666D02*
X53429523Y-97016666D01*
X53524761Y-97064285D01*
X53572380Y-97159523D01*
X53572380Y-97254761D01*
X53524761Y-97969047D02*
X53572380Y-97873809D01*
X53572380Y-97683333D01*
X53524761Y-97588095D01*
X53429523Y-97540476D01*
X53048571Y-97540476D01*
X52953333Y-97588095D01*
X52905714Y-97683333D01*
X52905714Y-97873809D01*
X52953333Y-97969047D01*
X53048571Y-98016666D01*
X53143809Y-98016666D01*
X53239047Y-97540476D01*
X53572380Y-98445238D02*
X52905714Y-98445238D01*
X53000952Y-98445238D02*
X52953333Y-98492857D01*
X52905714Y-98588095D01*
X52905714Y-98730952D01*
X52953333Y-98826190D01*
X53048571Y-98873809D01*
X53572380Y-98873809D01*
X53048571Y-98873809D02*
X52953333Y-98921428D01*
X52905714Y-99016666D01*
X52905714Y-99159523D01*
X52953333Y-99254761D01*
X53048571Y-99302380D01*
X53572380Y-99302380D01*
X53524761Y-99730952D02*
X53572380Y-99826190D01*
X53572380Y-100016666D01*
X53524761Y-100111904D01*
X53429523Y-100159523D01*
X53381904Y-100159523D01*
X53286666Y-100111904D01*
X53239047Y-100016666D01*
X53239047Y-99873809D01*
X53191428Y-99778571D01*
X53096190Y-99730952D01*
X53048571Y-99730952D01*
X52953333Y-99778571D01*
X52905714Y-99873809D01*
X52905714Y-100016666D01*
X52953333Y-100111904D01*
X125541666Y-82860952D02*
X125541666Y-83337142D01*
X125827380Y-82765714D02*
X124827380Y-83099047D01*
X125827380Y-83432380D01*
X125160714Y-84527619D02*
X126160714Y-84527619D01*
X125208333Y-84527619D02*
X125160714Y-84622857D01*
X125160714Y-84813333D01*
X125208333Y-84908571D01*
X125255952Y-84956190D01*
X125351190Y-85003809D01*
X125636904Y-85003809D01*
X125732142Y-84956190D01*
X125779761Y-84908571D01*
X125827380Y-84813333D01*
X125827380Y-84622857D01*
X125779761Y-84527619D01*
X125827380Y-85432380D02*
X125160714Y-85432380D01*
X125351190Y-85432380D02*
X125255952Y-85480000D01*
X125208333Y-85527619D01*
X125160714Y-85622857D01*
X125160714Y-85718095D01*
X125827380Y-86194285D02*
X125779761Y-86099047D01*
X125732142Y-86051428D01*
X125636904Y-86003809D01*
X125351190Y-86003809D01*
X125255952Y-86051428D01*
X125208333Y-86099047D01*
X125160714Y-86194285D01*
X125160714Y-86337142D01*
X125208333Y-86432380D01*
X125255952Y-86480000D01*
X125351190Y-86527619D01*
X125636904Y-86527619D01*
X125732142Y-86480000D01*
X125779761Y-86432380D01*
X125827380Y-86337142D01*
X125827380Y-86194285D01*
X125160714Y-86956190D02*
X126017857Y-86956190D01*
X126113095Y-86908571D01*
X126160714Y-86813333D01*
X126160714Y-86765714D01*
X124827380Y-86956190D02*
X124875000Y-86908571D01*
X124922619Y-86956190D01*
X124875000Y-87003809D01*
X124827380Y-86956190D01*
X124922619Y-86956190D01*
X125779761Y-87813333D02*
X125827380Y-87718095D01*
X125827380Y-87527619D01*
X125779761Y-87432380D01*
X125684523Y-87384761D01*
X125303571Y-87384761D01*
X125208333Y-87432380D01*
X125160714Y-87527619D01*
X125160714Y-87718095D01*
X125208333Y-87813333D01*
X125303571Y-87860952D01*
X125398809Y-87860952D01*
X125494047Y-87384761D01*
X125779761Y-88718095D02*
X125827380Y-88622857D01*
X125827380Y-88432380D01*
X125779761Y-88337142D01*
X125732142Y-88289523D01*
X125636904Y-88241904D01*
X125351190Y-88241904D01*
X125255952Y-88289523D01*
X125208333Y-88337142D01*
X125160714Y-88432380D01*
X125160714Y-88622857D01*
X125208333Y-88718095D01*
X125160714Y-89003809D02*
X125160714Y-89384761D01*
X124827380Y-89146666D02*
X125684523Y-89146666D01*
X125779761Y-89194285D01*
X125827380Y-89289523D01*
X125827380Y-89384761D01*
X125827380Y-90908571D02*
X124827380Y-90908571D01*
X125779761Y-90908571D02*
X125827380Y-90813333D01*
X125827380Y-90622857D01*
X125779761Y-90527619D01*
X125732142Y-90480000D01*
X125636904Y-90432380D01*
X125351190Y-90432380D01*
X125255952Y-90480000D01*
X125208333Y-90527619D01*
X125160714Y-90622857D01*
X125160714Y-90813333D01*
X125208333Y-90908571D01*
X125827380Y-91527619D02*
X125779761Y-91432380D01*
X125732142Y-91384761D01*
X125636904Y-91337142D01*
X125351190Y-91337142D01*
X125255952Y-91384761D01*
X125208333Y-91432380D01*
X125160714Y-91527619D01*
X125160714Y-91670476D01*
X125208333Y-91765714D01*
X125255952Y-91813333D01*
X125351190Y-91860952D01*
X125636904Y-91860952D01*
X125732142Y-91813333D01*
X125779761Y-91765714D01*
X125827380Y-91670476D01*
X125827380Y-91527619D01*
X125160714Y-92289523D02*
X125827380Y-92289523D01*
X125255952Y-92289523D02*
X125208333Y-92337142D01*
X125160714Y-92432380D01*
X125160714Y-92575238D01*
X125208333Y-92670476D01*
X125303571Y-92718095D01*
X125827380Y-92718095D01*
X125779761Y-93575238D02*
X125827380Y-93479999D01*
X125827380Y-93289523D01*
X125779761Y-93194285D01*
X125684523Y-93146666D01*
X125303571Y-93146666D01*
X125208333Y-93194285D01*
X125160714Y-93289523D01*
X125160714Y-93479999D01*
X125208333Y-93575238D01*
X125303571Y-93622857D01*
X125398809Y-93622857D01*
X125494047Y-93146666D01*
X125827380Y-95241904D02*
X125303571Y-95241904D01*
X125208333Y-95194285D01*
X125160714Y-95099047D01*
X125160714Y-94908571D01*
X125208333Y-94813333D01*
X125779761Y-95241904D02*
X125827380Y-95146666D01*
X125827380Y-94908571D01*
X125779761Y-94813333D01*
X125684523Y-94765714D01*
X125589285Y-94765714D01*
X125494047Y-94813333D01*
X125446428Y-94908571D01*
X125446428Y-95146666D01*
X125398809Y-95241904D01*
X125160714Y-95575238D02*
X125160714Y-95956190D01*
X125827380Y-95718095D02*
X124970238Y-95718095D01*
X124875000Y-95765714D01*
X124827380Y-95860952D01*
X124827380Y-95956190D01*
X125160714Y-96146666D02*
X125160714Y-96527619D01*
X124827380Y-96289523D02*
X125684523Y-96289523D01*
X125779761Y-96337142D01*
X125827380Y-96432380D01*
X125827380Y-96527619D01*
X125779761Y-97241904D02*
X125827380Y-97146666D01*
X125827380Y-96956190D01*
X125779761Y-96860952D01*
X125684523Y-96813333D01*
X125303571Y-96813333D01*
X125208333Y-96860952D01*
X125160714Y-96956190D01*
X125160714Y-97146666D01*
X125208333Y-97241904D01*
X125303571Y-97289523D01*
X125398809Y-97289523D01*
X125494047Y-96813333D01*
X125827380Y-97718095D02*
X125160714Y-97718095D01*
X125351190Y-97718095D02*
X125255952Y-97765714D01*
X125208333Y-97813333D01*
X125160714Y-97908571D01*
X125160714Y-98003809D01*
X125827380Y-99527619D02*
X125303571Y-99527619D01*
X125208333Y-99479999D01*
X125160714Y-99384761D01*
X125160714Y-99194285D01*
X125208333Y-99099047D01*
X125779761Y-99527619D02*
X125827380Y-99432380D01*
X125827380Y-99194285D01*
X125779761Y-99099047D01*
X125684523Y-99051428D01*
X125589285Y-99051428D01*
X125494047Y-99099047D01*
X125446428Y-99194285D01*
X125446428Y-99432380D01*
X125398809Y-99527619D01*
X125160714Y-100622857D02*
X125160714Y-101003809D01*
X125827380Y-100765714D02*
X124970238Y-100765714D01*
X124875000Y-100813333D01*
X124827380Y-100908571D01*
X124827380Y-101003809D01*
X125779761Y-101718095D02*
X125827380Y-101622857D01*
X125827380Y-101432380D01*
X125779761Y-101337142D01*
X125684523Y-101289523D01*
X125303571Y-101289523D01*
X125208333Y-101337142D01*
X125160714Y-101432380D01*
X125160714Y-101622857D01*
X125208333Y-101718095D01*
X125303571Y-101765714D01*
X125398809Y-101765714D01*
X125494047Y-101289523D01*
X125160714Y-102099047D02*
X125827380Y-102289523D01*
X125351190Y-102479999D01*
X125827380Y-102670476D01*
X125160714Y-102860952D01*
X125827380Y-104003809D02*
X124827380Y-104003809D01*
X125208333Y-104003809D02*
X125160714Y-104099047D01*
X125160714Y-104289523D01*
X125208333Y-104384761D01*
X125255952Y-104432380D01*
X125351190Y-104479999D01*
X125636904Y-104479999D01*
X125732142Y-104432380D01*
X125779761Y-104384761D01*
X125827380Y-104289523D01*
X125827380Y-104099047D01*
X125779761Y-104003809D01*
X125779761Y-105289523D02*
X125827380Y-105194285D01*
X125827380Y-105003809D01*
X125779761Y-104908571D01*
X125684523Y-104860952D01*
X125303571Y-104860952D01*
X125208333Y-104908571D01*
X125160714Y-105003809D01*
X125160714Y-105194285D01*
X125208333Y-105289523D01*
X125303571Y-105337142D01*
X125398809Y-105337142D01*
X125494047Y-104860952D01*
X125779761Y-106146666D02*
X125827380Y-106051428D01*
X125827380Y-105860952D01*
X125779761Y-105765714D01*
X125684523Y-105718095D01*
X125303571Y-105718095D01*
X125208333Y-105765714D01*
X125160714Y-105860952D01*
X125160714Y-106051428D01*
X125208333Y-106146666D01*
X125303571Y-106194285D01*
X125398809Y-106194285D01*
X125494047Y-105718095D01*
X125827380Y-106622857D02*
X125160714Y-106622857D01*
X125351190Y-106622857D02*
X125255952Y-106670476D01*
X125208333Y-106718095D01*
X125160714Y-106813333D01*
X125160714Y-106908571D01*
X125779761Y-107194285D02*
X125827380Y-107289523D01*
X125827380Y-107479999D01*
X125779761Y-107575238D01*
X125684523Y-107622857D01*
X125636904Y-107622857D01*
X125541666Y-107575238D01*
X125494047Y-107479999D01*
X125494047Y-107337142D01*
X125446428Y-107241904D01*
X125351190Y-107194285D01*
X125303571Y-107194285D01*
X125208333Y-107241904D01*
X125160714Y-107337142D01*
X125160714Y-107479999D01*
X125208333Y-107575238D01*
X125779761Y-108099047D02*
X125827380Y-108099047D01*
X125922619Y-108051428D01*
X125970238Y-108003809D01*
X127429761Y-75194285D02*
X127477380Y-75289523D01*
X127477380Y-75480000D01*
X127429761Y-75575238D01*
X127334523Y-75622857D01*
X127286904Y-75622857D01*
X127191666Y-75575238D01*
X127144047Y-75480000D01*
X127144047Y-75337142D01*
X127096428Y-75241904D01*
X127001190Y-75194285D01*
X126953571Y-75194285D01*
X126858333Y-75241904D01*
X126810714Y-75337142D01*
X126810714Y-75480000D01*
X126858333Y-75575238D01*
X127477380Y-76194285D02*
X127429761Y-76099047D01*
X127382142Y-76051428D01*
X127286904Y-76003809D01*
X127001190Y-76003809D01*
X126905952Y-76051428D01*
X126858333Y-76099047D01*
X126810714Y-76194285D01*
X126810714Y-76337142D01*
X126858333Y-76432380D01*
X126905952Y-76480000D01*
X127001190Y-76527619D01*
X127286904Y-76527619D01*
X127382142Y-76480000D01*
X127429761Y-76432380D01*
X127477380Y-76337142D01*
X127477380Y-76194285D01*
X127477380Y-77718095D02*
X126477380Y-77718095D01*
X127477380Y-79384761D02*
X126953571Y-79384761D01*
X126858333Y-79337142D01*
X126810714Y-79241904D01*
X126810714Y-79051428D01*
X126858333Y-78956190D01*
X127429761Y-79384761D02*
X127477380Y-79289523D01*
X127477380Y-79051428D01*
X127429761Y-78956190D01*
X127334523Y-78908571D01*
X127239285Y-78908571D01*
X127144047Y-78956190D01*
X127096428Y-79051428D01*
X127096428Y-79289523D01*
X127048809Y-79384761D01*
X127477380Y-79860952D02*
X126810714Y-79860952D01*
X126905952Y-79860952D02*
X126858333Y-79908571D01*
X126810714Y-80003809D01*
X126810714Y-80146666D01*
X126858333Y-80241904D01*
X126953571Y-80289523D01*
X127477380Y-80289523D01*
X126953571Y-80289523D02*
X126858333Y-80337142D01*
X126810714Y-80432380D01*
X126810714Y-80575238D01*
X126858333Y-80670476D01*
X126953571Y-80718095D01*
X127477380Y-80718095D01*
X126810714Y-81956190D02*
X127477380Y-81956190D01*
X126905952Y-81956190D02*
X126858333Y-82003809D01*
X126810714Y-82099047D01*
X126810714Y-82241904D01*
X126858333Y-82337142D01*
X126953571Y-82384761D01*
X127477380Y-82384761D01*
X127477380Y-83003809D02*
X127429761Y-82908571D01*
X127382142Y-82860952D01*
X127286904Y-82813333D01*
X127001190Y-82813333D01*
X126905952Y-82860952D01*
X126858333Y-82908571D01*
X126810714Y-83003809D01*
X126810714Y-83146666D01*
X126858333Y-83241904D01*
X126905952Y-83289523D01*
X127001190Y-83337142D01*
X127286904Y-83337142D01*
X127382142Y-83289523D01*
X127429761Y-83241904D01*
X127477380Y-83146666D01*
X127477380Y-83003809D01*
X126810714Y-83622857D02*
X126810714Y-84003809D01*
X126477380Y-83765714D02*
X127334523Y-83765714D01*
X127429761Y-83813333D01*
X127477380Y-83908571D01*
X127477380Y-84003809D01*
X127477380Y-85099047D02*
X126810714Y-85099047D01*
X127001190Y-85099047D02*
X126905952Y-85146666D01*
X126858333Y-85194285D01*
X126810714Y-85289523D01*
X126810714Y-85384761D01*
X127429761Y-86099047D02*
X127477380Y-86003809D01*
X127477380Y-85813333D01*
X127429761Y-85718095D01*
X127334523Y-85670476D01*
X126953571Y-85670476D01*
X126858333Y-85718095D01*
X126810714Y-85813333D01*
X126810714Y-86003809D01*
X126858333Y-86099047D01*
X126953571Y-86146666D01*
X127048809Y-86146666D01*
X127144047Y-85670476D01*
X127429761Y-86527619D02*
X127477380Y-86622857D01*
X127477380Y-86813333D01*
X127429761Y-86908571D01*
X127334523Y-86956190D01*
X127286904Y-86956190D01*
X127191666Y-86908571D01*
X127144047Y-86813333D01*
X127144047Y-86670476D01*
X127096428Y-86575238D01*
X127001190Y-86527619D01*
X126953571Y-86527619D01*
X126858333Y-86575238D01*
X126810714Y-86670476D01*
X126810714Y-86813333D01*
X126858333Y-86908571D01*
X126810714Y-87384761D02*
X127810714Y-87384761D01*
X126858333Y-87384761D02*
X126810714Y-87480000D01*
X126810714Y-87670476D01*
X126858333Y-87765714D01*
X126905952Y-87813333D01*
X127001190Y-87860952D01*
X127286904Y-87860952D01*
X127382142Y-87813333D01*
X127429761Y-87765714D01*
X127477380Y-87670476D01*
X127477380Y-87480000D01*
X127429761Y-87384761D01*
X127477380Y-88432380D02*
X127429761Y-88337142D01*
X127382142Y-88289523D01*
X127286904Y-88241904D01*
X127001190Y-88241904D01*
X126905952Y-88289523D01*
X126858333Y-88337142D01*
X126810714Y-88432380D01*
X126810714Y-88575238D01*
X126858333Y-88670476D01*
X126905952Y-88718095D01*
X127001190Y-88765714D01*
X127286904Y-88765714D01*
X127382142Y-88718095D01*
X127429761Y-88670476D01*
X127477380Y-88575238D01*
X127477380Y-88432380D01*
X126810714Y-89194285D02*
X127477380Y-89194285D01*
X126905952Y-89194285D02*
X126858333Y-89241904D01*
X126810714Y-89337142D01*
X126810714Y-89479999D01*
X126858333Y-89575238D01*
X126953571Y-89622857D01*
X127477380Y-89622857D01*
X127429761Y-90051428D02*
X127477380Y-90146666D01*
X127477380Y-90337142D01*
X127429761Y-90432380D01*
X127334523Y-90479999D01*
X127286904Y-90479999D01*
X127191666Y-90432380D01*
X127144047Y-90337142D01*
X127144047Y-90194285D01*
X127096428Y-90099047D01*
X127001190Y-90051428D01*
X126953571Y-90051428D01*
X126858333Y-90099047D01*
X126810714Y-90194285D01*
X126810714Y-90337142D01*
X126858333Y-90432380D01*
X127477380Y-90908571D02*
X126810714Y-90908571D01*
X126477380Y-90908571D02*
X126525000Y-90860952D01*
X126572619Y-90908571D01*
X126525000Y-90956190D01*
X126477380Y-90908571D01*
X126572619Y-90908571D01*
X127477380Y-91384761D02*
X126477380Y-91384761D01*
X126858333Y-91384761D02*
X126810714Y-91479999D01*
X126810714Y-91670476D01*
X126858333Y-91765714D01*
X126905952Y-91813333D01*
X127001190Y-91860952D01*
X127286904Y-91860952D01*
X127382142Y-91813333D01*
X127429761Y-91765714D01*
X127477380Y-91670476D01*
X127477380Y-91479999D01*
X127429761Y-91384761D01*
X127477380Y-92432380D02*
X127429761Y-92337142D01*
X127334523Y-92289523D01*
X126477380Y-92289523D01*
X127429761Y-93194285D02*
X127477380Y-93099047D01*
X127477380Y-92908571D01*
X127429761Y-92813333D01*
X127334523Y-92765714D01*
X126953571Y-92765714D01*
X126858333Y-92813333D01*
X126810714Y-92908571D01*
X126810714Y-93099047D01*
X126858333Y-93194285D01*
X126953571Y-93241904D01*
X127048809Y-93241904D01*
X127144047Y-92765714D01*
X126810714Y-94289523D02*
X126810714Y-94670476D01*
X127477380Y-94432380D02*
X126620238Y-94432380D01*
X126525000Y-94479999D01*
X126477380Y-94575238D01*
X126477380Y-94670476D01*
X127477380Y-95146666D02*
X127429761Y-95051428D01*
X127382142Y-95003809D01*
X127286904Y-94956190D01*
X127001190Y-94956190D01*
X126905952Y-95003809D01*
X126858333Y-95051428D01*
X126810714Y-95146666D01*
X126810714Y-95289523D01*
X126858333Y-95384761D01*
X126905952Y-95432380D01*
X127001190Y-95479999D01*
X127286904Y-95479999D01*
X127382142Y-95432380D01*
X127429761Y-95384761D01*
X127477380Y-95289523D01*
X127477380Y-95146666D01*
X127477380Y-95908571D02*
X126810714Y-95908571D01*
X127001190Y-95908571D02*
X126905952Y-95956190D01*
X126858333Y-96003809D01*
X126810714Y-96099047D01*
X126810714Y-96194285D01*
X127477380Y-97718095D02*
X126477380Y-97718095D01*
X127429761Y-97718095D02*
X127477380Y-97622857D01*
X127477380Y-97432380D01*
X127429761Y-97337142D01*
X127382142Y-97289523D01*
X127286904Y-97241904D01*
X127001190Y-97241904D01*
X126905952Y-97289523D01*
X126858333Y-97337142D01*
X126810714Y-97432380D01*
X126810714Y-97622857D01*
X126858333Y-97718095D01*
X127477380Y-98622857D02*
X126953571Y-98622857D01*
X126858333Y-98575238D01*
X126810714Y-98479999D01*
X126810714Y-98289523D01*
X126858333Y-98194285D01*
X127429761Y-98622857D02*
X127477380Y-98527619D01*
X127477380Y-98289523D01*
X127429761Y-98194285D01*
X127334523Y-98146666D01*
X127239285Y-98146666D01*
X127144047Y-98194285D01*
X127096428Y-98289523D01*
X127096428Y-98527619D01*
X127048809Y-98622857D01*
X127477380Y-99099047D02*
X126810714Y-99099047D01*
X126905952Y-99099047D02*
X126858333Y-99146666D01*
X126810714Y-99241904D01*
X126810714Y-99384761D01*
X126858333Y-99479999D01*
X126953571Y-99527619D01*
X127477380Y-99527619D01*
X126953571Y-99527619D02*
X126858333Y-99575238D01*
X126810714Y-99670476D01*
X126810714Y-99813333D01*
X126858333Y-99908571D01*
X126953571Y-99956190D01*
X127477380Y-99956190D01*
X127477380Y-100860952D02*
X126953571Y-100860952D01*
X126858333Y-100813333D01*
X126810714Y-100718095D01*
X126810714Y-100527619D01*
X126858333Y-100432380D01*
X127429761Y-100860952D02*
X127477380Y-100765714D01*
X127477380Y-100527619D01*
X127429761Y-100432380D01*
X127334523Y-100384761D01*
X127239285Y-100384761D01*
X127144047Y-100432380D01*
X127096428Y-100527619D01*
X127096428Y-100765714D01*
X127048809Y-100860952D01*
X126810714Y-101765714D02*
X127620238Y-101765714D01*
X127715476Y-101718095D01*
X127763095Y-101670476D01*
X127810714Y-101575238D01*
X127810714Y-101432380D01*
X127763095Y-101337142D01*
X127429761Y-101765714D02*
X127477380Y-101670476D01*
X127477380Y-101479999D01*
X127429761Y-101384761D01*
X127382142Y-101337142D01*
X127286904Y-101289523D01*
X127001190Y-101289523D01*
X126905952Y-101337142D01*
X126858333Y-101384761D01*
X126810714Y-101479999D01*
X126810714Y-101670476D01*
X126858333Y-101765714D01*
X127429761Y-102622857D02*
X127477380Y-102527619D01*
X127477380Y-102337142D01*
X127429761Y-102241904D01*
X127334523Y-102194285D01*
X126953571Y-102194285D01*
X126858333Y-102241904D01*
X126810714Y-102337142D01*
X126810714Y-102527619D01*
X126858333Y-102622857D01*
X126953571Y-102670476D01*
X127048809Y-102670476D01*
X127144047Y-102194285D01*
X127429761Y-103051428D02*
X127477380Y-103146666D01*
X127477380Y-103337142D01*
X127429761Y-103432380D01*
X127334523Y-103479999D01*
X127286904Y-103479999D01*
X127191666Y-103432380D01*
X127144047Y-103337142D01*
X127144047Y-103194285D01*
X127096428Y-103099047D01*
X127001190Y-103051428D01*
X126953571Y-103051428D01*
X126858333Y-103099047D01*
X126810714Y-103194285D01*
X126810714Y-103337142D01*
X126858333Y-103432380D01*
X127477380Y-104813333D02*
X127429761Y-104718095D01*
X127382142Y-104670476D01*
X127286904Y-104622857D01*
X127001190Y-104622857D01*
X126905952Y-104670476D01*
X126858333Y-104718095D01*
X126810714Y-104813333D01*
X126810714Y-104956190D01*
X126858333Y-105051428D01*
X126905952Y-105099047D01*
X127001190Y-105146666D01*
X127286904Y-105146666D01*
X127382142Y-105099047D01*
X127429761Y-105051428D01*
X127477380Y-104956190D01*
X127477380Y-104813333D01*
X127477380Y-105575238D02*
X126810714Y-105575238D01*
X127001190Y-105575238D02*
X126905952Y-105622857D01*
X126858333Y-105670476D01*
X126810714Y-105765714D01*
X126810714Y-105860952D01*
X127477380Y-106956190D02*
X126810714Y-106956190D01*
X126905952Y-106956190D02*
X126858333Y-107003809D01*
X126810714Y-107099047D01*
X126810714Y-107241904D01*
X126858333Y-107337142D01*
X126953571Y-107384761D01*
X127477380Y-107384761D01*
X126953571Y-107384761D02*
X126858333Y-107432380D01*
X126810714Y-107527619D01*
X126810714Y-107670476D01*
X126858333Y-107765714D01*
X126953571Y-107813333D01*
X127477380Y-107813333D01*
X127477380Y-108289523D02*
X126810714Y-108289523D01*
X126477380Y-108289523D02*
X126525000Y-108241904D01*
X126572619Y-108289523D01*
X126525000Y-108337142D01*
X126477380Y-108289523D01*
X126572619Y-108289523D01*
X127429761Y-108718095D02*
X127477380Y-108813333D01*
X127477380Y-109003809D01*
X127429761Y-109099047D01*
X127334523Y-109146666D01*
X127286904Y-109146666D01*
X127191666Y-109099047D01*
X127144047Y-109003809D01*
X127144047Y-108860952D01*
X127096428Y-108765714D01*
X127001190Y-108718095D01*
X126953571Y-108718095D01*
X126858333Y-108765714D01*
X126810714Y-108860952D01*
X126810714Y-109003809D01*
X126858333Y-109099047D01*
X126810714Y-109432380D02*
X126810714Y-109813333D01*
X126477380Y-109575238D02*
X127334523Y-109575238D01*
X127429761Y-109622857D01*
X127477380Y-109718095D01*
X127477380Y-109813333D01*
X127477380Y-110575238D02*
X126953571Y-110575238D01*
X126858333Y-110527619D01*
X126810714Y-110432380D01*
X126810714Y-110241904D01*
X126858333Y-110146666D01*
X127429761Y-110575238D02*
X127477380Y-110479999D01*
X127477380Y-110241904D01*
X127429761Y-110146666D01*
X127334523Y-110099047D01*
X127239285Y-110099047D01*
X127144047Y-110146666D01*
X127096428Y-110241904D01*
X127096428Y-110479999D01*
X127048809Y-110575238D01*
X127477380Y-111051428D02*
X126477380Y-111051428D01*
X127096428Y-111146666D02*
X127477380Y-111432380D01*
X126810714Y-111432380D02*
X127191666Y-111051428D01*
X127429761Y-112241904D02*
X127477380Y-112146666D01*
X127477380Y-111956190D01*
X127429761Y-111860952D01*
X127334523Y-111813333D01*
X126953571Y-111813333D01*
X126858333Y-111860952D01*
X126810714Y-111956190D01*
X126810714Y-112146666D01*
X126858333Y-112241904D01*
X126953571Y-112289523D01*
X127048809Y-112289523D01*
X127144047Y-111813333D01*
X127429761Y-112670476D02*
X127477380Y-112765714D01*
X127477380Y-112956190D01*
X127429761Y-113051428D01*
X127334523Y-113099047D01*
X127286904Y-113099047D01*
X127191666Y-113051428D01*
X127144047Y-112956190D01*
X127144047Y-112813333D01*
X127096428Y-112718095D01*
X127001190Y-112670476D01*
X126953571Y-112670476D01*
X126858333Y-112718095D01*
X126810714Y-112813333D01*
X126810714Y-112956190D01*
X126858333Y-113051428D01*
X127382142Y-114289523D02*
X127429761Y-114337142D01*
X127477380Y-114289523D01*
X127429761Y-114241904D01*
X127382142Y-114289523D01*
X127477380Y-114289523D01*
X126858333Y-114289523D02*
X126905952Y-114337142D01*
X126953571Y-114289523D01*
X126905952Y-114241904D01*
X126858333Y-114289523D01*
X126953571Y-114289523D01*
X127858333Y-114670476D02*
X127810714Y-114718095D01*
X127667857Y-114813333D01*
X127572619Y-114860952D01*
X127429761Y-114908571D01*
X127191666Y-114956190D01*
X127001190Y-114956190D01*
X126763095Y-114908571D01*
X126620238Y-114860952D01*
X126525000Y-114813333D01*
X126382142Y-114718095D01*
X126334523Y-114670476D01*
X114572380Y-136341904D02*
X114572380Y-136960952D01*
X114953333Y-136627619D01*
X114953333Y-136770476D01*
X115000952Y-136865714D01*
X115048571Y-136913333D01*
X115143809Y-136960952D01*
X115381904Y-136960952D01*
X115477142Y-136913333D01*
X115524761Y-136865714D01*
X115572380Y-136770476D01*
X115572380Y-136484761D01*
X115524761Y-136389523D01*
X115477142Y-136341904D01*
X114572380Y-137246666D02*
X115572380Y-137580000D01*
X114572380Y-137913333D01*
X114572380Y-138151428D02*
X114572380Y-138770476D01*
X114953333Y-138437142D01*
X114953333Y-138580000D01*
X115000952Y-138675238D01*
X115048571Y-138722857D01*
X115143809Y-138770476D01*
X115381904Y-138770476D01*
X115477142Y-138722857D01*
X115524761Y-138675238D01*
X115572380Y-138580000D01*
X115572380Y-138294285D01*
X115524761Y-138199047D01*
X115477142Y-138151428D01*
X112902380Y-136184761D02*
X111902380Y-136184761D01*
X111902380Y-136565714D01*
X111950000Y-136660952D01*
X111997619Y-136708571D01*
X112092857Y-136756190D01*
X112235714Y-136756190D01*
X112330952Y-136708571D01*
X112378571Y-136660952D01*
X112426190Y-136565714D01*
X112426190Y-136184761D01*
X111902380Y-137470476D02*
X112616666Y-137470476D01*
X112759523Y-137422857D01*
X112854761Y-137327619D01*
X112902380Y-137184761D01*
X112902380Y-137089523D01*
X112902380Y-138470476D02*
X112902380Y-137899047D01*
X112902380Y-138184761D02*
X111902380Y-138184761D01*
X112045238Y-138089523D01*
X112140476Y-137994285D01*
X112188095Y-137899047D01*
X112902380Y-139422857D02*
X112902380Y-138851428D01*
X112902380Y-139137142D02*
X111902380Y-139137142D01*
X112045238Y-139041904D01*
X112140476Y-138946666D01*
X112188095Y-138851428D01*
X110442380Y-136150952D02*
X109442380Y-136150952D01*
X109442380Y-136531904D01*
X109490000Y-136627142D01*
X109537619Y-136674761D01*
X109632857Y-136722380D01*
X109775714Y-136722380D01*
X109870952Y-136674761D01*
X109918571Y-136627142D01*
X109966190Y-136531904D01*
X109966190Y-136150952D01*
X109442380Y-137436666D02*
X110156666Y-137436666D01*
X110299523Y-137389047D01*
X110394761Y-137293809D01*
X110442380Y-137150952D01*
X110442380Y-137055714D01*
X110442380Y-137960476D02*
X110442380Y-138150952D01*
X110394761Y-138246190D01*
X110347142Y-138293809D01*
X110204285Y-138389047D01*
X110013809Y-138436666D01*
X109632857Y-138436666D01*
X109537619Y-138389047D01*
X109490000Y-138341428D01*
X109442380Y-138246190D01*
X109442380Y-138055714D01*
X109490000Y-137960476D01*
X109537619Y-137912857D01*
X109632857Y-137865238D01*
X109870952Y-137865238D01*
X109966190Y-137912857D01*
X110013809Y-137960476D01*
X110061428Y-138055714D01*
X110061428Y-138246190D01*
X110013809Y-138341428D01*
X109966190Y-138389047D01*
X109870952Y-138436666D01*
X108002380Y-136175714D02*
X107002380Y-136175714D01*
X107002380Y-136556666D01*
X107050000Y-136651904D01*
X107097619Y-136699523D01*
X107192857Y-136747142D01*
X107335714Y-136747142D01*
X107430952Y-136699523D01*
X107478571Y-136651904D01*
X107526190Y-136556666D01*
X107526190Y-136175714D01*
X108002380Y-137175714D02*
X107002380Y-137175714D01*
X107002380Y-137413809D01*
X107050000Y-137556666D01*
X107145238Y-137651904D01*
X107240476Y-137699523D01*
X107430952Y-137747142D01*
X107573809Y-137747142D01*
X107764285Y-137699523D01*
X107859523Y-137651904D01*
X107954761Y-137556666D01*
X108002380Y-137413809D01*
X108002380Y-137175714D01*
X108002380Y-138699523D02*
X108002380Y-138128095D01*
X108002380Y-138413809D02*
X107002380Y-138413809D01*
X107145238Y-138318571D01*
X107240476Y-138223333D01*
X107288095Y-138128095D01*
X107002380Y-139604285D02*
X107002380Y-139128095D01*
X107478571Y-139080476D01*
X107430952Y-139128095D01*
X107383333Y-139223333D01*
X107383333Y-139461428D01*
X107430952Y-139556666D01*
X107478571Y-139604285D01*
X107573809Y-139651904D01*
X107811904Y-139651904D01*
X107907142Y-139604285D01*
X107954761Y-139556666D01*
X108002380Y-139461428D01*
X108002380Y-139223333D01*
X107954761Y-139128095D01*
X107907142Y-139080476D01*
X105522380Y-136135714D02*
X104522380Y-136135714D01*
X104522380Y-136516666D01*
X104570000Y-136611904D01*
X104617619Y-136659523D01*
X104712857Y-136707142D01*
X104855714Y-136707142D01*
X104950952Y-136659523D01*
X104998571Y-136611904D01*
X105046190Y-136516666D01*
X105046190Y-136135714D01*
X105522380Y-137135714D02*
X104522380Y-137135714D01*
X104522380Y-137373809D01*
X104570000Y-137516666D01*
X104665238Y-137611904D01*
X104760476Y-137659523D01*
X104950952Y-137707142D01*
X105093809Y-137707142D01*
X105284285Y-137659523D01*
X105379523Y-137611904D01*
X105474761Y-137516666D01*
X105522380Y-137373809D01*
X105522380Y-137135714D01*
X105522380Y-138659523D02*
X105522380Y-138088095D01*
X105522380Y-138373809D02*
X104522380Y-138373809D01*
X104665238Y-138278571D01*
X104760476Y-138183333D01*
X104808095Y-138088095D01*
X104522380Y-138992857D02*
X104522380Y-139611904D01*
X104903333Y-139278571D01*
X104903333Y-139421428D01*
X104950952Y-139516666D01*
X104998571Y-139564285D01*
X105093809Y-139611904D01*
X105331904Y-139611904D01*
X105427142Y-139564285D01*
X105474761Y-139516666D01*
X105522380Y-139421428D01*
X105522380Y-139135714D01*
X105474761Y-139040476D01*
X105427142Y-138992857D01*
X102832380Y-136095714D02*
X101832380Y-136095714D01*
X101832380Y-136476666D01*
X101880000Y-136571904D01*
X101927619Y-136619523D01*
X102022857Y-136667142D01*
X102165714Y-136667142D01*
X102260952Y-136619523D01*
X102308571Y-136571904D01*
X102356190Y-136476666D01*
X102356190Y-136095714D01*
X102832380Y-137095714D02*
X101832380Y-137095714D01*
X101832380Y-137333809D01*
X101880000Y-137476666D01*
X101975238Y-137571904D01*
X102070476Y-137619523D01*
X102260952Y-137667142D01*
X102403809Y-137667142D01*
X102594285Y-137619523D01*
X102689523Y-137571904D01*
X102784761Y-137476666D01*
X102832380Y-137333809D01*
X102832380Y-137095714D01*
X102832380Y-138619523D02*
X102832380Y-138048095D01*
X102832380Y-138333809D02*
X101832380Y-138333809D01*
X101975238Y-138238571D01*
X102070476Y-138143333D01*
X102118095Y-138048095D01*
X102832380Y-139571904D02*
X102832380Y-139000476D01*
X102832380Y-139286190D02*
X101832380Y-139286190D01*
X101975238Y-139190952D01*
X102070476Y-139095714D01*
X102118095Y-139000476D01*
X100572380Y-136121904D02*
X99572380Y-136121904D01*
X99572380Y-136502857D01*
X99620000Y-136598095D01*
X99667619Y-136645714D01*
X99762857Y-136693333D01*
X99905714Y-136693333D01*
X100000952Y-136645714D01*
X100048571Y-136598095D01*
X100096190Y-136502857D01*
X100096190Y-136121904D01*
X100572380Y-137121904D02*
X99572380Y-137121904D01*
X99572380Y-137360000D01*
X99620000Y-137502857D01*
X99715238Y-137598095D01*
X99810476Y-137645714D01*
X100000952Y-137693333D01*
X100143809Y-137693333D01*
X100334285Y-137645714D01*
X100429523Y-137598095D01*
X100524761Y-137502857D01*
X100572380Y-137360000D01*
X100572380Y-137121904D01*
X100572380Y-138169523D02*
X100572380Y-138360000D01*
X100524761Y-138455238D01*
X100477142Y-138502857D01*
X100334285Y-138598095D01*
X100143809Y-138645714D01*
X99762857Y-138645714D01*
X99667619Y-138598095D01*
X99620000Y-138550476D01*
X99572380Y-138455238D01*
X99572380Y-138264761D01*
X99620000Y-138169523D01*
X99667619Y-138121904D01*
X99762857Y-138074285D01*
X100000952Y-138074285D01*
X100096190Y-138121904D01*
X100143809Y-138169523D01*
X100191428Y-138264761D01*
X100191428Y-138455238D01*
X100143809Y-138550476D01*
X100096190Y-138598095D01*
X100000952Y-138645714D01*
X97792380Y-136125714D02*
X96792380Y-136125714D01*
X96792380Y-136506666D01*
X96840000Y-136601904D01*
X96887619Y-136649523D01*
X96982857Y-136697142D01*
X97125714Y-136697142D01*
X97220952Y-136649523D01*
X97268571Y-136601904D01*
X97316190Y-136506666D01*
X97316190Y-136125714D01*
X97268571Y-137459047D02*
X97316190Y-137601904D01*
X97363809Y-137649523D01*
X97459047Y-137697142D01*
X97601904Y-137697142D01*
X97697142Y-137649523D01*
X97744761Y-137601904D01*
X97792380Y-137506666D01*
X97792380Y-137125714D01*
X96792380Y-137125714D01*
X96792380Y-137459047D01*
X96840000Y-137554285D01*
X96887619Y-137601904D01*
X96982857Y-137649523D01*
X97078095Y-137649523D01*
X97173333Y-137601904D01*
X97220952Y-137554285D01*
X97268571Y-137459047D01*
X97268571Y-137125714D01*
X97792380Y-138649523D02*
X97792380Y-138078095D01*
X97792380Y-138363809D02*
X96792380Y-138363809D01*
X96935238Y-138268571D01*
X97030476Y-138173333D01*
X97078095Y-138078095D01*
X96792380Y-139554285D02*
X96792380Y-139078095D01*
X97268571Y-139030476D01*
X97220952Y-139078095D01*
X97173333Y-139173333D01*
X97173333Y-139411428D01*
X97220952Y-139506666D01*
X97268571Y-139554285D01*
X97363809Y-139601904D01*
X97601904Y-139601904D01*
X97697142Y-139554285D01*
X97744761Y-139506666D01*
X97792380Y-139411428D01*
X97792380Y-139173333D01*
X97744761Y-139078095D01*
X97697142Y-139030476D01*
X95162380Y-136145714D02*
X94162380Y-136145714D01*
X94162380Y-136526666D01*
X94210000Y-136621904D01*
X94257619Y-136669523D01*
X94352857Y-136717142D01*
X94495714Y-136717142D01*
X94590952Y-136669523D01*
X94638571Y-136621904D01*
X94686190Y-136526666D01*
X94686190Y-136145714D01*
X94638571Y-137479047D02*
X94686190Y-137621904D01*
X94733809Y-137669523D01*
X94829047Y-137717142D01*
X94971904Y-137717142D01*
X95067142Y-137669523D01*
X95114761Y-137621904D01*
X95162380Y-137526666D01*
X95162380Y-137145714D01*
X94162380Y-137145714D01*
X94162380Y-137479047D01*
X94210000Y-137574285D01*
X94257619Y-137621904D01*
X94352857Y-137669523D01*
X94448095Y-137669523D01*
X94543333Y-137621904D01*
X94590952Y-137574285D01*
X94638571Y-137479047D01*
X94638571Y-137145714D01*
X95162380Y-138669523D02*
X95162380Y-138098095D01*
X95162380Y-138383809D02*
X94162380Y-138383809D01*
X94305238Y-138288571D01*
X94400476Y-138193333D01*
X94448095Y-138098095D01*
X94162380Y-139002857D02*
X94162380Y-139621904D01*
X94543333Y-139288571D01*
X94543333Y-139431428D01*
X94590952Y-139526666D01*
X94638571Y-139574285D01*
X94733809Y-139621904D01*
X94971904Y-139621904D01*
X95067142Y-139574285D01*
X95114761Y-139526666D01*
X95162380Y-139431428D01*
X95162380Y-139145714D01*
X95114761Y-139050476D01*
X95067142Y-139002857D01*
X92782380Y-136153333D02*
X91782380Y-136153333D01*
X91782380Y-136534285D01*
X91830000Y-136629523D01*
X91877619Y-136677142D01*
X91972857Y-136724761D01*
X92115714Y-136724761D01*
X92210952Y-136677142D01*
X92258571Y-136629523D01*
X92306190Y-136534285D01*
X92306190Y-136153333D01*
X92258571Y-137153333D02*
X92258571Y-137486666D01*
X92782380Y-137629523D02*
X92782380Y-137153333D01*
X91782380Y-137153333D01*
X91782380Y-137629523D01*
X92782380Y-138581904D02*
X92782380Y-138010476D01*
X92782380Y-138296190D02*
X91782380Y-138296190D01*
X91925238Y-138200952D01*
X92020476Y-138105714D01*
X92068095Y-138010476D01*
X91877619Y-138962857D02*
X91830000Y-139010476D01*
X91782380Y-139105714D01*
X91782380Y-139343809D01*
X91830000Y-139439047D01*
X91877619Y-139486666D01*
X91972857Y-139534285D01*
X92068095Y-139534285D01*
X92210952Y-139486666D01*
X92782380Y-138915238D01*
X92782380Y-139534285D01*
X89312380Y-136081904D02*
X89312380Y-136700952D01*
X89693333Y-136367619D01*
X89693333Y-136510476D01*
X89740952Y-136605714D01*
X89788571Y-136653333D01*
X89883809Y-136700952D01*
X90121904Y-136700952D01*
X90217142Y-136653333D01*
X90264761Y-136605714D01*
X90312380Y-136510476D01*
X90312380Y-136224761D01*
X90264761Y-136129523D01*
X90217142Y-136081904D01*
X89312380Y-136986666D02*
X90312380Y-137320000D01*
X89312380Y-137653333D01*
X89312380Y-137891428D02*
X89312380Y-138510476D01*
X89693333Y-138177142D01*
X89693333Y-138320000D01*
X89740952Y-138415238D01*
X89788571Y-138462857D01*
X89883809Y-138510476D01*
X90121904Y-138510476D01*
X90217142Y-138462857D01*
X90264761Y-138415238D01*
X90312380Y-138320000D01*
X90312380Y-138034285D01*
X90264761Y-137939047D01*
X90217142Y-137891428D01*
X86850000Y-136558095D02*
X86802380Y-136462857D01*
X86802380Y-136320000D01*
X86850000Y-136177142D01*
X86945238Y-136081904D01*
X87040476Y-136034285D01*
X87230952Y-135986666D01*
X87373809Y-135986666D01*
X87564285Y-136034285D01*
X87659523Y-136081904D01*
X87754761Y-136177142D01*
X87802380Y-136320000D01*
X87802380Y-136415238D01*
X87754761Y-136558095D01*
X87707142Y-136605714D01*
X87373809Y-136605714D01*
X87373809Y-136415238D01*
X87802380Y-137034285D02*
X86802380Y-137034285D01*
X87802380Y-137605714D01*
X86802380Y-137605714D01*
X87802380Y-138081904D02*
X86802380Y-138081904D01*
X86802380Y-138320000D01*
X86850000Y-138462857D01*
X86945238Y-138558095D01*
X87040476Y-138605714D01*
X87230952Y-138653333D01*
X87373809Y-138653333D01*
X87564285Y-138605714D01*
X87659523Y-138558095D01*
X87754761Y-138462857D01*
X87802380Y-138320000D01*
X87802380Y-138081904D01*
X84982380Y-136101904D02*
X83982380Y-136101904D01*
X83982380Y-136482857D01*
X84030000Y-136578095D01*
X84077619Y-136625714D01*
X84172857Y-136673333D01*
X84315714Y-136673333D01*
X84410952Y-136625714D01*
X84458571Y-136578095D01*
X84506190Y-136482857D01*
X84506190Y-136101904D01*
X84030000Y-137625714D02*
X83982380Y-137530476D01*
X83982380Y-137387619D01*
X84030000Y-137244761D01*
X84125238Y-137149523D01*
X84220476Y-137101904D01*
X84410952Y-137054285D01*
X84553809Y-137054285D01*
X84744285Y-137101904D01*
X84839523Y-137149523D01*
X84934761Y-137244761D01*
X84982380Y-137387619D01*
X84982380Y-137482857D01*
X84934761Y-137625714D01*
X84887142Y-137673333D01*
X84553809Y-137673333D01*
X84553809Y-137482857D01*
X83982380Y-138292380D02*
X83982380Y-138387619D01*
X84030000Y-138482857D01*
X84077619Y-138530476D01*
X84172857Y-138578095D01*
X84363333Y-138625714D01*
X84601428Y-138625714D01*
X84791904Y-138578095D01*
X84887142Y-138530476D01*
X84934761Y-138482857D01*
X84982380Y-138387619D01*
X84982380Y-138292380D01*
X84934761Y-138197142D01*
X84887142Y-138149523D01*
X84791904Y-138101904D01*
X84601428Y-138054285D01*
X84363333Y-138054285D01*
X84172857Y-138101904D01*
X84077619Y-138149523D01*
X84030000Y-138197142D01*
X83982380Y-138292380D01*
X82552380Y-136087142D02*
X81552380Y-136087142D01*
X81552380Y-136468095D01*
X81600000Y-136563333D01*
X81647619Y-136610952D01*
X81742857Y-136658571D01*
X81885714Y-136658571D01*
X81980952Y-136610952D01*
X82028571Y-136563333D01*
X82076190Y-136468095D01*
X82076190Y-136087142D01*
X82028571Y-137420476D02*
X82028571Y-137087142D01*
X82552380Y-137087142D02*
X81552380Y-137087142D01*
X81552380Y-137563333D01*
X82552380Y-138468095D02*
X82552380Y-137896666D01*
X82552380Y-138182380D02*
X81552380Y-138182380D01*
X81695238Y-138087142D01*
X81790476Y-137991904D01*
X81838095Y-137896666D01*
X81885714Y-139325238D02*
X82552380Y-139325238D01*
X81504761Y-139087142D02*
X82219047Y-138849047D01*
X82219047Y-139468095D01*
X79952380Y-136057142D02*
X78952380Y-136057142D01*
X78952380Y-136438095D01*
X79000000Y-136533333D01*
X79047619Y-136580952D01*
X79142857Y-136628571D01*
X79285714Y-136628571D01*
X79380952Y-136580952D01*
X79428571Y-136533333D01*
X79476190Y-136438095D01*
X79476190Y-136057142D01*
X79428571Y-137390476D02*
X79428571Y-137057142D01*
X79952380Y-137057142D02*
X78952380Y-137057142D01*
X78952380Y-137533333D01*
X79952380Y-138438095D02*
X79952380Y-137866666D01*
X79952380Y-138152380D02*
X78952380Y-138152380D01*
X79095238Y-138057142D01*
X79190476Y-137961904D01*
X79238095Y-137866666D01*
X79047619Y-138819047D02*
X79000000Y-138866666D01*
X78952380Y-138961904D01*
X78952380Y-139200000D01*
X79000000Y-139295238D01*
X79047619Y-139342857D01*
X79142857Y-139390476D01*
X79238095Y-139390476D01*
X79380952Y-139342857D01*
X79952380Y-138771428D01*
X79952380Y-139390476D01*
X77452380Y-136691904D02*
X76452380Y-136691904D01*
X76452380Y-137072857D01*
X76500000Y-137168095D01*
X76547619Y-137215714D01*
X76642857Y-137263333D01*
X76785714Y-137263333D01*
X76880952Y-137215714D01*
X76928571Y-137168095D01*
X76976190Y-137072857D01*
X76976190Y-136691904D01*
X77357142Y-138263333D02*
X77404761Y-138215714D01*
X77452380Y-138072857D01*
X77452380Y-137977619D01*
X77404761Y-137834761D01*
X77309523Y-137739523D01*
X77214285Y-137691904D01*
X77023809Y-137644285D01*
X76880952Y-137644285D01*
X76690476Y-137691904D01*
X76595238Y-137739523D01*
X76500000Y-137834761D01*
X76452380Y-137977619D01*
X76452380Y-138072857D01*
X76500000Y-138215714D01*
X76547619Y-138263333D01*
X76452380Y-139168095D02*
X76452380Y-138691904D01*
X76928571Y-138644285D01*
X76880952Y-138691904D01*
X76833333Y-138787142D01*
X76833333Y-139025238D01*
X76880952Y-139120476D01*
X76928571Y-139168095D01*
X77023809Y-139215714D01*
X77261904Y-139215714D01*
X77357142Y-139168095D01*
X77404761Y-139120476D01*
X77452380Y-139025238D01*
X77452380Y-138787142D01*
X77404761Y-138691904D01*
X77357142Y-138644285D01*
X74992380Y-136633333D02*
X73992380Y-136633333D01*
X73992380Y-137014285D01*
X74040000Y-137109523D01*
X74087619Y-137157142D01*
X74182857Y-137204761D01*
X74325714Y-137204761D01*
X74420952Y-137157142D01*
X74468571Y-137109523D01*
X74516190Y-137014285D01*
X74516190Y-136633333D01*
X74706666Y-137585714D02*
X74706666Y-138061904D01*
X74992380Y-137490476D02*
X73992380Y-137823809D01*
X74992380Y-138157142D01*
X73992380Y-138966666D02*
X73992380Y-138490476D01*
X74468571Y-138442857D01*
X74420952Y-138490476D01*
X74373333Y-138585714D01*
X74373333Y-138823809D01*
X74420952Y-138919047D01*
X74468571Y-138966666D01*
X74563809Y-139014285D01*
X74801904Y-139014285D01*
X74897142Y-138966666D01*
X74944761Y-138919047D01*
X74992380Y-138823809D01*
X74992380Y-138585714D01*
X74944761Y-138490476D01*
X74897142Y-138442857D01*
X72412380Y-136581904D02*
X71412380Y-136581904D01*
X71412380Y-136962857D01*
X71460000Y-137058095D01*
X71507619Y-137105714D01*
X71602857Y-137153333D01*
X71745714Y-137153333D01*
X71840952Y-137105714D01*
X71888571Y-137058095D01*
X71936190Y-136962857D01*
X71936190Y-136581904D01*
X72317142Y-138153333D02*
X72364761Y-138105714D01*
X72412380Y-137962857D01*
X72412380Y-137867619D01*
X72364761Y-137724761D01*
X72269523Y-137629523D01*
X72174285Y-137581904D01*
X71983809Y-137534285D01*
X71840952Y-137534285D01*
X71650476Y-137581904D01*
X71555238Y-137629523D01*
X71460000Y-137724761D01*
X71412380Y-137867619D01*
X71412380Y-137962857D01*
X71460000Y-138105714D01*
X71507619Y-138153333D01*
X71507619Y-138534285D02*
X71460000Y-138581904D01*
X71412380Y-138677142D01*
X71412380Y-138915238D01*
X71460000Y-139010476D01*
X71507619Y-139058095D01*
X71602857Y-139105714D01*
X71698095Y-139105714D01*
X71840952Y-139058095D01*
X72412380Y-138486666D01*
X72412380Y-139105714D01*
X68702380Y-136741904D02*
X68702380Y-137360952D01*
X69083333Y-137027619D01*
X69083333Y-137170476D01*
X69130952Y-137265714D01*
X69178571Y-137313333D01*
X69273809Y-137360952D01*
X69511904Y-137360952D01*
X69607142Y-137313333D01*
X69654761Y-137265714D01*
X69702380Y-137170476D01*
X69702380Y-136884761D01*
X69654761Y-136789523D01*
X69607142Y-136741904D01*
X68702380Y-137646666D02*
X69702380Y-137980000D01*
X68702380Y-138313333D01*
X68702380Y-138551428D02*
X68702380Y-139170476D01*
X69083333Y-138837142D01*
X69083333Y-138980000D01*
X69130952Y-139075238D01*
X69178571Y-139122857D01*
X69273809Y-139170476D01*
X69511904Y-139170476D01*
X69607142Y-139122857D01*
X69654761Y-139075238D01*
X69702380Y-138980000D01*
X69702380Y-138694285D01*
X69654761Y-138599047D01*
X69607142Y-138551428D01*
X66130000Y-137198095D02*
X66082380Y-137102857D01*
X66082380Y-136960000D01*
X66130000Y-136817142D01*
X66225238Y-136721904D01*
X66320476Y-136674285D01*
X66510952Y-136626666D01*
X66653809Y-136626666D01*
X66844285Y-136674285D01*
X66939523Y-136721904D01*
X67034761Y-136817142D01*
X67082380Y-136960000D01*
X67082380Y-137055238D01*
X67034761Y-137198095D01*
X66987142Y-137245714D01*
X66653809Y-137245714D01*
X66653809Y-137055238D01*
X67082380Y-137674285D02*
X66082380Y-137674285D01*
X67082380Y-138245714D01*
X66082380Y-138245714D01*
X67082380Y-138721904D02*
X66082380Y-138721904D01*
X66082380Y-138960000D01*
X66130000Y-139102857D01*
X66225238Y-139198095D01*
X66320476Y-139245714D01*
X66510952Y-139293333D01*
X66653809Y-139293333D01*
X66844285Y-139245714D01*
X66939523Y-139198095D01*
X67034761Y-139102857D01*
X67082380Y-138960000D01*
X67082380Y-138721904D01*
X114450000Y-127918095D02*
X114402380Y-127822857D01*
X114402380Y-127680000D01*
X114450000Y-127537142D01*
X114545238Y-127441904D01*
X114640476Y-127394285D01*
X114830952Y-127346666D01*
X114973809Y-127346666D01*
X115164285Y-127394285D01*
X115259523Y-127441904D01*
X115354761Y-127537142D01*
X115402380Y-127680000D01*
X115402380Y-127775238D01*
X115354761Y-127918095D01*
X115307142Y-127965714D01*
X114973809Y-127965714D01*
X114973809Y-127775238D01*
X115402380Y-128394285D02*
X114402380Y-128394285D01*
X115402380Y-128965714D01*
X114402380Y-128965714D01*
X115402380Y-129441904D02*
X114402380Y-129441904D01*
X114402380Y-129680000D01*
X114450000Y-129822857D01*
X114545238Y-129918095D01*
X114640476Y-129965714D01*
X114830952Y-130013333D01*
X114973809Y-130013333D01*
X115164285Y-129965714D01*
X115259523Y-129918095D01*
X115354761Y-129822857D01*
X115402380Y-129680000D01*
X115402380Y-129441904D01*
X111852380Y-127919523D02*
X111852380Y-127443333D01*
X112328571Y-127395714D01*
X112280952Y-127443333D01*
X112233333Y-127538571D01*
X112233333Y-127776666D01*
X112280952Y-127871904D01*
X112328571Y-127919523D01*
X112423809Y-127967142D01*
X112661904Y-127967142D01*
X112757142Y-127919523D01*
X112804761Y-127871904D01*
X112852380Y-127776666D01*
X112852380Y-127538571D01*
X112804761Y-127443333D01*
X112757142Y-127395714D01*
X111852380Y-128252857D02*
X112852380Y-128586190D01*
X111852380Y-128919523D01*
X110432380Y-127494761D02*
X109432380Y-127494761D01*
X109432380Y-127875714D01*
X109480000Y-127970952D01*
X109527619Y-128018571D01*
X109622857Y-128066190D01*
X109765714Y-128066190D01*
X109860952Y-128018571D01*
X109908571Y-127970952D01*
X109956190Y-127875714D01*
X109956190Y-127494761D01*
X109432380Y-128780476D02*
X110146666Y-128780476D01*
X110289523Y-128732857D01*
X110384761Y-128637619D01*
X110432380Y-128494761D01*
X110432380Y-128399523D01*
X110432380Y-129780476D02*
X110432380Y-129209047D01*
X110432380Y-129494761D02*
X109432380Y-129494761D01*
X109575238Y-129399523D01*
X109670476Y-129304285D01*
X109718095Y-129209047D01*
X109432380Y-130399523D02*
X109432380Y-130494761D01*
X109480000Y-130590000D01*
X109527619Y-130637619D01*
X109622857Y-130685238D01*
X109813333Y-130732857D01*
X110051428Y-130732857D01*
X110241904Y-130685238D01*
X110337142Y-130637619D01*
X110384761Y-130590000D01*
X110432380Y-130494761D01*
X110432380Y-130399523D01*
X110384761Y-130304285D01*
X110337142Y-130256666D01*
X110241904Y-130209047D01*
X110051428Y-130161428D01*
X109813333Y-130161428D01*
X109622857Y-130209047D01*
X109527619Y-130256666D01*
X109480000Y-130304285D01*
X109432380Y-130399523D01*
X107832380Y-127360952D02*
X106832380Y-127360952D01*
X106832380Y-127741904D01*
X106880000Y-127837142D01*
X106927619Y-127884761D01*
X107022857Y-127932380D01*
X107165714Y-127932380D01*
X107260952Y-127884761D01*
X107308571Y-127837142D01*
X107356190Y-127741904D01*
X107356190Y-127360952D01*
X106832380Y-128646666D02*
X107546666Y-128646666D01*
X107689523Y-128599047D01*
X107784761Y-128503809D01*
X107832380Y-128360952D01*
X107832380Y-128265714D01*
X107260952Y-129265714D02*
X107213333Y-129170476D01*
X107165714Y-129122857D01*
X107070476Y-129075238D01*
X107022857Y-129075238D01*
X106927619Y-129122857D01*
X106880000Y-129170476D01*
X106832380Y-129265714D01*
X106832380Y-129456190D01*
X106880000Y-129551428D01*
X106927619Y-129599047D01*
X107022857Y-129646666D01*
X107070476Y-129646666D01*
X107165714Y-129599047D01*
X107213333Y-129551428D01*
X107260952Y-129456190D01*
X107260952Y-129265714D01*
X107308571Y-129170476D01*
X107356190Y-129122857D01*
X107451428Y-129075238D01*
X107641904Y-129075238D01*
X107737142Y-129122857D01*
X107784761Y-129170476D01*
X107832380Y-129265714D01*
X107832380Y-129456190D01*
X107784761Y-129551428D01*
X107737142Y-129599047D01*
X107641904Y-129646666D01*
X107451428Y-129646666D01*
X107356190Y-129599047D01*
X107308571Y-129551428D01*
X107260952Y-129456190D01*
X105082380Y-127255714D02*
X104082380Y-127255714D01*
X104082380Y-127636666D01*
X104130000Y-127731904D01*
X104177619Y-127779523D01*
X104272857Y-127827142D01*
X104415714Y-127827142D01*
X104510952Y-127779523D01*
X104558571Y-127731904D01*
X104606190Y-127636666D01*
X104606190Y-127255714D01*
X105082380Y-128255714D02*
X104082380Y-128255714D01*
X104082380Y-128493809D01*
X104130000Y-128636666D01*
X104225238Y-128731904D01*
X104320476Y-128779523D01*
X104510952Y-128827142D01*
X104653809Y-128827142D01*
X104844285Y-128779523D01*
X104939523Y-128731904D01*
X105034761Y-128636666D01*
X105082380Y-128493809D01*
X105082380Y-128255714D01*
X105082380Y-129779523D02*
X105082380Y-129208095D01*
X105082380Y-129493809D02*
X104082380Y-129493809D01*
X104225238Y-129398571D01*
X104320476Y-129303333D01*
X104368095Y-129208095D01*
X104415714Y-130636666D02*
X105082380Y-130636666D01*
X104034761Y-130398571D02*
X104749047Y-130160476D01*
X104749047Y-130779523D01*
X102802380Y-127295714D02*
X101802380Y-127295714D01*
X101802380Y-127676666D01*
X101850000Y-127771904D01*
X101897619Y-127819523D01*
X101992857Y-127867142D01*
X102135714Y-127867142D01*
X102230952Y-127819523D01*
X102278571Y-127771904D01*
X102326190Y-127676666D01*
X102326190Y-127295714D01*
X102802380Y-128295714D02*
X101802380Y-128295714D01*
X101802380Y-128533809D01*
X101850000Y-128676666D01*
X101945238Y-128771904D01*
X102040476Y-128819523D01*
X102230952Y-128867142D01*
X102373809Y-128867142D01*
X102564285Y-128819523D01*
X102659523Y-128771904D01*
X102754761Y-128676666D01*
X102802380Y-128533809D01*
X102802380Y-128295714D01*
X102802380Y-129819523D02*
X102802380Y-129248095D01*
X102802380Y-129533809D02*
X101802380Y-129533809D01*
X101945238Y-129438571D01*
X102040476Y-129343333D01*
X102088095Y-129248095D01*
X101897619Y-130200476D02*
X101850000Y-130248095D01*
X101802380Y-130343333D01*
X101802380Y-130581428D01*
X101850000Y-130676666D01*
X101897619Y-130724285D01*
X101992857Y-130771904D01*
X102088095Y-130771904D01*
X102230952Y-130724285D01*
X102802380Y-130152857D01*
X102802380Y-130771904D01*
X100412380Y-127375714D02*
X99412380Y-127375714D01*
X99412380Y-127756666D01*
X99460000Y-127851904D01*
X99507619Y-127899523D01*
X99602857Y-127947142D01*
X99745714Y-127947142D01*
X99840952Y-127899523D01*
X99888571Y-127851904D01*
X99936190Y-127756666D01*
X99936190Y-127375714D01*
X100412380Y-128375714D02*
X99412380Y-128375714D01*
X99412380Y-128613809D01*
X99460000Y-128756666D01*
X99555238Y-128851904D01*
X99650476Y-128899523D01*
X99840952Y-128947142D01*
X99983809Y-128947142D01*
X100174285Y-128899523D01*
X100269523Y-128851904D01*
X100364761Y-128756666D01*
X100412380Y-128613809D01*
X100412380Y-128375714D01*
X100412380Y-129899523D02*
X100412380Y-129328095D01*
X100412380Y-129613809D02*
X99412380Y-129613809D01*
X99555238Y-129518571D01*
X99650476Y-129423333D01*
X99698095Y-129328095D01*
X99412380Y-130518571D02*
X99412380Y-130613809D01*
X99460000Y-130709047D01*
X99507619Y-130756666D01*
X99602857Y-130804285D01*
X99793333Y-130851904D01*
X100031428Y-130851904D01*
X100221904Y-130804285D01*
X100317142Y-130756666D01*
X100364761Y-130709047D01*
X100412380Y-130613809D01*
X100412380Y-130518571D01*
X100364761Y-130423333D01*
X100317142Y-130375714D01*
X100221904Y-130328095D01*
X100031428Y-130280476D01*
X99793333Y-130280476D01*
X99602857Y-130328095D01*
X99507619Y-130375714D01*
X99460000Y-130423333D01*
X99412380Y-130518571D01*
X97832380Y-127321904D02*
X96832380Y-127321904D01*
X96832380Y-127702857D01*
X96880000Y-127798095D01*
X96927619Y-127845714D01*
X97022857Y-127893333D01*
X97165714Y-127893333D01*
X97260952Y-127845714D01*
X97308571Y-127798095D01*
X97356190Y-127702857D01*
X97356190Y-127321904D01*
X97832380Y-128321904D02*
X96832380Y-128321904D01*
X96832380Y-128560000D01*
X96880000Y-128702857D01*
X96975238Y-128798095D01*
X97070476Y-128845714D01*
X97260952Y-128893333D01*
X97403809Y-128893333D01*
X97594285Y-128845714D01*
X97689523Y-128798095D01*
X97784761Y-128702857D01*
X97832380Y-128560000D01*
X97832380Y-128321904D01*
X97260952Y-129464761D02*
X97213333Y-129369523D01*
X97165714Y-129321904D01*
X97070476Y-129274285D01*
X97022857Y-129274285D01*
X96927619Y-129321904D01*
X96880000Y-129369523D01*
X96832380Y-129464761D01*
X96832380Y-129655238D01*
X96880000Y-129750476D01*
X96927619Y-129798095D01*
X97022857Y-129845714D01*
X97070476Y-129845714D01*
X97165714Y-129798095D01*
X97213333Y-129750476D01*
X97260952Y-129655238D01*
X97260952Y-129464761D01*
X97308571Y-129369523D01*
X97356190Y-129321904D01*
X97451428Y-129274285D01*
X97641904Y-129274285D01*
X97737142Y-129321904D01*
X97784761Y-129369523D01*
X97832380Y-129464761D01*
X97832380Y-129655238D01*
X97784761Y-129750476D01*
X97737142Y-129798095D01*
X97641904Y-129845714D01*
X97451428Y-129845714D01*
X97356190Y-129798095D01*
X97308571Y-129750476D01*
X97260952Y-129655238D01*
X95262380Y-127125714D02*
X94262380Y-127125714D01*
X94262380Y-127506666D01*
X94310000Y-127601904D01*
X94357619Y-127649523D01*
X94452857Y-127697142D01*
X94595714Y-127697142D01*
X94690952Y-127649523D01*
X94738571Y-127601904D01*
X94786190Y-127506666D01*
X94786190Y-127125714D01*
X94738571Y-128459047D02*
X94786190Y-128601904D01*
X94833809Y-128649523D01*
X94929047Y-128697142D01*
X95071904Y-128697142D01*
X95167142Y-128649523D01*
X95214761Y-128601904D01*
X95262380Y-128506666D01*
X95262380Y-128125714D01*
X94262380Y-128125714D01*
X94262380Y-128459047D01*
X94310000Y-128554285D01*
X94357619Y-128601904D01*
X94452857Y-128649523D01*
X94548095Y-128649523D01*
X94643333Y-128601904D01*
X94690952Y-128554285D01*
X94738571Y-128459047D01*
X94738571Y-128125714D01*
X95262380Y-129649523D02*
X95262380Y-129078095D01*
X95262380Y-129363809D02*
X94262380Y-129363809D01*
X94405238Y-129268571D01*
X94500476Y-129173333D01*
X94548095Y-129078095D01*
X94595714Y-130506666D02*
X95262380Y-130506666D01*
X94214761Y-130268571D02*
X94929047Y-130030476D01*
X94929047Y-130649523D01*
X92512380Y-127063333D02*
X91512380Y-127063333D01*
X91512380Y-127444285D01*
X91560000Y-127539523D01*
X91607619Y-127587142D01*
X91702857Y-127634761D01*
X91845714Y-127634761D01*
X91940952Y-127587142D01*
X91988571Y-127539523D01*
X92036190Y-127444285D01*
X92036190Y-127063333D01*
X91988571Y-128063333D02*
X91988571Y-128396666D01*
X92512380Y-128539523D02*
X92512380Y-128063333D01*
X91512380Y-128063333D01*
X91512380Y-128539523D01*
X92512380Y-129491904D02*
X92512380Y-128920476D01*
X92512380Y-129206190D02*
X91512380Y-129206190D01*
X91655238Y-129110952D01*
X91750476Y-129015714D01*
X91798095Y-128920476D01*
X91512380Y-129825238D02*
X91512380Y-130444285D01*
X91893333Y-130110952D01*
X91893333Y-130253809D01*
X91940952Y-130349047D01*
X91988571Y-130396666D01*
X92083809Y-130444285D01*
X92321904Y-130444285D01*
X92417142Y-130396666D01*
X92464761Y-130349047D01*
X92512380Y-130253809D01*
X92512380Y-129968095D01*
X92464761Y-129872857D01*
X92417142Y-129825238D01*
X90082380Y-127183333D02*
X89082380Y-127183333D01*
X89082380Y-127564285D01*
X89130000Y-127659523D01*
X89177619Y-127707142D01*
X89272857Y-127754761D01*
X89415714Y-127754761D01*
X89510952Y-127707142D01*
X89558571Y-127659523D01*
X89606190Y-127564285D01*
X89606190Y-127183333D01*
X89558571Y-128183333D02*
X89558571Y-128516666D01*
X90082380Y-128659523D02*
X90082380Y-128183333D01*
X89082380Y-128183333D01*
X89082380Y-128659523D01*
X90082380Y-129611904D02*
X90082380Y-129040476D01*
X90082380Y-129326190D02*
X89082380Y-129326190D01*
X89225238Y-129230952D01*
X89320476Y-129135714D01*
X89368095Y-129040476D01*
X89082380Y-130230952D02*
X89082380Y-130326190D01*
X89130000Y-130421428D01*
X89177619Y-130469047D01*
X89272857Y-130516666D01*
X89463333Y-130564285D01*
X89701428Y-130564285D01*
X89891904Y-130516666D01*
X89987142Y-130469047D01*
X90034761Y-130421428D01*
X90082380Y-130326190D01*
X90082380Y-130230952D01*
X90034761Y-130135714D01*
X89987142Y-130088095D01*
X89891904Y-130040476D01*
X89701428Y-129992857D01*
X89463333Y-129992857D01*
X89272857Y-130040476D01*
X89177619Y-130088095D01*
X89130000Y-130135714D01*
X89082380Y-130230952D01*
X87682380Y-127309523D02*
X86682380Y-127309523D01*
X86682380Y-127690476D01*
X86730000Y-127785714D01*
X86777619Y-127833333D01*
X86872857Y-127880952D01*
X87015714Y-127880952D01*
X87110952Y-127833333D01*
X87158571Y-127785714D01*
X87206190Y-127690476D01*
X87206190Y-127309523D01*
X87158571Y-128309523D02*
X87158571Y-128642857D01*
X87682380Y-128785714D02*
X87682380Y-128309523D01*
X86682380Y-128309523D01*
X86682380Y-128785714D01*
X87110952Y-129357142D02*
X87063333Y-129261904D01*
X87015714Y-129214285D01*
X86920476Y-129166666D01*
X86872857Y-129166666D01*
X86777619Y-129214285D01*
X86730000Y-129261904D01*
X86682380Y-129357142D01*
X86682380Y-129547619D01*
X86730000Y-129642857D01*
X86777619Y-129690476D01*
X86872857Y-129738095D01*
X86920476Y-129738095D01*
X87015714Y-129690476D01*
X87063333Y-129642857D01*
X87110952Y-129547619D01*
X87110952Y-129357142D01*
X87158571Y-129261904D01*
X87206190Y-129214285D01*
X87301428Y-129166666D01*
X87491904Y-129166666D01*
X87587142Y-129214285D01*
X87634761Y-129261904D01*
X87682380Y-129357142D01*
X87682380Y-129547619D01*
X87634761Y-129642857D01*
X87587142Y-129690476D01*
X87491904Y-129738095D01*
X87301428Y-129738095D01*
X87206190Y-129690476D01*
X87158571Y-129642857D01*
X87110952Y-129547619D01*
X85222380Y-127255714D02*
X84222380Y-127255714D01*
X84222380Y-127636666D01*
X84270000Y-127731904D01*
X84317619Y-127779523D01*
X84412857Y-127827142D01*
X84555714Y-127827142D01*
X84650952Y-127779523D01*
X84698571Y-127731904D01*
X84746190Y-127636666D01*
X84746190Y-127255714D01*
X84270000Y-128779523D02*
X84222380Y-128684285D01*
X84222380Y-128541428D01*
X84270000Y-128398571D01*
X84365238Y-128303333D01*
X84460476Y-128255714D01*
X84650952Y-128208095D01*
X84793809Y-128208095D01*
X84984285Y-128255714D01*
X85079523Y-128303333D01*
X85174761Y-128398571D01*
X85222380Y-128541428D01*
X85222380Y-128636666D01*
X85174761Y-128779523D01*
X85127142Y-128827142D01*
X84793809Y-128827142D01*
X84793809Y-128636666D01*
X85222380Y-129779523D02*
X85222380Y-129208095D01*
X85222380Y-129493809D02*
X84222380Y-129493809D01*
X84365238Y-129398571D01*
X84460476Y-129303333D01*
X84508095Y-129208095D01*
X85222380Y-130731904D02*
X85222380Y-130160476D01*
X85222380Y-130446190D02*
X84222380Y-130446190D01*
X84365238Y-130350952D01*
X84460476Y-130255714D01*
X84508095Y-130160476D01*
X82572380Y-127297142D02*
X81572380Y-127297142D01*
X81572380Y-127678095D01*
X81620000Y-127773333D01*
X81667619Y-127820952D01*
X81762857Y-127868571D01*
X81905714Y-127868571D01*
X82000952Y-127820952D01*
X82048571Y-127773333D01*
X82096190Y-127678095D01*
X82096190Y-127297142D01*
X82048571Y-128630476D02*
X82048571Y-128297142D01*
X82572380Y-128297142D02*
X81572380Y-128297142D01*
X81572380Y-128773333D01*
X82572380Y-129678095D02*
X82572380Y-129106666D01*
X82572380Y-129392380D02*
X81572380Y-129392380D01*
X81715238Y-129297142D01*
X81810476Y-129201904D01*
X81858095Y-129106666D01*
X81572380Y-130582857D02*
X81572380Y-130106666D01*
X82048571Y-130059047D01*
X82000952Y-130106666D01*
X81953333Y-130201904D01*
X81953333Y-130440000D01*
X82000952Y-130535238D01*
X82048571Y-130582857D01*
X82143809Y-130630476D01*
X82381904Y-130630476D01*
X82477142Y-130582857D01*
X82524761Y-130535238D01*
X82572380Y-130440000D01*
X82572380Y-130201904D01*
X82524761Y-130106666D01*
X82477142Y-130059047D01*
X79982380Y-127337142D02*
X78982380Y-127337142D01*
X78982380Y-127718095D01*
X79030000Y-127813333D01*
X79077619Y-127860952D01*
X79172857Y-127908571D01*
X79315714Y-127908571D01*
X79410952Y-127860952D01*
X79458571Y-127813333D01*
X79506190Y-127718095D01*
X79506190Y-127337142D01*
X79458571Y-128670476D02*
X79458571Y-128337142D01*
X79982380Y-128337142D02*
X78982380Y-128337142D01*
X78982380Y-128813333D01*
X79982380Y-129718095D02*
X79982380Y-129146666D01*
X79982380Y-129432380D02*
X78982380Y-129432380D01*
X79125238Y-129337142D01*
X79220476Y-129241904D01*
X79268095Y-129146666D01*
X78982380Y-130051428D02*
X78982380Y-130670476D01*
X79363333Y-130337142D01*
X79363333Y-130480000D01*
X79410952Y-130575238D01*
X79458571Y-130622857D01*
X79553809Y-130670476D01*
X79791904Y-130670476D01*
X79887142Y-130622857D01*
X79934761Y-130575238D01*
X79982380Y-130480000D01*
X79982380Y-130194285D01*
X79934761Y-130099047D01*
X79887142Y-130051428D01*
X77302380Y-127317142D02*
X76302380Y-127317142D01*
X76302380Y-127698095D01*
X76350000Y-127793333D01*
X76397619Y-127840952D01*
X76492857Y-127888571D01*
X76635714Y-127888571D01*
X76730952Y-127840952D01*
X76778571Y-127793333D01*
X76826190Y-127698095D01*
X76826190Y-127317142D01*
X76778571Y-128650476D02*
X76778571Y-128317142D01*
X77302380Y-128317142D02*
X76302380Y-128317142D01*
X76302380Y-128793333D01*
X77302380Y-129698095D02*
X77302380Y-129126666D01*
X77302380Y-129412380D02*
X76302380Y-129412380D01*
X76445238Y-129317142D01*
X76540476Y-129221904D01*
X76588095Y-129126666D01*
X77302380Y-130650476D02*
X77302380Y-130079047D01*
X77302380Y-130364761D02*
X76302380Y-130364761D01*
X76445238Y-130269523D01*
X76540476Y-130174285D01*
X76588095Y-130079047D01*
X74932380Y-128051904D02*
X73932380Y-128051904D01*
X73932380Y-128432857D01*
X73980000Y-128528095D01*
X74027619Y-128575714D01*
X74122857Y-128623333D01*
X74265714Y-128623333D01*
X74360952Y-128575714D01*
X74408571Y-128528095D01*
X74456190Y-128432857D01*
X74456190Y-128051904D01*
X74837142Y-129623333D02*
X74884761Y-129575714D01*
X74932380Y-129432857D01*
X74932380Y-129337619D01*
X74884761Y-129194761D01*
X74789523Y-129099523D01*
X74694285Y-129051904D01*
X74503809Y-129004285D01*
X74360952Y-129004285D01*
X74170476Y-129051904D01*
X74075238Y-129099523D01*
X73980000Y-129194761D01*
X73932380Y-129337619D01*
X73932380Y-129432857D01*
X73980000Y-129575714D01*
X74027619Y-129623333D01*
X74265714Y-130480476D02*
X74932380Y-130480476D01*
X73884761Y-130242380D02*
X74599047Y-130004285D01*
X74599047Y-130623333D01*
X72432380Y-127941904D02*
X71432380Y-127941904D01*
X71432380Y-128322857D01*
X71480000Y-128418095D01*
X71527619Y-128465714D01*
X71622857Y-128513333D01*
X71765714Y-128513333D01*
X71860952Y-128465714D01*
X71908571Y-128418095D01*
X71956190Y-128322857D01*
X71956190Y-127941904D01*
X72337142Y-129513333D02*
X72384761Y-129465714D01*
X72432380Y-129322857D01*
X72432380Y-129227619D01*
X72384761Y-129084761D01*
X72289523Y-128989523D01*
X72194285Y-128941904D01*
X72003809Y-128894285D01*
X71860952Y-128894285D01*
X71670476Y-128941904D01*
X71575238Y-128989523D01*
X71480000Y-129084761D01*
X71432380Y-129227619D01*
X71432380Y-129322857D01*
X71480000Y-129465714D01*
X71527619Y-129513333D01*
X71432380Y-129846666D02*
X71432380Y-130465714D01*
X71813333Y-130132380D01*
X71813333Y-130275238D01*
X71860952Y-130370476D01*
X71908571Y-130418095D01*
X72003809Y-130465714D01*
X72241904Y-130465714D01*
X72337142Y-130418095D01*
X72384761Y-130370476D01*
X72432380Y-130275238D01*
X72432380Y-129989523D01*
X72384761Y-129894285D01*
X72337142Y-129846666D01*
X68992380Y-128141904D02*
X68992380Y-128760952D01*
X69373333Y-128427619D01*
X69373333Y-128570476D01*
X69420952Y-128665714D01*
X69468571Y-128713333D01*
X69563809Y-128760952D01*
X69801904Y-128760952D01*
X69897142Y-128713333D01*
X69944761Y-128665714D01*
X69992380Y-128570476D01*
X69992380Y-128284761D01*
X69944761Y-128189523D01*
X69897142Y-128141904D01*
X68992380Y-129046666D02*
X69992380Y-129380000D01*
X68992380Y-129713333D01*
X68992380Y-129951428D02*
X68992380Y-130570476D01*
X69373333Y-130237142D01*
X69373333Y-130380000D01*
X69420952Y-130475238D01*
X69468571Y-130522857D01*
X69563809Y-130570476D01*
X69801904Y-130570476D01*
X69897142Y-130522857D01*
X69944761Y-130475238D01*
X69992380Y-130380000D01*
X69992380Y-130094285D01*
X69944761Y-129999047D01*
X69897142Y-129951428D01*
X66310000Y-128268095D02*
X66262380Y-128172857D01*
X66262380Y-128030000D01*
X66310000Y-127887142D01*
X66405238Y-127791904D01*
X66500476Y-127744285D01*
X66690952Y-127696666D01*
X66833809Y-127696666D01*
X67024285Y-127744285D01*
X67119523Y-127791904D01*
X67214761Y-127887142D01*
X67262380Y-128030000D01*
X67262380Y-128125238D01*
X67214761Y-128268095D01*
X67167142Y-128315714D01*
X66833809Y-128315714D01*
X66833809Y-128125238D01*
X67262380Y-128744285D02*
X66262380Y-128744285D01*
X67262380Y-129315714D01*
X66262380Y-129315714D01*
X67262380Y-129791904D02*
X66262380Y-129791904D01*
X66262380Y-130030000D01*
X66310000Y-130172857D01*
X66405238Y-130268095D01*
X66500476Y-130315714D01*
X66690952Y-130363333D01*
X66833809Y-130363333D01*
X67024285Y-130315714D01*
X67119523Y-130268095D01*
X67214761Y-130172857D01*
X67262380Y-130030000D01*
X67262380Y-129791904D01*
X115460000Y-51881904D02*
X115507619Y-51977142D01*
X115507619Y-52120000D01*
X115460000Y-52262857D01*
X115364761Y-52358095D01*
X115269523Y-52405714D01*
X115079047Y-52453333D01*
X114936190Y-52453333D01*
X114745714Y-52405714D01*
X114650476Y-52358095D01*
X114555238Y-52262857D01*
X114507619Y-52120000D01*
X114507619Y-52024761D01*
X114555238Y-51881904D01*
X114602857Y-51834285D01*
X114936190Y-51834285D01*
X114936190Y-52024761D01*
X114507619Y-51405714D02*
X115507619Y-51405714D01*
X114507619Y-50834285D01*
X115507619Y-50834285D01*
X114507619Y-50358095D02*
X115507619Y-50358095D01*
X115507619Y-50120000D01*
X115460000Y-49977142D01*
X115364761Y-49881904D01*
X115269523Y-49834285D01*
X115079047Y-49786666D01*
X114936190Y-49786666D01*
X114745714Y-49834285D01*
X114650476Y-49881904D01*
X114555238Y-49977142D01*
X114507619Y-50120000D01*
X114507619Y-50358095D01*
X115320000Y-43041904D02*
X115367619Y-43137142D01*
X115367619Y-43280000D01*
X115320000Y-43422857D01*
X115224761Y-43518095D01*
X115129523Y-43565714D01*
X114939047Y-43613333D01*
X114796190Y-43613333D01*
X114605714Y-43565714D01*
X114510476Y-43518095D01*
X114415238Y-43422857D01*
X114367619Y-43280000D01*
X114367619Y-43184761D01*
X114415238Y-43041904D01*
X114462857Y-42994285D01*
X114796190Y-42994285D01*
X114796190Y-43184761D01*
X114367619Y-42565714D02*
X115367619Y-42565714D01*
X114367619Y-41994285D01*
X115367619Y-41994285D01*
X114367619Y-41518095D02*
X115367619Y-41518095D01*
X115367619Y-41280000D01*
X115320000Y-41137142D01*
X115224761Y-41041904D01*
X115129523Y-40994285D01*
X114939047Y-40946666D01*
X114796190Y-40946666D01*
X114605714Y-40994285D01*
X114510476Y-41041904D01*
X114415238Y-41137142D01*
X114367619Y-41280000D01*
X114367619Y-41518095D01*
X112940000Y-51811904D02*
X112987619Y-51907142D01*
X112987619Y-52050000D01*
X112940000Y-52192857D01*
X112844761Y-52288095D01*
X112749523Y-52335714D01*
X112559047Y-52383333D01*
X112416190Y-52383333D01*
X112225714Y-52335714D01*
X112130476Y-52288095D01*
X112035238Y-52192857D01*
X111987619Y-52050000D01*
X111987619Y-51954761D01*
X112035238Y-51811904D01*
X112082857Y-51764285D01*
X112416190Y-51764285D01*
X112416190Y-51954761D01*
X111987619Y-51335714D02*
X112987619Y-51335714D01*
X111987619Y-50764285D01*
X112987619Y-50764285D01*
X111987619Y-50288095D02*
X112987619Y-50288095D01*
X112987619Y-50050000D01*
X112940000Y-49907142D01*
X112844761Y-49811904D01*
X112749523Y-49764285D01*
X112559047Y-49716666D01*
X112416190Y-49716666D01*
X112225714Y-49764285D01*
X112130476Y-49811904D01*
X112035238Y-49907142D01*
X111987619Y-50050000D01*
X111987619Y-50288095D01*
X113070000Y-43421904D02*
X113117619Y-43517142D01*
X113117619Y-43660000D01*
X113070000Y-43802857D01*
X112974761Y-43898095D01*
X112879523Y-43945714D01*
X112689047Y-43993333D01*
X112546190Y-43993333D01*
X112355714Y-43945714D01*
X112260476Y-43898095D01*
X112165238Y-43802857D01*
X112117619Y-43660000D01*
X112117619Y-43564761D01*
X112165238Y-43421904D01*
X112212857Y-43374285D01*
X112546190Y-43374285D01*
X112546190Y-43564761D01*
X112117619Y-42945714D02*
X113117619Y-42945714D01*
X112117619Y-42374285D01*
X113117619Y-42374285D01*
X112117619Y-41898095D02*
X113117619Y-41898095D01*
X113117619Y-41660000D01*
X113070000Y-41517142D01*
X112974761Y-41421904D01*
X112879523Y-41374285D01*
X112689047Y-41326666D01*
X112546190Y-41326666D01*
X112355714Y-41374285D01*
X112260476Y-41421904D01*
X112165238Y-41517142D01*
X112117619Y-41660000D01*
X112117619Y-41898095D01*
X110527619Y-52268095D02*
X110527619Y-51649047D01*
X110146666Y-51982380D01*
X110146666Y-51839523D01*
X110099047Y-51744285D01*
X110051428Y-51696666D01*
X109956190Y-51649047D01*
X109718095Y-51649047D01*
X109622857Y-51696666D01*
X109575238Y-51744285D01*
X109527619Y-51839523D01*
X109527619Y-52125238D01*
X109575238Y-52220476D01*
X109622857Y-52268095D01*
X110527619Y-51363333D02*
X109527619Y-51030000D01*
X110527619Y-50696666D01*
X110527619Y-50458571D02*
X110527619Y-49839523D01*
X110146666Y-50172857D01*
X110146666Y-50030000D01*
X110099047Y-49934761D01*
X110051428Y-49887142D01*
X109956190Y-49839523D01*
X109718095Y-49839523D01*
X109622857Y-49887142D01*
X109575238Y-49934761D01*
X109527619Y-50030000D01*
X109527619Y-50315714D01*
X109575238Y-50410952D01*
X109622857Y-50458571D01*
X110517619Y-43628095D02*
X110517619Y-43009047D01*
X110136666Y-43342380D01*
X110136666Y-43199523D01*
X110089047Y-43104285D01*
X110041428Y-43056666D01*
X109946190Y-43009047D01*
X109708095Y-43009047D01*
X109612857Y-43056666D01*
X109565238Y-43104285D01*
X109517619Y-43199523D01*
X109517619Y-43485238D01*
X109565238Y-43580476D01*
X109612857Y-43628095D01*
X110517619Y-42723333D02*
X109517619Y-42390000D01*
X110517619Y-42056666D01*
X110517619Y-41818571D02*
X110517619Y-41199523D01*
X110136666Y-41532857D01*
X110136666Y-41390000D01*
X110089047Y-41294761D01*
X110041428Y-41247142D01*
X109946190Y-41199523D01*
X109708095Y-41199523D01*
X109612857Y-41247142D01*
X109565238Y-41294761D01*
X109517619Y-41390000D01*
X109517619Y-41675714D01*
X109565238Y-41770952D01*
X109612857Y-41818571D01*
X107867619Y-52158095D02*
X107867619Y-51539047D01*
X107486666Y-51872380D01*
X107486666Y-51729523D01*
X107439047Y-51634285D01*
X107391428Y-51586666D01*
X107296190Y-51539047D01*
X107058095Y-51539047D01*
X106962857Y-51586666D01*
X106915238Y-51634285D01*
X106867619Y-51729523D01*
X106867619Y-52015238D01*
X106915238Y-52110476D01*
X106962857Y-52158095D01*
X107867619Y-51253333D02*
X106867619Y-50920000D01*
X107867619Y-50586666D01*
X107867619Y-50348571D02*
X107867619Y-49729523D01*
X107486666Y-50062857D01*
X107486666Y-49920000D01*
X107439047Y-49824761D01*
X107391428Y-49777142D01*
X107296190Y-49729523D01*
X107058095Y-49729523D01*
X106962857Y-49777142D01*
X106915238Y-49824761D01*
X106867619Y-49920000D01*
X106867619Y-50205714D01*
X106915238Y-50300952D01*
X106962857Y-50348571D01*
X107947619Y-42330476D02*
X107947619Y-42806666D01*
X107471428Y-42854285D01*
X107519047Y-42806666D01*
X107566666Y-42711428D01*
X107566666Y-42473333D01*
X107519047Y-42378095D01*
X107471428Y-42330476D01*
X107376190Y-42282857D01*
X107138095Y-42282857D01*
X107042857Y-42330476D01*
X106995238Y-42378095D01*
X106947619Y-42473333D01*
X106947619Y-42711428D01*
X106995238Y-42806666D01*
X107042857Y-42854285D01*
X107947619Y-41997142D02*
X106947619Y-41663809D01*
X107947619Y-41330476D01*
X104267619Y-51991904D02*
X105267619Y-51991904D01*
X105267619Y-51610952D01*
X105220000Y-51515714D01*
X105172380Y-51468095D01*
X105077142Y-51420476D01*
X104934285Y-51420476D01*
X104839047Y-51468095D01*
X104791428Y-51515714D01*
X104743809Y-51610952D01*
X104743809Y-51991904D01*
X104267619Y-50991904D02*
X105267619Y-50991904D01*
X104791428Y-50991904D02*
X104791428Y-50420476D01*
X104267619Y-50420476D02*
X105267619Y-50420476D01*
X105267619Y-50039523D02*
X105267619Y-49420476D01*
X104886666Y-49753809D01*
X104886666Y-49610952D01*
X104839047Y-49515714D01*
X104791428Y-49468095D01*
X104696190Y-49420476D01*
X104458095Y-49420476D01*
X104362857Y-49468095D01*
X104315238Y-49515714D01*
X104267619Y-49610952D01*
X104267619Y-49896666D01*
X104315238Y-49991904D01*
X104362857Y-50039523D01*
X105537619Y-42500476D02*
X105537619Y-42976666D01*
X105061428Y-43024285D01*
X105109047Y-42976666D01*
X105156666Y-42881428D01*
X105156666Y-42643333D01*
X105109047Y-42548095D01*
X105061428Y-42500476D01*
X104966190Y-42452857D01*
X104728095Y-42452857D01*
X104632857Y-42500476D01*
X104585238Y-42548095D01*
X104537619Y-42643333D01*
X104537619Y-42881428D01*
X104585238Y-42976666D01*
X104632857Y-43024285D01*
X105537619Y-42167142D02*
X104537619Y-41833809D01*
X105537619Y-41500476D01*
X101937619Y-43648095D02*
X102937619Y-43648095D01*
X102937619Y-43267142D01*
X102890000Y-43171904D01*
X102842380Y-43124285D01*
X102747142Y-43076666D01*
X102604285Y-43076666D01*
X102509047Y-43124285D01*
X102461428Y-43171904D01*
X102413809Y-43267142D01*
X102413809Y-43648095D01*
X102890000Y-42124285D02*
X102937619Y-42219523D01*
X102937619Y-42362380D01*
X102890000Y-42505238D01*
X102794761Y-42600476D01*
X102699523Y-42648095D01*
X102509047Y-42695714D01*
X102366190Y-42695714D01*
X102175714Y-42648095D01*
X102080476Y-42600476D01*
X101985238Y-42505238D01*
X101937619Y-42362380D01*
X101937619Y-42267142D01*
X101985238Y-42124285D01*
X102032857Y-42076666D01*
X102366190Y-42076666D01*
X102366190Y-42267142D01*
X102842380Y-41695714D02*
X102890000Y-41648095D01*
X102937619Y-41552857D01*
X102937619Y-41314761D01*
X102890000Y-41219523D01*
X102842380Y-41171904D01*
X102747142Y-41124285D01*
X102651904Y-41124285D01*
X102509047Y-41171904D01*
X101937619Y-41743333D01*
X101937619Y-41124285D01*
X101577619Y-51938095D02*
X102577619Y-51938095D01*
X102577619Y-51557142D01*
X102530000Y-51461904D01*
X102482380Y-51414285D01*
X102387142Y-51366666D01*
X102244285Y-51366666D01*
X102149047Y-51414285D01*
X102101428Y-51461904D01*
X102053809Y-51557142D01*
X102053809Y-51938095D01*
X101577619Y-50938095D02*
X102577619Y-50938095D01*
X101577619Y-50366666D02*
X102149047Y-50795238D01*
X102577619Y-50366666D02*
X102006190Y-50938095D01*
X102482380Y-49985714D02*
X102530000Y-49938095D01*
X102577619Y-49842857D01*
X102577619Y-49604761D01*
X102530000Y-49509523D01*
X102482380Y-49461904D01*
X102387142Y-49414285D01*
X102291904Y-49414285D01*
X102149047Y-49461904D01*
X101577619Y-50033333D01*
X101577619Y-49414285D01*
X99657619Y-43278095D02*
X100657619Y-43278095D01*
X100657619Y-42897142D01*
X100610000Y-42801904D01*
X100562380Y-42754285D01*
X100467142Y-42706666D01*
X100324285Y-42706666D01*
X100229047Y-42754285D01*
X100181428Y-42801904D01*
X100133809Y-42897142D01*
X100133809Y-43278095D01*
X99657619Y-42278095D02*
X100657619Y-42278095D01*
X99657619Y-41706666D02*
X100229047Y-42135238D01*
X100657619Y-41706666D02*
X100086190Y-42278095D01*
X99657619Y-40754285D02*
X99657619Y-41325714D01*
X99657619Y-41040000D02*
X100657619Y-41040000D01*
X100514761Y-41135238D01*
X100419523Y-41230476D01*
X100371904Y-41325714D01*
X99207619Y-51828095D02*
X100207619Y-51828095D01*
X100207619Y-51447142D01*
X100160000Y-51351904D01*
X100112380Y-51304285D01*
X100017142Y-51256666D01*
X99874285Y-51256666D01*
X99779047Y-51304285D01*
X99731428Y-51351904D01*
X99683809Y-51447142D01*
X99683809Y-51828095D01*
X99207619Y-50828095D02*
X100207619Y-50828095D01*
X99207619Y-50256666D02*
X99779047Y-50685238D01*
X100207619Y-50256666D02*
X99636190Y-50828095D01*
X100207619Y-49637619D02*
X100207619Y-49542380D01*
X100160000Y-49447142D01*
X100112380Y-49399523D01*
X100017142Y-49351904D01*
X99826666Y-49304285D01*
X99588571Y-49304285D01*
X99398095Y-49351904D01*
X99302857Y-49399523D01*
X99255238Y-49447142D01*
X99207619Y-49542380D01*
X99207619Y-49637619D01*
X99255238Y-49732857D01*
X99302857Y-49780476D01*
X99398095Y-49828095D01*
X99588571Y-49875714D01*
X99826666Y-49875714D01*
X100017142Y-49828095D01*
X100112380Y-49780476D01*
X100160000Y-49732857D01*
X100207619Y-49637619D01*
X96877619Y-43478095D02*
X97877619Y-43478095D01*
X97877619Y-43097142D01*
X97830000Y-43001904D01*
X97782380Y-42954285D01*
X97687142Y-42906666D01*
X97544285Y-42906666D01*
X97449047Y-42954285D01*
X97401428Y-43001904D01*
X97353809Y-43097142D01*
X97353809Y-43478095D01*
X97830000Y-41954285D02*
X97877619Y-42049523D01*
X97877619Y-42192380D01*
X97830000Y-42335238D01*
X97734761Y-42430476D01*
X97639523Y-42478095D01*
X97449047Y-42525714D01*
X97306190Y-42525714D01*
X97115714Y-42478095D01*
X97020476Y-42430476D01*
X96925238Y-42335238D01*
X96877619Y-42192380D01*
X96877619Y-42097142D01*
X96925238Y-41954285D01*
X96972857Y-41906666D01*
X97306190Y-41906666D01*
X97306190Y-42097142D01*
X97544285Y-41049523D02*
X96877619Y-41049523D01*
X97925238Y-41287619D02*
X97210952Y-41525714D01*
X97210952Y-40906666D01*
X96837619Y-52612857D02*
X97837619Y-52612857D01*
X97837619Y-52231904D01*
X97790000Y-52136666D01*
X97742380Y-52089047D01*
X97647142Y-52041428D01*
X97504285Y-52041428D01*
X97409047Y-52089047D01*
X97361428Y-52136666D01*
X97313809Y-52231904D01*
X97313809Y-52612857D01*
X97123333Y-51660476D02*
X97123333Y-51184285D01*
X96837619Y-51755714D02*
X97837619Y-51422380D01*
X96837619Y-51089047D01*
X96837619Y-50231904D02*
X96837619Y-50803333D01*
X96837619Y-50517619D02*
X97837619Y-50517619D01*
X97694761Y-50612857D01*
X97599523Y-50708095D01*
X97551904Y-50803333D01*
X97837619Y-49327142D02*
X97837619Y-49803333D01*
X97361428Y-49850952D01*
X97409047Y-49803333D01*
X97456666Y-49708095D01*
X97456666Y-49470000D01*
X97409047Y-49374761D01*
X97361428Y-49327142D01*
X97266190Y-49279523D01*
X97028095Y-49279523D01*
X96932857Y-49327142D01*
X96885238Y-49374761D01*
X96837619Y-49470000D01*
X96837619Y-49708095D01*
X96885238Y-49803333D01*
X96932857Y-49850952D01*
X94377619Y-51978095D02*
X95377619Y-51978095D01*
X95377619Y-51597142D01*
X95330000Y-51501904D01*
X95282380Y-51454285D01*
X95187142Y-51406666D01*
X95044285Y-51406666D01*
X94949047Y-51454285D01*
X94901428Y-51501904D01*
X94853809Y-51597142D01*
X94853809Y-51978095D01*
X94377619Y-50978095D02*
X95377619Y-50978095D01*
X95377619Y-50740000D01*
X95330000Y-50597142D01*
X95234761Y-50501904D01*
X95139523Y-50454285D01*
X94949047Y-50406666D01*
X94806190Y-50406666D01*
X94615714Y-50454285D01*
X94520476Y-50501904D01*
X94425238Y-50597142D01*
X94377619Y-50740000D01*
X94377619Y-50978095D01*
X95377619Y-50073333D02*
X95377619Y-49454285D01*
X94996666Y-49787619D01*
X94996666Y-49644761D01*
X94949047Y-49549523D01*
X94901428Y-49501904D01*
X94806190Y-49454285D01*
X94568095Y-49454285D01*
X94472857Y-49501904D01*
X94425238Y-49549523D01*
X94377619Y-49644761D01*
X94377619Y-49930476D01*
X94425238Y-50025714D01*
X94472857Y-50073333D01*
X94337619Y-43458095D02*
X95337619Y-43458095D01*
X95337619Y-43077142D01*
X95290000Y-42981904D01*
X95242380Y-42934285D01*
X95147142Y-42886666D01*
X95004285Y-42886666D01*
X94909047Y-42934285D01*
X94861428Y-42981904D01*
X94813809Y-43077142D01*
X94813809Y-43458095D01*
X94337619Y-42458095D02*
X95337619Y-42458095D01*
X95337619Y-42220000D01*
X95290000Y-42077142D01*
X95194761Y-41981904D01*
X95099523Y-41934285D01*
X94909047Y-41886666D01*
X94766190Y-41886666D01*
X94575714Y-41934285D01*
X94480476Y-41981904D01*
X94385238Y-42077142D01*
X94337619Y-42220000D01*
X94337619Y-42458095D01*
X95004285Y-41029523D02*
X94337619Y-41029523D01*
X95385238Y-41267619D02*
X94670952Y-41505714D01*
X94670952Y-40886666D01*
X91687619Y-43498095D02*
X92687619Y-43498095D01*
X92687619Y-43117142D01*
X92640000Y-43021904D01*
X92592380Y-42974285D01*
X92497142Y-42926666D01*
X92354285Y-42926666D01*
X92259047Y-42974285D01*
X92211428Y-43021904D01*
X92163809Y-43117142D01*
X92163809Y-43498095D01*
X91687619Y-42498095D02*
X92687619Y-42498095D01*
X92687619Y-42260000D01*
X92640000Y-42117142D01*
X92544761Y-42021904D01*
X92449523Y-41974285D01*
X92259047Y-41926666D01*
X92116190Y-41926666D01*
X91925714Y-41974285D01*
X91830476Y-42021904D01*
X91735238Y-42117142D01*
X91687619Y-42260000D01*
X91687619Y-42498095D01*
X92687619Y-41021904D02*
X92687619Y-41498095D01*
X92211428Y-41545714D01*
X92259047Y-41498095D01*
X92306666Y-41402857D01*
X92306666Y-41164761D01*
X92259047Y-41069523D01*
X92211428Y-41021904D01*
X92116190Y-40974285D01*
X91878095Y-40974285D01*
X91782857Y-41021904D01*
X91735238Y-41069523D01*
X91687619Y-41164761D01*
X91687619Y-41402857D01*
X91735238Y-41498095D01*
X91782857Y-41545714D01*
X89267619Y-43674285D02*
X90267619Y-43674285D01*
X90267619Y-43293333D01*
X90220000Y-43198095D01*
X90172380Y-43150476D01*
X90077142Y-43102857D01*
X89934285Y-43102857D01*
X89839047Y-43150476D01*
X89791428Y-43198095D01*
X89743809Y-43293333D01*
X89743809Y-43674285D01*
X90220000Y-42150476D02*
X90267619Y-42245714D01*
X90267619Y-42388571D01*
X90220000Y-42531428D01*
X90124761Y-42626666D01*
X90029523Y-42674285D01*
X89839047Y-42721904D01*
X89696190Y-42721904D01*
X89505714Y-42674285D01*
X89410476Y-42626666D01*
X89315238Y-42531428D01*
X89267619Y-42388571D01*
X89267619Y-42293333D01*
X89315238Y-42150476D01*
X89362857Y-42102857D01*
X89696190Y-42102857D01*
X89696190Y-42293333D01*
X89267619Y-41150476D02*
X89267619Y-41721904D01*
X89267619Y-41436190D02*
X90267619Y-41436190D01*
X90124761Y-41531428D01*
X90029523Y-41626666D01*
X89981904Y-41721904D01*
X90267619Y-40817142D02*
X90267619Y-40198095D01*
X89886666Y-40531428D01*
X89886666Y-40388571D01*
X89839047Y-40293333D01*
X89791428Y-40245714D01*
X89696190Y-40198095D01*
X89458095Y-40198095D01*
X89362857Y-40245714D01*
X89315238Y-40293333D01*
X89267619Y-40388571D01*
X89267619Y-40674285D01*
X89315238Y-40769523D01*
X89362857Y-40817142D01*
X91617619Y-51938095D02*
X92617619Y-51938095D01*
X92617619Y-51557142D01*
X92570000Y-51461904D01*
X92522380Y-51414285D01*
X92427142Y-51366666D01*
X92284285Y-51366666D01*
X92189047Y-51414285D01*
X92141428Y-51461904D01*
X92093809Y-51557142D01*
X92093809Y-51938095D01*
X91617619Y-50938095D02*
X92617619Y-50938095D01*
X92617619Y-50700000D01*
X92570000Y-50557142D01*
X92474761Y-50461904D01*
X92379523Y-50414285D01*
X92189047Y-50366666D01*
X92046190Y-50366666D01*
X91855714Y-50414285D01*
X91760476Y-50461904D01*
X91665238Y-50557142D01*
X91617619Y-50700000D01*
X91617619Y-50938095D01*
X92617619Y-49509523D02*
X92617619Y-49700000D01*
X92570000Y-49795238D01*
X92522380Y-49842857D01*
X92379523Y-49938095D01*
X92189047Y-49985714D01*
X91808095Y-49985714D01*
X91712857Y-49938095D01*
X91665238Y-49890476D01*
X91617619Y-49795238D01*
X91617619Y-49604761D01*
X91665238Y-49509523D01*
X91712857Y-49461904D01*
X91808095Y-49414285D01*
X92046190Y-49414285D01*
X92141428Y-49461904D01*
X92189047Y-49509523D01*
X92236666Y-49604761D01*
X92236666Y-49795238D01*
X92189047Y-49890476D01*
X92141428Y-49938095D01*
X92046190Y-49985714D01*
X89227619Y-52964285D02*
X90227619Y-52964285D01*
X90227619Y-52583333D01*
X90180000Y-52488095D01*
X90132380Y-52440476D01*
X90037142Y-52392857D01*
X89894285Y-52392857D01*
X89799047Y-52440476D01*
X89751428Y-52488095D01*
X89703809Y-52583333D01*
X89703809Y-52964285D01*
X90180000Y-51440476D02*
X90227619Y-51535714D01*
X90227619Y-51678571D01*
X90180000Y-51821428D01*
X90084761Y-51916666D01*
X89989523Y-51964285D01*
X89799047Y-52011904D01*
X89656190Y-52011904D01*
X89465714Y-51964285D01*
X89370476Y-51916666D01*
X89275238Y-51821428D01*
X89227619Y-51678571D01*
X89227619Y-51583333D01*
X89275238Y-51440476D01*
X89322857Y-51392857D01*
X89656190Y-51392857D01*
X89656190Y-51583333D01*
X89227619Y-50440476D02*
X89227619Y-51011904D01*
X89227619Y-50726190D02*
X90227619Y-50726190D01*
X90084761Y-50821428D01*
X89989523Y-50916666D01*
X89941904Y-51011904D01*
X89894285Y-49583333D02*
X89227619Y-49583333D01*
X90275238Y-49821428D02*
X89560952Y-50059523D01*
X89560952Y-49440476D01*
X86557619Y-51888095D02*
X87557619Y-51888095D01*
X87557619Y-51507142D01*
X87510000Y-51411904D01*
X87462380Y-51364285D01*
X87367142Y-51316666D01*
X87224285Y-51316666D01*
X87129047Y-51364285D01*
X87081428Y-51411904D01*
X87033809Y-51507142D01*
X87033809Y-51888095D01*
X87081428Y-50554761D02*
X87033809Y-50411904D01*
X86986190Y-50364285D01*
X86890952Y-50316666D01*
X86748095Y-50316666D01*
X86652857Y-50364285D01*
X86605238Y-50411904D01*
X86557619Y-50507142D01*
X86557619Y-50888095D01*
X87557619Y-50888095D01*
X87557619Y-50554761D01*
X87510000Y-50459523D01*
X87462380Y-50411904D01*
X87367142Y-50364285D01*
X87271904Y-50364285D01*
X87176666Y-50411904D01*
X87129047Y-50459523D01*
X87081428Y-50554761D01*
X87081428Y-50888095D01*
X87557619Y-49983333D02*
X87557619Y-49364285D01*
X87176666Y-49697619D01*
X87176666Y-49554761D01*
X87129047Y-49459523D01*
X87081428Y-49411904D01*
X86986190Y-49364285D01*
X86748095Y-49364285D01*
X86652857Y-49411904D01*
X86605238Y-49459523D01*
X86557619Y-49554761D01*
X86557619Y-49840476D01*
X86605238Y-49935714D01*
X86652857Y-49983333D01*
X84297619Y-51918095D02*
X85297619Y-51918095D01*
X85297619Y-51537142D01*
X85250000Y-51441904D01*
X85202380Y-51394285D01*
X85107142Y-51346666D01*
X84964285Y-51346666D01*
X84869047Y-51394285D01*
X84821428Y-51441904D01*
X84773809Y-51537142D01*
X84773809Y-51918095D01*
X84821428Y-50584761D02*
X84773809Y-50441904D01*
X84726190Y-50394285D01*
X84630952Y-50346666D01*
X84488095Y-50346666D01*
X84392857Y-50394285D01*
X84345238Y-50441904D01*
X84297619Y-50537142D01*
X84297619Y-50918095D01*
X85297619Y-50918095D01*
X85297619Y-50584761D01*
X85250000Y-50489523D01*
X85202380Y-50441904D01*
X85107142Y-50394285D01*
X85011904Y-50394285D01*
X84916666Y-50441904D01*
X84869047Y-50489523D01*
X84821428Y-50584761D01*
X84821428Y-50918095D01*
X85297619Y-49441904D02*
X85297619Y-49918095D01*
X84821428Y-49965714D01*
X84869047Y-49918095D01*
X84916666Y-49822857D01*
X84916666Y-49584761D01*
X84869047Y-49489523D01*
X84821428Y-49441904D01*
X84726190Y-49394285D01*
X84488095Y-49394285D01*
X84392857Y-49441904D01*
X84345238Y-49489523D01*
X84297619Y-49584761D01*
X84297619Y-49822857D01*
X84345238Y-49918095D01*
X84392857Y-49965714D01*
X81307619Y-51958095D02*
X82307619Y-51958095D01*
X82307619Y-51577142D01*
X82260000Y-51481904D01*
X82212380Y-51434285D01*
X82117142Y-51386666D01*
X81974285Y-51386666D01*
X81879047Y-51434285D01*
X81831428Y-51481904D01*
X81783809Y-51577142D01*
X81783809Y-51958095D01*
X81831428Y-50624761D02*
X81783809Y-50481904D01*
X81736190Y-50434285D01*
X81640952Y-50386666D01*
X81498095Y-50386666D01*
X81402857Y-50434285D01*
X81355238Y-50481904D01*
X81307619Y-50577142D01*
X81307619Y-50958095D01*
X82307619Y-50958095D01*
X82307619Y-50624761D01*
X82260000Y-50529523D01*
X82212380Y-50481904D01*
X82117142Y-50434285D01*
X82021904Y-50434285D01*
X81926666Y-50481904D01*
X81879047Y-50529523D01*
X81831428Y-50624761D01*
X81831428Y-50958095D01*
X82307619Y-50053333D02*
X82307619Y-49386666D01*
X81307619Y-49815238D01*
X86707619Y-43744285D02*
X87707619Y-43744285D01*
X87707619Y-43363333D01*
X87660000Y-43268095D01*
X87612380Y-43220476D01*
X87517142Y-43172857D01*
X87374285Y-43172857D01*
X87279047Y-43220476D01*
X87231428Y-43268095D01*
X87183809Y-43363333D01*
X87183809Y-43744285D01*
X87660000Y-42220476D02*
X87707619Y-42315714D01*
X87707619Y-42458571D01*
X87660000Y-42601428D01*
X87564761Y-42696666D01*
X87469523Y-42744285D01*
X87279047Y-42791904D01*
X87136190Y-42791904D01*
X86945714Y-42744285D01*
X86850476Y-42696666D01*
X86755238Y-42601428D01*
X86707619Y-42458571D01*
X86707619Y-42363333D01*
X86755238Y-42220476D01*
X86802857Y-42172857D01*
X87136190Y-42172857D01*
X87136190Y-42363333D01*
X86707619Y-41220476D02*
X86707619Y-41791904D01*
X86707619Y-41506190D02*
X87707619Y-41506190D01*
X87564761Y-41601428D01*
X87469523Y-41696666D01*
X87421904Y-41791904D01*
X87707619Y-40315714D02*
X87707619Y-40791904D01*
X87231428Y-40839523D01*
X87279047Y-40791904D01*
X87326666Y-40696666D01*
X87326666Y-40458571D01*
X87279047Y-40363333D01*
X87231428Y-40315714D01*
X87136190Y-40268095D01*
X86898095Y-40268095D01*
X86802857Y-40315714D01*
X86755238Y-40363333D01*
X86707619Y-40458571D01*
X86707619Y-40696666D01*
X86755238Y-40791904D01*
X86802857Y-40839523D01*
X84107619Y-43418095D02*
X85107619Y-43418095D01*
X85107619Y-43037142D01*
X85060000Y-42941904D01*
X85012380Y-42894285D01*
X84917142Y-42846666D01*
X84774285Y-42846666D01*
X84679047Y-42894285D01*
X84631428Y-42941904D01*
X84583809Y-43037142D01*
X84583809Y-43418095D01*
X84631428Y-42084761D02*
X84583809Y-41941904D01*
X84536190Y-41894285D01*
X84440952Y-41846666D01*
X84298095Y-41846666D01*
X84202857Y-41894285D01*
X84155238Y-41941904D01*
X84107619Y-42037142D01*
X84107619Y-42418095D01*
X85107619Y-42418095D01*
X85107619Y-42084761D01*
X85060000Y-41989523D01*
X85012380Y-41941904D01*
X84917142Y-41894285D01*
X84821904Y-41894285D01*
X84726666Y-41941904D01*
X84679047Y-41989523D01*
X84631428Y-42084761D01*
X84631428Y-42418095D01*
X84774285Y-40989523D02*
X84107619Y-40989523D01*
X85155238Y-41227619D02*
X84440952Y-41465714D01*
X84440952Y-40846666D01*
X81597619Y-43548095D02*
X82597619Y-43548095D01*
X82597619Y-43167142D01*
X82550000Y-43071904D01*
X82502380Y-43024285D01*
X82407142Y-42976666D01*
X82264285Y-42976666D01*
X82169047Y-43024285D01*
X82121428Y-43071904D01*
X82073809Y-43167142D01*
X82073809Y-43548095D01*
X82121428Y-42214761D02*
X82073809Y-42071904D01*
X82026190Y-42024285D01*
X81930952Y-41976666D01*
X81788095Y-41976666D01*
X81692857Y-42024285D01*
X81645238Y-42071904D01*
X81597619Y-42167142D01*
X81597619Y-42548095D01*
X82597619Y-42548095D01*
X82597619Y-42214761D01*
X82550000Y-42119523D01*
X82502380Y-42071904D01*
X82407142Y-42024285D01*
X82311904Y-42024285D01*
X82216666Y-42071904D01*
X82169047Y-42119523D01*
X82121428Y-42214761D01*
X82121428Y-42548095D01*
X82597619Y-41119523D02*
X82597619Y-41310000D01*
X82550000Y-41405238D01*
X82502380Y-41452857D01*
X82359523Y-41548095D01*
X82169047Y-41595714D01*
X81788095Y-41595714D01*
X81692857Y-41548095D01*
X81645238Y-41500476D01*
X81597619Y-41405238D01*
X81597619Y-41214761D01*
X81645238Y-41119523D01*
X81692857Y-41071904D01*
X81788095Y-41024285D01*
X82026190Y-41024285D01*
X82121428Y-41071904D01*
X82169047Y-41119523D01*
X82216666Y-41214761D01*
X82216666Y-41405238D01*
X82169047Y-41500476D01*
X82121428Y-41548095D01*
X82026190Y-41595714D01*
X78997619Y-52118095D02*
X79997619Y-52118095D01*
X79997619Y-51737142D01*
X79950000Y-51641904D01*
X79902380Y-51594285D01*
X79807142Y-51546666D01*
X79664285Y-51546666D01*
X79569047Y-51594285D01*
X79521428Y-51641904D01*
X79473809Y-51737142D01*
X79473809Y-52118095D01*
X79521428Y-50784761D02*
X79473809Y-50641904D01*
X79426190Y-50594285D01*
X79330952Y-50546666D01*
X79188095Y-50546666D01*
X79092857Y-50594285D01*
X79045238Y-50641904D01*
X78997619Y-50737142D01*
X78997619Y-51118095D01*
X79997619Y-51118095D01*
X79997619Y-50784761D01*
X79950000Y-50689523D01*
X79902380Y-50641904D01*
X79807142Y-50594285D01*
X79711904Y-50594285D01*
X79616666Y-50641904D01*
X79569047Y-50689523D01*
X79521428Y-50784761D01*
X79521428Y-51118095D01*
X78997619Y-50070476D02*
X78997619Y-49880000D01*
X79045238Y-49784761D01*
X79092857Y-49737142D01*
X79235714Y-49641904D01*
X79426190Y-49594285D01*
X79807142Y-49594285D01*
X79902380Y-49641904D01*
X79950000Y-49689523D01*
X79997619Y-49784761D01*
X79997619Y-49975238D01*
X79950000Y-50070476D01*
X79902380Y-50118095D01*
X79807142Y-50165714D01*
X79569047Y-50165714D01*
X79473809Y-50118095D01*
X79426190Y-50070476D01*
X79378571Y-49975238D01*
X79378571Y-49784761D01*
X79426190Y-49689523D01*
X79473809Y-49641904D01*
X79569047Y-49594285D01*
X78877619Y-43418095D02*
X79877619Y-43418095D01*
X79877619Y-43037142D01*
X79830000Y-42941904D01*
X79782380Y-42894285D01*
X79687142Y-42846666D01*
X79544285Y-42846666D01*
X79449047Y-42894285D01*
X79401428Y-42941904D01*
X79353809Y-43037142D01*
X79353809Y-43418095D01*
X79401428Y-42084761D02*
X79353809Y-41941904D01*
X79306190Y-41894285D01*
X79210952Y-41846666D01*
X79068095Y-41846666D01*
X78972857Y-41894285D01*
X78925238Y-41941904D01*
X78877619Y-42037142D01*
X78877619Y-42418095D01*
X79877619Y-42418095D01*
X79877619Y-42084761D01*
X79830000Y-41989523D01*
X79782380Y-41941904D01*
X79687142Y-41894285D01*
X79591904Y-41894285D01*
X79496666Y-41941904D01*
X79449047Y-41989523D01*
X79401428Y-42084761D01*
X79401428Y-42418095D01*
X79449047Y-41275238D02*
X79496666Y-41370476D01*
X79544285Y-41418095D01*
X79639523Y-41465714D01*
X79687142Y-41465714D01*
X79782380Y-41418095D01*
X79830000Y-41370476D01*
X79877619Y-41275238D01*
X79877619Y-41084761D01*
X79830000Y-40989523D01*
X79782380Y-40941904D01*
X79687142Y-40894285D01*
X79639523Y-40894285D01*
X79544285Y-40941904D01*
X79496666Y-40989523D01*
X79449047Y-41084761D01*
X79449047Y-41275238D01*
X79401428Y-41370476D01*
X79353809Y-41418095D01*
X79258571Y-41465714D01*
X79068095Y-41465714D01*
X78972857Y-41418095D01*
X78925238Y-41370476D01*
X78877619Y-41275238D01*
X78877619Y-41084761D01*
X78925238Y-40989523D01*
X78972857Y-40941904D01*
X79068095Y-40894285D01*
X79258571Y-40894285D01*
X79353809Y-40941904D01*
X79401428Y-40989523D01*
X79449047Y-41084761D01*
X76447619Y-51820476D02*
X77447619Y-51820476D01*
X77447619Y-51439523D01*
X77400000Y-51344285D01*
X77352380Y-51296666D01*
X77257142Y-51249047D01*
X77114285Y-51249047D01*
X77019047Y-51296666D01*
X76971428Y-51344285D01*
X76923809Y-51439523D01*
X76923809Y-51820476D01*
X76971428Y-50820476D02*
X76971428Y-50487142D01*
X76447619Y-50344285D02*
X76447619Y-50820476D01*
X77447619Y-50820476D01*
X77447619Y-50344285D01*
X76447619Y-49391904D02*
X76447619Y-49963333D01*
X76447619Y-49677619D02*
X77447619Y-49677619D01*
X77304761Y-49772857D01*
X77209523Y-49868095D01*
X77161904Y-49963333D01*
X76607619Y-43580476D02*
X77607619Y-43580476D01*
X77607619Y-43199523D01*
X77560000Y-43104285D01*
X77512380Y-43056666D01*
X77417142Y-43009047D01*
X77274285Y-43009047D01*
X77179047Y-43056666D01*
X77131428Y-43104285D01*
X77083809Y-43199523D01*
X77083809Y-43580476D01*
X77131428Y-42580476D02*
X77131428Y-42247142D01*
X76607619Y-42104285D02*
X76607619Y-42580476D01*
X77607619Y-42580476D01*
X77607619Y-42104285D01*
X77607619Y-41485238D02*
X77607619Y-41390000D01*
X77560000Y-41294761D01*
X77512380Y-41247142D01*
X77417142Y-41199523D01*
X77226666Y-41151904D01*
X76988571Y-41151904D01*
X76798095Y-41199523D01*
X76702857Y-41247142D01*
X76655238Y-41294761D01*
X76607619Y-41390000D01*
X76607619Y-41485238D01*
X76655238Y-41580476D01*
X76702857Y-41628095D01*
X76798095Y-41675714D01*
X76988571Y-41723333D01*
X77226666Y-41723333D01*
X77417142Y-41675714D01*
X77512380Y-41628095D01*
X77560000Y-41580476D01*
X77607619Y-41485238D01*
X73697619Y-51706666D02*
X74697619Y-51706666D01*
X74697619Y-51325714D01*
X74650000Y-51230476D01*
X74602380Y-51182857D01*
X74507142Y-51135238D01*
X74364285Y-51135238D01*
X74269047Y-51182857D01*
X74221428Y-51230476D01*
X74173809Y-51325714D01*
X74173809Y-51706666D01*
X74221428Y-50373333D02*
X74221428Y-50706666D01*
X73697619Y-50706666D02*
X74697619Y-50706666D01*
X74697619Y-50230476D01*
X73697619Y-49801904D02*
X73697619Y-49611428D01*
X73745238Y-49516190D01*
X73792857Y-49468571D01*
X73935714Y-49373333D01*
X74126190Y-49325714D01*
X74507142Y-49325714D01*
X74602380Y-49373333D01*
X74650000Y-49420952D01*
X74697619Y-49516190D01*
X74697619Y-49706666D01*
X74650000Y-49801904D01*
X74602380Y-49849523D01*
X74507142Y-49897142D01*
X74269047Y-49897142D01*
X74173809Y-49849523D01*
X74126190Y-49801904D01*
X74078571Y-49706666D01*
X74078571Y-49516190D01*
X74126190Y-49420952D01*
X74173809Y-49373333D01*
X74269047Y-49325714D01*
X73787619Y-44062857D02*
X74787619Y-44062857D01*
X74787619Y-43681904D01*
X74740000Y-43586666D01*
X74692380Y-43539047D01*
X74597142Y-43491428D01*
X74454285Y-43491428D01*
X74359047Y-43539047D01*
X74311428Y-43586666D01*
X74263809Y-43681904D01*
X74263809Y-44062857D01*
X74311428Y-42729523D02*
X74311428Y-43062857D01*
X73787619Y-43062857D02*
X74787619Y-43062857D01*
X74787619Y-42586666D01*
X73787619Y-41681904D02*
X73787619Y-42253333D01*
X73787619Y-41967619D02*
X74787619Y-41967619D01*
X74644761Y-42062857D01*
X74549523Y-42158095D01*
X74501904Y-42253333D01*
X74787619Y-41062857D02*
X74787619Y-40967619D01*
X74740000Y-40872380D01*
X74692380Y-40824761D01*
X74597142Y-40777142D01*
X74406666Y-40729523D01*
X74168571Y-40729523D01*
X73978095Y-40777142D01*
X73882857Y-40824761D01*
X73835238Y-40872380D01*
X73787619Y-40967619D01*
X73787619Y-41062857D01*
X73835238Y-41158095D01*
X73882857Y-41205714D01*
X73978095Y-41253333D01*
X74168571Y-41300952D01*
X74406666Y-41300952D01*
X74597142Y-41253333D01*
X74692380Y-41205714D01*
X74740000Y-41158095D01*
X74787619Y-41062857D01*
X71057619Y-51596666D02*
X72057619Y-51596666D01*
X72057619Y-51215714D01*
X72010000Y-51120476D01*
X71962380Y-51072857D01*
X71867142Y-51025238D01*
X71724285Y-51025238D01*
X71629047Y-51072857D01*
X71581428Y-51120476D01*
X71533809Y-51215714D01*
X71533809Y-51596666D01*
X71581428Y-50263333D02*
X71581428Y-50596666D01*
X71057619Y-50596666D02*
X72057619Y-50596666D01*
X72057619Y-50120476D01*
X72057619Y-49263333D02*
X72057619Y-49739523D01*
X71581428Y-49787142D01*
X71629047Y-49739523D01*
X71676666Y-49644285D01*
X71676666Y-49406190D01*
X71629047Y-49310952D01*
X71581428Y-49263333D01*
X71486190Y-49215714D01*
X71248095Y-49215714D01*
X71152857Y-49263333D01*
X71105238Y-49310952D01*
X71057619Y-49406190D01*
X71057619Y-49644285D01*
X71105238Y-49739523D01*
X71152857Y-49787142D01*
X71367619Y-43676666D02*
X72367619Y-43676666D01*
X72367619Y-43295714D01*
X72320000Y-43200476D01*
X72272380Y-43152857D01*
X72177142Y-43105238D01*
X72034285Y-43105238D01*
X71939047Y-43152857D01*
X71891428Y-43200476D01*
X71843809Y-43295714D01*
X71843809Y-43676666D01*
X71891428Y-42343333D02*
X71891428Y-42676666D01*
X71367619Y-42676666D02*
X72367619Y-42676666D01*
X72367619Y-42200476D01*
X71939047Y-41676666D02*
X71986666Y-41771904D01*
X72034285Y-41819523D01*
X72129523Y-41867142D01*
X72177142Y-41867142D01*
X72272380Y-41819523D01*
X72320000Y-41771904D01*
X72367619Y-41676666D01*
X72367619Y-41486190D01*
X72320000Y-41390952D01*
X72272380Y-41343333D01*
X72177142Y-41295714D01*
X72129523Y-41295714D01*
X72034285Y-41343333D01*
X71986666Y-41390952D01*
X71939047Y-41486190D01*
X71939047Y-41676666D01*
X71891428Y-41771904D01*
X71843809Y-41819523D01*
X71748571Y-41867142D01*
X71558095Y-41867142D01*
X71462857Y-41819523D01*
X71415238Y-41771904D01*
X71367619Y-41676666D01*
X71367619Y-41486190D01*
X71415238Y-41390952D01*
X71462857Y-41343333D01*
X71558095Y-41295714D01*
X71748571Y-41295714D01*
X71843809Y-41343333D01*
X71891428Y-41390952D01*
X71939047Y-41486190D01*
X69570000Y-51391904D02*
X69617619Y-51487142D01*
X69617619Y-51630000D01*
X69570000Y-51772857D01*
X69474761Y-51868095D01*
X69379523Y-51915714D01*
X69189047Y-51963333D01*
X69046190Y-51963333D01*
X68855714Y-51915714D01*
X68760476Y-51868095D01*
X68665238Y-51772857D01*
X68617619Y-51630000D01*
X68617619Y-51534761D01*
X68665238Y-51391904D01*
X68712857Y-51344285D01*
X69046190Y-51344285D01*
X69046190Y-51534761D01*
X68617619Y-50915714D02*
X69617619Y-50915714D01*
X68617619Y-50344285D01*
X69617619Y-50344285D01*
X68617619Y-49868095D02*
X69617619Y-49868095D01*
X69617619Y-49630000D01*
X69570000Y-49487142D01*
X69474761Y-49391904D01*
X69379523Y-49344285D01*
X69189047Y-49296666D01*
X69046190Y-49296666D01*
X68855714Y-49344285D01*
X68760476Y-49391904D01*
X68665238Y-49487142D01*
X68617619Y-49630000D01*
X68617619Y-49868095D01*
X69550000Y-43421904D02*
X69597619Y-43517142D01*
X69597619Y-43660000D01*
X69550000Y-43802857D01*
X69454761Y-43898095D01*
X69359523Y-43945714D01*
X69169047Y-43993333D01*
X69026190Y-43993333D01*
X68835714Y-43945714D01*
X68740476Y-43898095D01*
X68645238Y-43802857D01*
X68597619Y-43660000D01*
X68597619Y-43564761D01*
X68645238Y-43421904D01*
X68692857Y-43374285D01*
X69026190Y-43374285D01*
X69026190Y-43564761D01*
X68597619Y-42945714D02*
X69597619Y-42945714D01*
X68597619Y-42374285D01*
X69597619Y-42374285D01*
X68597619Y-41898095D02*
X69597619Y-41898095D01*
X69597619Y-41660000D01*
X69550000Y-41517142D01*
X69454761Y-41421904D01*
X69359523Y-41374285D01*
X69169047Y-41326666D01*
X69026190Y-41326666D01*
X68835714Y-41374285D01*
X68740476Y-41421904D01*
X68645238Y-41517142D01*
X68597619Y-41660000D01*
X68597619Y-41898095D01*
X66067619Y-51589047D02*
X66067619Y-52160476D01*
X66067619Y-51874761D02*
X67067619Y-51874761D01*
X66924761Y-51970000D01*
X66829523Y-52065238D01*
X66781904Y-52160476D01*
X66972380Y-51208095D02*
X67020000Y-51160476D01*
X67067619Y-51065238D01*
X67067619Y-50827142D01*
X67020000Y-50731904D01*
X66972380Y-50684285D01*
X66877142Y-50636666D01*
X66781904Y-50636666D01*
X66639047Y-50684285D01*
X66067619Y-51255714D01*
X66067619Y-50636666D01*
X67067619Y-50350952D02*
X66067619Y-50017619D01*
X67067619Y-49684285D01*
X66147619Y-43519047D02*
X66147619Y-44090476D01*
X66147619Y-43804761D02*
X67147619Y-43804761D01*
X67004761Y-43900000D01*
X66909523Y-43995238D01*
X66861904Y-44090476D01*
X67052380Y-43138095D02*
X67100000Y-43090476D01*
X67147619Y-42995238D01*
X67147619Y-42757142D01*
X67100000Y-42661904D01*
X67052380Y-42614285D01*
X66957142Y-42566666D01*
X66861904Y-42566666D01*
X66719047Y-42614285D01*
X66147619Y-43185714D01*
X66147619Y-42566666D01*
X67147619Y-42280952D02*
X66147619Y-41947619D01*
X67147619Y-41614285D01*
X114190476Y-54416666D02*
X113714285Y-54416666D01*
X114285714Y-54702380D02*
X113952380Y-53702380D01*
X113619047Y-54702380D01*
X113142857Y-54702380D02*
X113238095Y-54654761D01*
X113285714Y-54559523D01*
X113285714Y-53702380D01*
X112619047Y-54702380D02*
X112714285Y-54654761D01*
X112761904Y-54559523D01*
X112761904Y-53702380D01*
X111047619Y-54654761D02*
X111142857Y-54702380D01*
X111333333Y-54702380D01*
X111428571Y-54654761D01*
X111476190Y-54607142D01*
X111523809Y-54511904D01*
X111523809Y-54226190D01*
X111476190Y-54130952D01*
X111428571Y-54083333D01*
X111333333Y-54035714D01*
X111142857Y-54035714D01*
X111047619Y-54083333D01*
X110476190Y-54702380D02*
X110571428Y-54654761D01*
X110619047Y-54607142D01*
X110666666Y-54511904D01*
X110666666Y-54226190D01*
X110619047Y-54130952D01*
X110571428Y-54083333D01*
X110476190Y-54035714D01*
X110333333Y-54035714D01*
X110238095Y-54083333D01*
X110190476Y-54130952D01*
X110142857Y-54226190D01*
X110142857Y-54511904D01*
X110190476Y-54607142D01*
X110238095Y-54654761D01*
X110333333Y-54702380D01*
X110476190Y-54702380D01*
X109714285Y-54035714D02*
X109714285Y-54702380D01*
X109714285Y-54130952D02*
X109666666Y-54083333D01*
X109571428Y-54035714D01*
X109428571Y-54035714D01*
X109333333Y-54083333D01*
X109285714Y-54178571D01*
X109285714Y-54702380D01*
X108952380Y-54035714D02*
X108571428Y-54035714D01*
X108809523Y-53702380D02*
X108809523Y-54559523D01*
X108761904Y-54654761D01*
X108666666Y-54702380D01*
X108571428Y-54702380D01*
X107857142Y-54654761D02*
X107952380Y-54702380D01*
X108142857Y-54702380D01*
X108238095Y-54654761D01*
X108285714Y-54559523D01*
X108285714Y-54178571D01*
X108238095Y-54083333D01*
X108142857Y-54035714D01*
X107952380Y-54035714D01*
X107857142Y-54083333D01*
X107809523Y-54178571D01*
X107809523Y-54273809D01*
X108285714Y-54369047D01*
X107380952Y-54035714D02*
X107380952Y-54702380D01*
X107380952Y-54130952D02*
X107333333Y-54083333D01*
X107238095Y-54035714D01*
X107095238Y-54035714D01*
X107000000Y-54083333D01*
X106952380Y-54178571D01*
X106952380Y-54702380D01*
X106619047Y-54035714D02*
X106238095Y-54035714D01*
X106476190Y-53702380D02*
X106476190Y-54559523D01*
X106428571Y-54654761D01*
X106333333Y-54702380D01*
X106238095Y-54702380D01*
X105142857Y-54702380D02*
X105142857Y-54035714D01*
X105142857Y-53702380D02*
X105190476Y-53750000D01*
X105142857Y-53797619D01*
X105095238Y-53750000D01*
X105142857Y-53702380D01*
X105142857Y-53797619D01*
X104666666Y-54035714D02*
X104666666Y-54702380D01*
X104666666Y-54130952D02*
X104619047Y-54083333D01*
X104523809Y-54035714D01*
X104380952Y-54035714D01*
X104285714Y-54083333D01*
X104238095Y-54178571D01*
X104238095Y-54702380D01*
X103333333Y-54654761D02*
X103428571Y-54702380D01*
X103619047Y-54702380D01*
X103714285Y-54654761D01*
X103761904Y-54607142D01*
X103809523Y-54511904D01*
X103809523Y-54226190D01*
X103761904Y-54130952D01*
X103714285Y-54083333D01*
X103619047Y-54035714D01*
X103428571Y-54035714D01*
X103333333Y-54083333D01*
X102761904Y-54702380D02*
X102857142Y-54654761D01*
X102904761Y-54559523D01*
X102904761Y-53702380D01*
X101952380Y-54035714D02*
X101952380Y-54702380D01*
X102380952Y-54035714D02*
X102380952Y-54559523D01*
X102333333Y-54654761D01*
X102238095Y-54702380D01*
X102095238Y-54702380D01*
X102000000Y-54654761D01*
X101952380Y-54607142D01*
X101047619Y-54702380D02*
X101047619Y-53702380D01*
X101047619Y-54654761D02*
X101142857Y-54702380D01*
X101333333Y-54702380D01*
X101428571Y-54654761D01*
X101476190Y-54607142D01*
X101523809Y-54511904D01*
X101523809Y-54226190D01*
X101476190Y-54130952D01*
X101428571Y-54083333D01*
X101333333Y-54035714D01*
X101142857Y-54035714D01*
X101047619Y-54083333D01*
X100190476Y-54654761D02*
X100285714Y-54702380D01*
X100476190Y-54702380D01*
X100571428Y-54654761D01*
X100619047Y-54559523D01*
X100619047Y-54178571D01*
X100571428Y-54083333D01*
X100476190Y-54035714D01*
X100285714Y-54035714D01*
X100190476Y-54083333D01*
X100142857Y-54178571D01*
X100142857Y-54273809D01*
X100619047Y-54369047D01*
X99285714Y-54702380D02*
X99285714Y-53702380D01*
X99285714Y-54654761D02*
X99380952Y-54702380D01*
X99571428Y-54702380D01*
X99666666Y-54654761D01*
X99714285Y-54607142D01*
X99761904Y-54511904D01*
X99761904Y-54226190D01*
X99714285Y-54130952D01*
X99666666Y-54083333D01*
X99571428Y-54035714D01*
X99380952Y-54035714D01*
X99285714Y-54083333D01*
X98047619Y-54702380D02*
X98047619Y-54035714D01*
X98047619Y-53702380D02*
X98095238Y-53750000D01*
X98047619Y-53797619D01*
X98000000Y-53750000D01*
X98047619Y-53702380D01*
X98047619Y-53797619D01*
X97571428Y-54035714D02*
X97571428Y-54702380D01*
X97571428Y-54130952D02*
X97523809Y-54083333D01*
X97428571Y-54035714D01*
X97285714Y-54035714D01*
X97190476Y-54083333D01*
X97142857Y-54178571D01*
X97142857Y-54702380D01*
X96047619Y-54035714D02*
X95666666Y-54035714D01*
X95904761Y-53702380D02*
X95904761Y-54559523D01*
X95857142Y-54654761D01*
X95761904Y-54702380D01*
X95666666Y-54702380D01*
X95333333Y-54702380D02*
X95333333Y-53702380D01*
X94904761Y-54702380D02*
X94904761Y-54178571D01*
X94952380Y-54083333D01*
X95047619Y-54035714D01*
X95190476Y-54035714D01*
X95285714Y-54083333D01*
X95333333Y-54130952D01*
X94047619Y-54654761D02*
X94142857Y-54702380D01*
X94333333Y-54702380D01*
X94428571Y-54654761D01*
X94476190Y-54559523D01*
X94476190Y-54178571D01*
X94428571Y-54083333D01*
X94333333Y-54035714D01*
X94142857Y-54035714D01*
X94047619Y-54083333D01*
X94000000Y-54178571D01*
X94000000Y-54273809D01*
X94476190Y-54369047D01*
X92809523Y-54035714D02*
X92809523Y-55035714D01*
X92809523Y-54083333D02*
X92714285Y-54035714D01*
X92523809Y-54035714D01*
X92428571Y-54083333D01*
X92380952Y-54130952D01*
X92333333Y-54226190D01*
X92333333Y-54511904D01*
X92380952Y-54607142D01*
X92428571Y-54654761D01*
X92523809Y-54702380D01*
X92714285Y-54702380D01*
X92809523Y-54654761D01*
X91904761Y-54702380D02*
X91904761Y-54035714D01*
X91904761Y-54226190D02*
X91857142Y-54130952D01*
X91809523Y-54083333D01*
X91714285Y-54035714D01*
X91619047Y-54035714D01*
X91142857Y-54702380D02*
X91238095Y-54654761D01*
X91285714Y-54607142D01*
X91333333Y-54511904D01*
X91333333Y-54226190D01*
X91285714Y-54130952D01*
X91238095Y-54083333D01*
X91142857Y-54035714D01*
X91000000Y-54035714D01*
X90904761Y-54083333D01*
X90857142Y-54130952D01*
X90809523Y-54226190D01*
X90809523Y-54511904D01*
X90857142Y-54607142D01*
X90904761Y-54654761D01*
X91000000Y-54702380D01*
X91142857Y-54702380D01*
X90380952Y-54035714D02*
X90380952Y-54892857D01*
X90428571Y-54988095D01*
X90523809Y-55035714D01*
X90571428Y-55035714D01*
X90380952Y-53702380D02*
X90428571Y-53750000D01*
X90380952Y-53797619D01*
X90333333Y-53750000D01*
X90380952Y-53702380D01*
X90380952Y-53797619D01*
X89523809Y-54654761D02*
X89619047Y-54702380D01*
X89809523Y-54702380D01*
X89904761Y-54654761D01*
X89952380Y-54559523D01*
X89952380Y-54178571D01*
X89904761Y-54083333D01*
X89809523Y-54035714D01*
X89619047Y-54035714D01*
X89523809Y-54083333D01*
X89476190Y-54178571D01*
X89476190Y-54273809D01*
X89952380Y-54369047D01*
X88619047Y-54654761D02*
X88714285Y-54702380D01*
X88904761Y-54702380D01*
X89000000Y-54654761D01*
X89047619Y-54607142D01*
X89095238Y-54511904D01*
X89095238Y-54226190D01*
X89047619Y-54130952D01*
X89000000Y-54083333D01*
X88904761Y-54035714D01*
X88714285Y-54035714D01*
X88619047Y-54083333D01*
X88333333Y-54035714D02*
X87952380Y-54035714D01*
X88190476Y-53702380D02*
X88190476Y-54559523D01*
X88142857Y-54654761D01*
X88047619Y-54702380D01*
X87952380Y-54702380D01*
X86571428Y-55083333D02*
X86619047Y-55035714D01*
X86714285Y-54892857D01*
X86761904Y-54797619D01*
X86809523Y-54654761D01*
X86857142Y-54416666D01*
X86857142Y-54226190D01*
X86809523Y-53988095D01*
X86761904Y-53845238D01*
X86714285Y-53750000D01*
X86619047Y-53607142D01*
X86571428Y-53559523D01*
X85619047Y-54607142D02*
X85666666Y-54654761D01*
X85809523Y-54702380D01*
X85904761Y-54702380D01*
X86047619Y-54654761D01*
X86142857Y-54559523D01*
X86190476Y-54464285D01*
X86238095Y-54273809D01*
X86238095Y-54130952D01*
X86190476Y-53940476D01*
X86142857Y-53845238D01*
X86047619Y-53750000D01*
X85904761Y-53702380D01*
X85809523Y-53702380D01*
X85666666Y-53750000D01*
X85619047Y-53797619D01*
X84714285Y-53702380D02*
X85190476Y-53702380D01*
X85238095Y-54178571D01*
X85190476Y-54130952D01*
X85095238Y-54083333D01*
X84857142Y-54083333D01*
X84761904Y-54130952D01*
X84714285Y-54178571D01*
X84666666Y-54273809D01*
X84666666Y-54511904D01*
X84714285Y-54607142D01*
X84761904Y-54654761D01*
X84857142Y-54702380D01*
X85095238Y-54702380D01*
X85190476Y-54654761D01*
X85238095Y-54607142D01*
X84333333Y-55083333D02*
X84285714Y-55035714D01*
X84190476Y-54892857D01*
X84142857Y-54797619D01*
X84095238Y-54654761D01*
X84047619Y-54416666D01*
X84047619Y-54226190D01*
X84095238Y-53988095D01*
X84142857Y-53845238D01*
X84190476Y-53750000D01*
X84285714Y-53607142D01*
X84333333Y-53559523D01*
X82380952Y-54654761D02*
X82476190Y-54702380D01*
X82666666Y-54702380D01*
X82761904Y-54654761D01*
X82809523Y-54607142D01*
X82857142Y-54511904D01*
X82857142Y-54226190D01*
X82809523Y-54130952D01*
X82761904Y-54083333D01*
X82666666Y-54035714D01*
X82476190Y-54035714D01*
X82380952Y-54083333D01*
X81523809Y-54702380D02*
X81523809Y-54178571D01*
X81571428Y-54083333D01*
X81666666Y-54035714D01*
X81857142Y-54035714D01*
X81952380Y-54083333D01*
X81523809Y-54654761D02*
X81619047Y-54702380D01*
X81857142Y-54702380D01*
X81952380Y-54654761D01*
X82000000Y-54559523D01*
X82000000Y-54464285D01*
X81952380Y-54369047D01*
X81857142Y-54321428D01*
X81619047Y-54321428D01*
X81523809Y-54273809D01*
X81047619Y-54035714D02*
X81047619Y-54702380D01*
X81047619Y-54130952D02*
X81000000Y-54083333D01*
X80904761Y-54035714D01*
X80761904Y-54035714D01*
X80666666Y-54083333D01*
X80619047Y-54178571D01*
X80619047Y-54702380D01*
X79380952Y-54702380D02*
X79380952Y-53702380D01*
X79380952Y-54083333D02*
X79285714Y-54035714D01*
X79095238Y-54035714D01*
X79000000Y-54083333D01*
X78952380Y-54130952D01*
X78904761Y-54226190D01*
X78904761Y-54511904D01*
X78952380Y-54607142D01*
X79000000Y-54654761D01*
X79095238Y-54702380D01*
X79285714Y-54702380D01*
X79380952Y-54654761D01*
X78095238Y-54654761D02*
X78190476Y-54702380D01*
X78380952Y-54702380D01*
X78476190Y-54654761D01*
X78523809Y-54559523D01*
X78523809Y-54178571D01*
X78476190Y-54083333D01*
X78380952Y-54035714D01*
X78190476Y-54035714D01*
X78095238Y-54083333D01*
X78047619Y-54178571D01*
X78047619Y-54273809D01*
X78523809Y-54369047D01*
X76428571Y-54654761D02*
X76523809Y-54702380D01*
X76714285Y-54702380D01*
X76809523Y-54654761D01*
X76857142Y-54607142D01*
X76904761Y-54511904D01*
X76904761Y-54226190D01*
X76857142Y-54130952D01*
X76809523Y-54083333D01*
X76714285Y-54035714D01*
X76523809Y-54035714D01*
X76428571Y-54083333D01*
X75857142Y-54702380D02*
X75952380Y-54654761D01*
X76000000Y-54607142D01*
X76047619Y-54511904D01*
X76047619Y-54226190D01*
X76000000Y-54130952D01*
X75952380Y-54083333D01*
X75857142Y-54035714D01*
X75714285Y-54035714D01*
X75619047Y-54083333D01*
X75571428Y-54130952D01*
X75523809Y-54226190D01*
X75523809Y-54511904D01*
X75571428Y-54607142D01*
X75619047Y-54654761D01*
X75714285Y-54702380D01*
X75857142Y-54702380D01*
X75095238Y-54035714D02*
X75095238Y-55035714D01*
X75095238Y-54083333D02*
X75000000Y-54035714D01*
X74809523Y-54035714D01*
X74714285Y-54083333D01*
X74666666Y-54130952D01*
X74619047Y-54226190D01*
X74619047Y-54511904D01*
X74666666Y-54607142D01*
X74714285Y-54654761D01*
X74809523Y-54702380D01*
X75000000Y-54702380D01*
X75095238Y-54654761D01*
X74190476Y-54702380D02*
X74190476Y-54035714D01*
X74190476Y-53702380D02*
X74238095Y-53750000D01*
X74190476Y-53797619D01*
X74142857Y-53750000D01*
X74190476Y-53702380D01*
X74190476Y-53797619D01*
X73333333Y-54654761D02*
X73428571Y-54702380D01*
X73619047Y-54702380D01*
X73714285Y-54654761D01*
X73761904Y-54559523D01*
X73761904Y-54178571D01*
X73714285Y-54083333D01*
X73619047Y-54035714D01*
X73428571Y-54035714D01*
X73333333Y-54083333D01*
X73285714Y-54178571D01*
X73285714Y-54273809D01*
X73761904Y-54369047D01*
X72428571Y-54702380D02*
X72428571Y-53702380D01*
X72428571Y-54654761D02*
X72523809Y-54702380D01*
X72714285Y-54702380D01*
X72809523Y-54654761D01*
X72857142Y-54607142D01*
X72904761Y-54511904D01*
X72904761Y-54226190D01*
X72857142Y-54130952D01*
X72809523Y-54083333D01*
X72714285Y-54035714D01*
X72523809Y-54035714D01*
X72428571Y-54083333D01*
X71285714Y-54035714D02*
X71095238Y-54702380D01*
X70904761Y-54226190D01*
X70714285Y-54702380D01*
X70523809Y-54035714D01*
X70142857Y-54702380D02*
X70142857Y-54035714D01*
X70142857Y-53702380D02*
X70190476Y-53750000D01*
X70142857Y-53797619D01*
X70095238Y-53750000D01*
X70142857Y-53702380D01*
X70142857Y-53797619D01*
X69809523Y-54035714D02*
X69428571Y-54035714D01*
X69666666Y-53702380D02*
X69666666Y-54559523D01*
X69619047Y-54654761D01*
X69523809Y-54702380D01*
X69428571Y-54702380D01*
X69095238Y-54702380D02*
X69095238Y-53702380D01*
X68666666Y-54702380D02*
X68666666Y-54178571D01*
X68714285Y-54083333D01*
X68809523Y-54035714D01*
X68952380Y-54035714D01*
X69047619Y-54083333D01*
X69095238Y-54130952D01*
X68047619Y-54702380D02*
X68142857Y-54654761D01*
X68190476Y-54607142D01*
X68238095Y-54511904D01*
X68238095Y-54226190D01*
X68190476Y-54130952D01*
X68142857Y-54083333D01*
X68047619Y-54035714D01*
X67904761Y-54035714D01*
X67809523Y-54083333D01*
X67761904Y-54130952D01*
X67714285Y-54226190D01*
X67714285Y-54511904D01*
X67761904Y-54607142D01*
X67809523Y-54654761D01*
X67904761Y-54702380D01*
X68047619Y-54702380D01*
X66857142Y-54035714D02*
X66857142Y-54702380D01*
X67285714Y-54035714D02*
X67285714Y-54559523D01*
X67238095Y-54654761D01*
X67142857Y-54702380D01*
X67000000Y-54702380D01*
X66904761Y-54654761D01*
X66857142Y-54607142D01*
X66523809Y-54035714D02*
X66142857Y-54035714D01*
X66380952Y-53702380D02*
X66380952Y-54559523D01*
X66333333Y-54654761D01*
X66238095Y-54702380D01*
X66142857Y-54702380D01*
X65047619Y-54702380D02*
X65047619Y-54035714D01*
X65047619Y-54226190D02*
X65000000Y-54130952D01*
X64952380Y-54083333D01*
X64857142Y-54035714D01*
X64761904Y-54035714D01*
X64047619Y-54654761D02*
X64142857Y-54702380D01*
X64333333Y-54702380D01*
X64428571Y-54654761D01*
X64476190Y-54559523D01*
X64476190Y-54178571D01*
X64428571Y-54083333D01*
X64333333Y-54035714D01*
X64142857Y-54035714D01*
X64047619Y-54083333D01*
X64000000Y-54178571D01*
X64000000Y-54273809D01*
X64476190Y-54369047D01*
X63619047Y-54654761D02*
X63523809Y-54702380D01*
X63333333Y-54702380D01*
X63238095Y-54654761D01*
X63190476Y-54559523D01*
X63190476Y-54511904D01*
X63238095Y-54416666D01*
X63333333Y-54369047D01*
X63476190Y-54369047D01*
X63571428Y-54321428D01*
X63619047Y-54226190D01*
X63619047Y-54178571D01*
X63571428Y-54083333D01*
X63476190Y-54035714D01*
X63333333Y-54035714D01*
X63238095Y-54083333D01*
X62904761Y-54035714D02*
X62523809Y-54035714D01*
X62761904Y-53702380D02*
X62761904Y-54559523D01*
X62714285Y-54654761D01*
X62619047Y-54702380D01*
X62523809Y-54702380D01*
X62190476Y-54702380D02*
X62190476Y-54035714D01*
X62190476Y-54226190D02*
X62142857Y-54130952D01*
X62095238Y-54083333D01*
X62000000Y-54035714D01*
X61904761Y-54035714D01*
X61571428Y-54702380D02*
X61571428Y-54035714D01*
X61571428Y-53702380D02*
X61619047Y-53750000D01*
X61571428Y-53797619D01*
X61523809Y-53750000D01*
X61571428Y-53702380D01*
X61571428Y-53797619D01*
X60666666Y-54654761D02*
X60761904Y-54702380D01*
X60952380Y-54702380D01*
X61047619Y-54654761D01*
X61095238Y-54607142D01*
X61142857Y-54511904D01*
X61142857Y-54226190D01*
X61095238Y-54130952D01*
X61047619Y-54083333D01*
X60952380Y-54035714D01*
X60761904Y-54035714D01*
X60666666Y-54083333D01*
X60380952Y-54035714D02*
X60000000Y-54035714D01*
X60238095Y-53702380D02*
X60238095Y-54559523D01*
X60190476Y-54654761D01*
X60095238Y-54702380D01*
X60000000Y-54702380D01*
X59666666Y-54702380D02*
X59666666Y-54035714D01*
X59666666Y-53702380D02*
X59714285Y-53750000D01*
X59666666Y-53797619D01*
X59619047Y-53750000D01*
X59666666Y-53702380D01*
X59666666Y-53797619D01*
X59047619Y-54702380D02*
X59142857Y-54654761D01*
X59190476Y-54607142D01*
X59238095Y-54511904D01*
X59238095Y-54226190D01*
X59190476Y-54130952D01*
X59142857Y-54083333D01*
X59047619Y-54035714D01*
X58904761Y-54035714D01*
X58809523Y-54083333D01*
X58761904Y-54130952D01*
X58714285Y-54226190D01*
X58714285Y-54511904D01*
X58761904Y-54607142D01*
X58809523Y-54654761D01*
X58904761Y-54702380D01*
X59047619Y-54702380D01*
X58285714Y-54035714D02*
X58285714Y-54702380D01*
X58285714Y-54130952D02*
X58238095Y-54083333D01*
X58142857Y-54035714D01*
X58000000Y-54035714D01*
X57904761Y-54083333D01*
X57857142Y-54178571D01*
X57857142Y-54702380D01*
D11*
X113851428Y-125408571D02*
X113851428Y-123908571D01*
X113208571Y-125408571D02*
X113208571Y-124622857D01*
X113280000Y-124480000D01*
X113422857Y-124408571D01*
X113637142Y-124408571D01*
X113780000Y-124480000D01*
X113851428Y-124551428D01*
X112708571Y-124408571D02*
X112137142Y-124408571D01*
X112494285Y-123908571D02*
X112494285Y-125194285D01*
X112422857Y-125337142D01*
X112280000Y-125408571D01*
X112137142Y-125408571D01*
X111851428Y-124408571D02*
X111280000Y-124408571D01*
X111637142Y-123908571D02*
X111637142Y-125194285D01*
X111565714Y-125337142D01*
X111422857Y-125408571D01*
X111280000Y-125408571D01*
X110780000Y-124408571D02*
X110780000Y-125908571D01*
X110780000Y-124480000D02*
X110637142Y-124408571D01*
X110351428Y-124408571D01*
X110208571Y-124480000D01*
X110137142Y-124551428D01*
X110065714Y-124694285D01*
X110065714Y-125122857D01*
X110137142Y-125265714D01*
X110208571Y-125337142D01*
X110351428Y-125408571D01*
X110637142Y-125408571D01*
X110780000Y-125337142D01*
X109494285Y-125337142D02*
X109351428Y-125408571D01*
X109065714Y-125408571D01*
X108922857Y-125337142D01*
X108851428Y-125194285D01*
X108851428Y-125122857D01*
X108922857Y-124980000D01*
X109065714Y-124908571D01*
X109280000Y-124908571D01*
X109422857Y-124837142D01*
X109494285Y-124694285D01*
X109494285Y-124622857D01*
X109422857Y-124480000D01*
X109280000Y-124408571D01*
X109065714Y-124408571D01*
X108922857Y-124480000D01*
X108208571Y-125265714D02*
X108137142Y-125337142D01*
X108208571Y-125408571D01*
X108280000Y-125337142D01*
X108208571Y-125265714D01*
X108208571Y-125408571D01*
X108208571Y-124480000D02*
X108137142Y-124551428D01*
X108208571Y-124622857D01*
X108280000Y-124551428D01*
X108208571Y-124480000D01*
X108208571Y-124622857D01*
X106422857Y-123837142D02*
X107708571Y-125765714D01*
X104851428Y-123837142D02*
X106137142Y-125765714D01*
X103708571Y-124408571D02*
X103708571Y-125622857D01*
X103779999Y-125765714D01*
X103851428Y-125837142D01*
X103994285Y-125908571D01*
X104208571Y-125908571D01*
X104351428Y-125837142D01*
X103708571Y-125337142D02*
X103851428Y-125408571D01*
X104137142Y-125408571D01*
X104279999Y-125337142D01*
X104351428Y-125265714D01*
X104422857Y-125122857D01*
X104422857Y-124694285D01*
X104351428Y-124551428D01*
X104279999Y-124480000D01*
X104137142Y-124408571D01*
X103851428Y-124408571D01*
X103708571Y-124480000D01*
X102994285Y-125408571D02*
X102994285Y-124408571D01*
X102994285Y-123908571D02*
X103065714Y-123980000D01*
X102994285Y-124051428D01*
X102922857Y-123980000D01*
X102994285Y-123908571D01*
X102994285Y-124051428D01*
X102494285Y-124408571D02*
X101922857Y-124408571D01*
X102279999Y-123908571D02*
X102279999Y-125194285D01*
X102208571Y-125337142D01*
X102065714Y-125408571D01*
X101922857Y-125408571D01*
X101422857Y-125408571D02*
X101422857Y-123908571D01*
X100779999Y-125408571D02*
X100779999Y-124622857D01*
X100851428Y-124480000D01*
X100994285Y-124408571D01*
X101208571Y-124408571D01*
X101351428Y-124480000D01*
X101422857Y-124551428D01*
X99422857Y-124408571D02*
X99422857Y-125408571D01*
X100065714Y-124408571D02*
X100065714Y-125194285D01*
X99994285Y-125337142D01*
X99851428Y-125408571D01*
X99637142Y-125408571D01*
X99494285Y-125337142D01*
X99422857Y-125265714D01*
X98708571Y-125408571D02*
X98708571Y-123908571D01*
X98708571Y-124480000D02*
X98565714Y-124408571D01*
X98279999Y-124408571D01*
X98137142Y-124480000D01*
X98065714Y-124551428D01*
X97994285Y-124694285D01*
X97994285Y-125122857D01*
X98065714Y-125265714D01*
X98137142Y-125337142D01*
X98279999Y-125408571D01*
X98565714Y-125408571D01*
X98708571Y-125337142D01*
X97351428Y-125265714D02*
X97279999Y-125337142D01*
X97351428Y-125408571D01*
X97422857Y-125337142D01*
X97351428Y-125265714D01*
X97351428Y-125408571D01*
X95994285Y-125337142D02*
X96137142Y-125408571D01*
X96422857Y-125408571D01*
X96565714Y-125337142D01*
X96637142Y-125265714D01*
X96708571Y-125122857D01*
X96708571Y-124694285D01*
X96637142Y-124551428D01*
X96565714Y-124480000D01*
X96422857Y-124408571D01*
X96137142Y-124408571D01*
X95994285Y-124480000D01*
X95137142Y-125408571D02*
X95279999Y-125337142D01*
X95351428Y-125265714D01*
X95422857Y-125122857D01*
X95422857Y-124694285D01*
X95351428Y-124551428D01*
X95279999Y-124480000D01*
X95137142Y-124408571D01*
X94922857Y-124408571D01*
X94779999Y-124480000D01*
X94708571Y-124551428D01*
X94637142Y-124694285D01*
X94637142Y-125122857D01*
X94708571Y-125265714D01*
X94779999Y-125337142D01*
X94922857Y-125408571D01*
X95137142Y-125408571D01*
X93994285Y-125408571D02*
X93994285Y-124408571D01*
X93994285Y-124551428D02*
X93922857Y-124480000D01*
X93779999Y-124408571D01*
X93565714Y-124408571D01*
X93422857Y-124480000D01*
X93351428Y-124622857D01*
X93351428Y-125408571D01*
X93351428Y-124622857D02*
X93279999Y-124480000D01*
X93137142Y-124408571D01*
X92922857Y-124408571D01*
X92779999Y-124480000D01*
X92708571Y-124622857D01*
X92708571Y-125408571D01*
X90922857Y-123837142D02*
X92208571Y-125765714D01*
X90422857Y-125408571D02*
X90422857Y-123908571D01*
X89922857Y-124980000D01*
X89422857Y-123908571D01*
X89422857Y-125408571D01*
X88065714Y-125408571D02*
X88065714Y-124622857D01*
X88137142Y-124480000D01*
X88279999Y-124408571D01*
X88565714Y-124408571D01*
X88708571Y-124480000D01*
X88065714Y-125337142D02*
X88208571Y-125408571D01*
X88565714Y-125408571D01*
X88708571Y-125337142D01*
X88779999Y-125194285D01*
X88779999Y-125051428D01*
X88708571Y-124908571D01*
X88565714Y-124837142D01*
X88208571Y-124837142D01*
X88065714Y-124765714D01*
X87351428Y-125408571D02*
X87351428Y-124408571D01*
X87351428Y-124694285D02*
X87279999Y-124551428D01*
X87208571Y-124480000D01*
X87065714Y-124408571D01*
X86922857Y-124408571D01*
X85779999Y-125337142D02*
X85922857Y-125408571D01*
X86208571Y-125408571D01*
X86351428Y-125337142D01*
X86422857Y-125265714D01*
X86494285Y-125122857D01*
X86494285Y-124694285D01*
X86422857Y-124551428D01*
X86351428Y-124480000D01*
X86208571Y-124408571D01*
X85922857Y-124408571D01*
X85779999Y-124480000D01*
X85137142Y-125408571D02*
X85137142Y-124408571D01*
X85137142Y-123908571D02*
X85208571Y-123980000D01*
X85137142Y-124051428D01*
X85065714Y-123980000D01*
X85137142Y-123908571D01*
X85137142Y-124051428D01*
X84422857Y-124408571D02*
X84422857Y-125408571D01*
X84422857Y-124551428D02*
X84351428Y-124480000D01*
X84208571Y-124408571D01*
X83994285Y-124408571D01*
X83851428Y-124480000D01*
X83779999Y-124622857D01*
X83779999Y-125408571D01*
X83208571Y-123908571D02*
X82851428Y-125408571D01*
X82565714Y-124337142D01*
X82279999Y-125408571D01*
X81922857Y-123908571D01*
X81137142Y-125408571D02*
X81279999Y-125337142D01*
X81351428Y-125265714D01*
X81422857Y-125122857D01*
X81422857Y-124694285D01*
X81351428Y-124551428D01*
X81279999Y-124480000D01*
X81137142Y-124408571D01*
X80922857Y-124408571D01*
X80779999Y-124480000D01*
X80708571Y-124551428D01*
X80637142Y-124694285D01*
X80637142Y-125122857D01*
X80708571Y-125265714D01*
X80779999Y-125337142D01*
X80922857Y-125408571D01*
X81137142Y-125408571D01*
X79994285Y-124408571D02*
X79994285Y-125694285D01*
X80065714Y-125837142D01*
X80208571Y-125908571D01*
X80279999Y-125908571D01*
X79994285Y-123908571D02*
X80065714Y-123980000D01*
X79994285Y-124051428D01*
X79922857Y-123980000D01*
X79994285Y-123908571D01*
X79994285Y-124051428D01*
X78708571Y-125337142D02*
X78851428Y-125408571D01*
X79137142Y-125408571D01*
X79279999Y-125337142D01*
X79351428Y-125194285D01*
X79351428Y-124622857D01*
X79279999Y-124480000D01*
X79137142Y-124408571D01*
X78851428Y-124408571D01*
X78708571Y-124480000D01*
X78637142Y-124622857D01*
X78637142Y-124765714D01*
X79351428Y-124908571D01*
X78137142Y-124408571D02*
X77851428Y-125408571D01*
X77565714Y-124694285D01*
X77279999Y-125408571D01*
X76994285Y-124408571D01*
X76208571Y-125408571D02*
X76351428Y-125337142D01*
X76422857Y-125265714D01*
X76494285Y-125122857D01*
X76494285Y-124694285D01*
X76422857Y-124551428D01*
X76351428Y-124480000D01*
X76208571Y-124408571D01*
X75994285Y-124408571D01*
X75851428Y-124480000D01*
X75779999Y-124551428D01*
X75708571Y-124694285D01*
X75708571Y-125122857D01*
X75779999Y-125265714D01*
X75851428Y-125337142D01*
X75994285Y-125408571D01*
X76208571Y-125408571D01*
X74422857Y-125408571D02*
X74422857Y-123908571D01*
X74422857Y-125337142D02*
X74565714Y-125408571D01*
X74851428Y-125408571D01*
X74994285Y-125337142D01*
X75065714Y-125265714D01*
X75137142Y-125122857D01*
X75137142Y-124694285D01*
X75065714Y-124551428D01*
X74994285Y-124480000D01*
X74851428Y-124408571D01*
X74565714Y-124408571D01*
X74422857Y-124480000D01*
X73851428Y-124408571D02*
X73065714Y-124408571D01*
X73851428Y-125408571D01*
X73065714Y-125408571D01*
X72494285Y-125408571D02*
X72494285Y-124408571D01*
X72494285Y-123908571D02*
X72565714Y-123980000D01*
X72494285Y-124051428D01*
X72422857Y-123980000D01*
X72494285Y-123908571D01*
X72494285Y-124051428D01*
X71137142Y-125337142D02*
X71279999Y-125408571D01*
X71565714Y-125408571D01*
X71708571Y-125337142D01*
X71779999Y-125265714D01*
X71851428Y-125122857D01*
X71851428Y-124694285D01*
X71779999Y-124551428D01*
X71708571Y-124480000D01*
X71565714Y-124408571D01*
X71279999Y-124408571D01*
X71137142Y-124480000D01*
D12*
X79920000Y-88920000D02*
X75080000Y-88920000D01*
X75080000Y-84080000D01*
X79920000Y-84080000D01*
X79920000Y-88920000D01*
D13*
G36*
X79920000Y-88920000D02*
G01*
X75080000Y-88920000D01*
X75080000Y-84080000D01*
X79920000Y-84080000D01*
X79920000Y-88920000D01*
G37*
%LPC*%
D14*
G04 #@! TO.C,J8*
X125750000Y-77100000D03*
D15*
X125750000Y-82180000D03*
G04 #@! TD*
D16*
G04 #@! TO.C,J4*
X61980000Y-134360000D03*
X59440000Y-134360000D03*
X56900000Y-134360000D03*
D17*
X54360000Y-134360000D03*
G04 #@! TD*
D16*
G04 #@! TO.C,J6*
X43500000Y-60110000D03*
X43500000Y-57570000D03*
X43500000Y-55030000D03*
X43500000Y-52490000D03*
X43500000Y-49950000D03*
X43500000Y-47410000D03*
X43500000Y-44870000D03*
D17*
X43500000Y-42330000D03*
G04 #@! TD*
D16*
G04 #@! TO.C,J7*
X41940000Y-77020000D03*
D17*
X41940000Y-74480000D03*
G04 #@! TD*
D16*
G04 #@! TO.C,J1*
X115010000Y-45460000D03*
X115010000Y-48000000D03*
X112470000Y-45460000D03*
X112470000Y-48000000D03*
X109930000Y-45460000D03*
X109930000Y-48000000D03*
X107390000Y-45460000D03*
X107390000Y-48000000D03*
X104850000Y-45460000D03*
X104850000Y-48000000D03*
X102310000Y-45460000D03*
X102310000Y-48000000D03*
X99770000Y-45460000D03*
X99770000Y-48000000D03*
X97230000Y-45460000D03*
X97230000Y-48000000D03*
X94690000Y-45460000D03*
X94690000Y-48000000D03*
X92150000Y-45460000D03*
X92150000Y-48000000D03*
X89610000Y-45460000D03*
X89610000Y-48000000D03*
X87070000Y-45460000D03*
X87070000Y-48000000D03*
X84530000Y-45460000D03*
X84530000Y-48000000D03*
X81990000Y-45460000D03*
X81990000Y-48000000D03*
X79450000Y-45460000D03*
X79450000Y-48000000D03*
X76910000Y-45460000D03*
X76910000Y-48000000D03*
X74370000Y-45460000D03*
X74370000Y-48000000D03*
X71830000Y-45460000D03*
X71830000Y-48000000D03*
X69290000Y-45460000D03*
X69290000Y-48000000D03*
X66750000Y-45460000D03*
D17*
X66750000Y-48000000D03*
G04 #@! TD*
D16*
G04 #@! TO.C,J2*
X115010000Y-131960000D03*
X115010000Y-134500000D03*
X112470000Y-131960000D03*
X112470000Y-134500000D03*
X109930000Y-131960000D03*
X109930000Y-134500000D03*
X107390000Y-131960000D03*
X107390000Y-134500000D03*
X104850000Y-131960000D03*
X104850000Y-134500000D03*
X102310000Y-131960000D03*
X102310000Y-134500000D03*
X99770000Y-131960000D03*
X99770000Y-134500000D03*
X97230000Y-131960000D03*
X97230000Y-134500000D03*
X94690000Y-131960000D03*
X94690000Y-134500000D03*
X92150000Y-131960000D03*
X92150000Y-134500000D03*
X89610000Y-131960000D03*
X89610000Y-134500000D03*
X87070000Y-131960000D03*
X87070000Y-134500000D03*
X84530000Y-131960000D03*
X84530000Y-134500000D03*
X81990000Y-131960000D03*
X81990000Y-134500000D03*
X79450000Y-131960000D03*
X79450000Y-134500000D03*
X76910000Y-131960000D03*
X76910000Y-134500000D03*
X74370000Y-131960000D03*
X74370000Y-134500000D03*
X71830000Y-131960000D03*
X71830000Y-134500000D03*
X69290000Y-131960000D03*
X69290000Y-134500000D03*
X66750000Y-131960000D03*
D17*
X66750000Y-134500000D03*
G04 #@! TD*
D16*
G04 #@! TO.C,J3*
X127900000Y-72480000D03*
X127900000Y-69940000D03*
X127900000Y-67400000D03*
X127900000Y-64860000D03*
X127900000Y-62320000D03*
X127900000Y-59780000D03*
X127900000Y-57240000D03*
X127900000Y-54700000D03*
X127900000Y-52160000D03*
X127900000Y-49620000D03*
X127900000Y-47080000D03*
X127900000Y-44540000D03*
D17*
X127900000Y-42000000D03*
G04 #@! TD*
D18*
G04 #@! TO.C,J5*
X134320000Y-92890000D03*
X134320000Y-87110000D03*
D19*
X133820000Y-85680000D03*
X133820000Y-94320000D03*
G36*
G01*
X138701000Y-86282000D02*
X137299000Y-86282000D01*
G75*
G02*
X136998000Y-85981000I0J301000D01*
G01*
X136998000Y-85379000D01*
G75*
G02*
X137299000Y-85078000I301000J0D01*
G01*
X138701000Y-85078000D01*
G75*
G02*
X139002000Y-85379000I0J-301000D01*
G01*
X139002000Y-85981000D01*
G75*
G02*
X138701000Y-86282000I-301000J0D01*
G01*
G37*
G36*
G01*
X138701000Y-94922000D02*
X137299000Y-94922000D01*
G75*
G02*
X136998000Y-94621000I0J301000D01*
G01*
X136998000Y-94019000D01*
G75*
G02*
X137299000Y-93718000I301000J0D01*
G01*
X138701000Y-93718000D01*
G75*
G02*
X139002000Y-94019000I0J-301000D01*
G01*
X139002000Y-94621000D01*
G75*
G02*
X138701000Y-94922000I-301000J0D01*
G01*
G37*
G04 #@! TD*
M02*
