G04 #@! TF.GenerationSoftware,KiCad,Pcbnew,(5.1.12)-1*
G04 #@! TF.CreationDate,2024-11-15T22:41:14+01:00*
G04 #@! TF.ProjectId,C5W1B1V1.0,43355731-4231-4563-912e-302e6b696361,rev?*
G04 #@! TF.SameCoordinates,Original*
G04 #@! TF.FileFunction,Soldermask,Bot*
G04 #@! TF.FilePolarity,Negative*
%FSLAX46Y46*%
G04 Gerber Fmt 4.6, Leading zero omitted, Abs format (unit mm)*
G04 Created by KiCad (PCBNEW (5.1.12)-1) date 2024-11-15 22:41:14*
%MOMM*%
%LPD*%
G01*
G04 APERTURE LIST*
%ADD10C,3.000000*%
%ADD11R,3.000000X3.000000*%
%ADD12O,1.700000X1.700000*%
%ADD13R,1.700000X1.700000*%
%ADD14C,0.650000*%
%ADD15O,2.304000X1.204000*%
G04 APERTURE END LIST*
D10*
G04 #@! TO.C,J8*
X125750000Y-77100000D03*
D11*
X125750000Y-82180000D03*
G04 #@! TD*
D12*
G04 #@! TO.C,J4*
X61980000Y-134360000D03*
X59440000Y-134360000D03*
X56900000Y-134360000D03*
D13*
X54360000Y-134360000D03*
G04 #@! TD*
D12*
G04 #@! TO.C,J6*
X43500000Y-60110000D03*
X43500000Y-57570000D03*
X43500000Y-55030000D03*
X43500000Y-52490000D03*
X43500000Y-49950000D03*
X43500000Y-47410000D03*
X43500000Y-44870000D03*
D13*
X43500000Y-42330000D03*
G04 #@! TD*
D12*
G04 #@! TO.C,J7*
X41940000Y-77020000D03*
D13*
X41940000Y-74480000D03*
G04 #@! TD*
D12*
G04 #@! TO.C,J1*
X115010000Y-45460000D03*
X115010000Y-48000000D03*
X112470000Y-45460000D03*
X112470000Y-48000000D03*
X109930000Y-45460000D03*
X109930000Y-48000000D03*
X107390000Y-45460000D03*
X107390000Y-48000000D03*
X104850000Y-45460000D03*
X104850000Y-48000000D03*
X102310000Y-45460000D03*
X102310000Y-48000000D03*
X99770000Y-45460000D03*
X99770000Y-48000000D03*
X97230000Y-45460000D03*
X97230000Y-48000000D03*
X94690000Y-45460000D03*
X94690000Y-48000000D03*
X92150000Y-45460000D03*
X92150000Y-48000000D03*
X89610000Y-45460000D03*
X89610000Y-48000000D03*
X87070000Y-45460000D03*
X87070000Y-48000000D03*
X84530000Y-45460000D03*
X84530000Y-48000000D03*
X81990000Y-45460000D03*
X81990000Y-48000000D03*
X79450000Y-45460000D03*
X79450000Y-48000000D03*
X76910000Y-45460000D03*
X76910000Y-48000000D03*
X74370000Y-45460000D03*
X74370000Y-48000000D03*
X71830000Y-45460000D03*
X71830000Y-48000000D03*
X69290000Y-45460000D03*
X69290000Y-48000000D03*
X66750000Y-45460000D03*
D13*
X66750000Y-48000000D03*
G04 #@! TD*
D12*
G04 #@! TO.C,J2*
X115010000Y-131960000D03*
X115010000Y-134500000D03*
X112470000Y-131960000D03*
X112470000Y-134500000D03*
X109930000Y-131960000D03*
X109930000Y-134500000D03*
X107390000Y-131960000D03*
X107390000Y-134500000D03*
X104850000Y-131960000D03*
X104850000Y-134500000D03*
X102310000Y-131960000D03*
X102310000Y-134500000D03*
X99770000Y-131960000D03*
X99770000Y-134500000D03*
X97230000Y-131960000D03*
X97230000Y-134500000D03*
X94690000Y-131960000D03*
X94690000Y-134500000D03*
X92150000Y-131960000D03*
X92150000Y-134500000D03*
X89610000Y-131960000D03*
X89610000Y-134500000D03*
X87070000Y-131960000D03*
X87070000Y-134500000D03*
X84530000Y-131960000D03*
X84530000Y-134500000D03*
X81990000Y-131960000D03*
X81990000Y-134500000D03*
X79450000Y-131960000D03*
X79450000Y-134500000D03*
X76910000Y-131960000D03*
X76910000Y-134500000D03*
X74370000Y-131960000D03*
X74370000Y-134500000D03*
X71830000Y-131960000D03*
X71830000Y-134500000D03*
X69290000Y-131960000D03*
X69290000Y-134500000D03*
X66750000Y-131960000D03*
D13*
X66750000Y-134500000D03*
G04 #@! TD*
D12*
G04 #@! TO.C,J3*
X127900000Y-72480000D03*
X127900000Y-69940000D03*
X127900000Y-67400000D03*
X127900000Y-64860000D03*
X127900000Y-62320000D03*
X127900000Y-59780000D03*
X127900000Y-57240000D03*
X127900000Y-54700000D03*
X127900000Y-52160000D03*
X127900000Y-49620000D03*
X127900000Y-47080000D03*
X127900000Y-44540000D03*
D13*
X127900000Y-42000000D03*
G04 #@! TD*
D14*
G04 #@! TO.C,J5*
X134320000Y-92890000D03*
X134320000Y-87110000D03*
D15*
X133820000Y-85680000D03*
X133820000Y-94320000D03*
G36*
G01*
X138701000Y-86282000D02*
X137299000Y-86282000D01*
G75*
G02*
X136998000Y-85981000I0J301000D01*
G01*
X136998000Y-85379000D01*
G75*
G02*
X137299000Y-85078000I301000J0D01*
G01*
X138701000Y-85078000D01*
G75*
G02*
X139002000Y-85379000I0J-301000D01*
G01*
X139002000Y-85981000D01*
G75*
G02*
X138701000Y-86282000I-301000J0D01*
G01*
G37*
G36*
G01*
X138701000Y-94922000D02*
X137299000Y-94922000D01*
G75*
G02*
X136998000Y-94621000I0J301000D01*
G01*
X136998000Y-94019000D01*
G75*
G02*
X137299000Y-93718000I301000J0D01*
G01*
X138701000Y-93718000D01*
G75*
G02*
X139002000Y-94019000I0J-301000D01*
G01*
X139002000Y-94621000D01*
G75*
G02*
X138701000Y-94922000I-301000J0D01*
G01*
G37*
G04 #@! TD*
M02*
